<?xml version="1.0" encoding="utf-8"?>
<!-- Generator: Adobe Illustrator 16.0.0, SVG Export Plug-In . SVG Version: 6.00 Build 0)  -->
<!DOCTYPE svg PUBLIC "-//W3C//DTD SVG 1.1//EN" "http://www.w3.org/Graphics/SVG/1.1/DTD/svg11.dtd">
<svg version="1.1" id="Layer_1" xmlns="http://www.w3.org/2000/svg" xmlns:xlink="http://www.w3.org/1999/xlink" x="0px" y="0px"
	 width="808px" height="283px" viewBox="0 0 808 283" enable-background="new 0 0 808 283" xml:space="preserve">
<path fill="#E6E7E8" d="M23-0.116h761c13,0,24,10,24,23v209H0v-209C0,9.884,10-0.116,23-0.116z"/>
<g id="_2317836127984">
	<g>
		<path fill="#007990" d="M57.185,35.444c14.479-7.796,31.185-11.138,49.004-11.138c10.023,0,18.934,1.114,27.844,3.341
			c-1.114,0-2.229,0-3.342,0c-38.98,0-71.278,30.071-73.506,67.938l0,0V35.444L57.185,35.444z M158.535,107.837
			c-5.569,13.365-25.616,24.502-50.118,24.502c-20.048,0-37.868-7.796-45.664-17.82c6.683,30.071,34.525,52.348,67.938,52.348
			c10.023,0,20.047-2.229,27.845-5.57V107.837z"/>
		<path fill="#79A342" d="M130.692,170.207c-36.753,0-67.938-27.844-72.393-63.484v1.114L26,137.908
			c16.706,22.274,45.663,36.754,80.188,36.754c12.25,0,24.502-2.229,35.64-5.568C138.488,170.207,135.147,170.207,130.692,170.207z
			 M108.417,67.742c24.502,0,44.549,11.138,50.118,24.502l0,0l31.184-32.298c-13.365-17.82-34.525-30.071-59.028-30.071
			c-34.525,0-63.482,24.502-69.052,56.801C69.436,75.538,87.256,67.742,108.417,67.742z"/>
		<path fill="#007990" d="M176.355,163.525l37.867-94.669h20.047l12.251,94.669h-15.592l-2.228-23.39h-27.844l-8.91,23.39H176.355z
			 M205.312,127.884h22.274l-5.569-46.777l0,0L205.312,127.884z M247.634,163.525l11.137-94.669h18.934l17.82,70.167h1.114
			l8.91-70.167h13.364l-11.138,94.669h-18.934l-17.819-72.394h-1.113l-8.91,72.394H247.634L247.634,163.525z M316.686,133.453
			h15.592l-1.114,2.229c0,2.227,0,4.455,0,6.682c1.114,7.797,5.569,11.139,13.365,11.139c4.455,0,8.91-1.115,11.137-4.455
			c3.342-2.229,4.455-5.57,5.569-8.911c0-2.229,0-3.341,0-5.568c-1.114-5.568-4.455-8.91-12.251-12.25l-8.91-3.342
			c-11.137-3.341-16.706-10.023-16.706-18.933c-1.113-2.228,0-4.455,0-6.683c1.114-8.91,4.455-15.592,10.023-20.047
			c6.683-4.455,13.365-6.683,22.274-6.683c15.594,0,23.39,5.569,24.503,16.707c0,2.228,0,5.569,0,7.796l-1.113,2.228h-14.479v-2.228
			c0-1.113,0-3.341,0-4.455c0-5.569-4.455-8.91-11.138-8.91c-8.91,0-13.365,4.455-14.479,13.365
			c-1.114,2.228-1.114,3.341-1.114,4.455c1.114,4.455,5.568,8.91,13.364,12.251l8.91,3.341c10.024,4.455,15.594,10.022,16.707,17.82
			c0,2.228,0,4.455,0,7.796c-2.228,18.934-14.479,27.844-35.64,27.844c-15.592,0-23.388-6.684-24.502-20.049
			c-1.114-2.227-1.114-5.567,0-8.91L316.686,133.453L316.686,133.453z M394.647,116.746l13.365-35.638h7.796l4.455,35.638h-5.568
			l-1.114-8.909h-10.022l-3.342,8.909H394.647z M404.67,103.382h8.909l-2.228-16.706l0,0L404.67,103.382z M422.49,118.974h5.568l0,0
			c0,1.114,0,2.229,0,2.229c1.114,1.113,2.228,1.113,3.342,1.113c1.113,0,2.229-1.113,3.341-1.113
			c1.114-1.114,1.114-2.229,1.114-4.455l1.113-4.455l0,0c-2.229,3.341-4.455,4.455-6.684,4.455c-4.455,0-6.683-2.229-6.683-7.797
			c0-1.113,0-3.34,0-5.567c1.114-8.91,4.455-13.365,10.023-13.365c2.229,0,3.342,0,4.455,1.113c0,0,1.113,1.114,1.113,2.228l0,0
			v-3.341h5.568l-3.341,25.615c-1.114,6.683-4.455,10.024-11.139,10.024c-4.455,0-7.796-2.229-7.796-5.569v-1.114H422.49z
			 M429.173,102.268c0,3.341,0,4.455,0,5.568c0,3.341,1.112,4.455,3.341,4.455c2.228,0,4.455-3.341,5.568-8.91
			c0-2.228,0-4.455,0-5.569c0-2.228-1.113-4.455-3.342-4.455c-2.228,0-3.341,1.114-4.455,3.341
			C430.285,97.813,429.173,100.042,429.173,102.268z M465.926,104.496h-13.364v1.113c-1.114,2.228-1.114,3.342-1.114,4.455
			c1.114,2.229,2.229,3.342,4.455,3.342c1.114,0,2.229,0,3.342-2.229c1.113-1.113,1.113-2.229,1.113-3.341h5.568
			c-1.113,3.341-2.229,5.569-3.342,6.682c-2.228,2.228-4.454,3.341-7.796,3.341c-2.228,0-3.342-1.113-4.454-2.228
			c-2.229-1.114-3.343-3.341-3.343-5.567c0-2.228,0-4.455,0-6.683c1.114-8.91,4.455-13.365,11.139-13.365
			c5.567,0,7.796,2.227,8.909,6.682c0,1.114,0,2.228-1.113,4.455V104.496L465.926,104.496z M452.562,86.676l4.455-6.683h5.568
			l3.341,6.683h-4.454l-2.229-4.455l-3.342,4.455H452.562z M452.562,100.042h8.91v-1.114c0-1.114,0-1.114,0-2.228
			c0-2.228-1.114-3.341-3.342-3.341C454.788,93.358,453.675,95.586,452.562,100.042L452.562,100.042z M469.268,116.746l3.341-26.729
			h4.455v3.341l0,0c1.114-2.228,4.455-3.341,6.683-3.341c3.343,0,5.568,1.113,5.568,4.455c1.114,0,0,1.114,0,2.228l-2.227,20.047
			h-5.569l2.228-17.819c1.114-1.114,1.114-2.228,1.114-2.228c-1.114-2.228-2.228-3.341-3.342-3.341
			c-1.113,0-2.228,1.114-3.341,2.228c-1.114,0-2.229,2.228-2.229,3.341l-2.228,17.819h-4.454V116.746z M506.022,106.723h5.568
			c-1.113,3.341-2.229,6.683-3.342,7.796c-2.228,2.229-4.455,3.342-6.683,3.342c-5.569,0-7.797-3.342-8.91-8.91
			c0-1.114,0-3.342,0-5.568c1.113-4.455,2.229-7.796,3.341-10.024c2.229-2.228,4.455-3.341,8.91-3.341s6.684,2.227,7.795,6.682
			c0,0,0,1.114,0,2.228h-5.566c0-1.114,0-1.114,0-2.228c0-2.228-1.113-3.341-3.342-3.341c-1.113,0-3.342,1.114-3.342,3.341
			c-1.112,1.114-2.228,3.341-2.228,6.683c0,2.229,0,4.455,0,5.568c0,3.341,1.114,4.455,3.342,4.455S506.022,111.178,506.022,106.723
			z M513.817,116.746l3.341-26.729h5.569l-3.342,26.729H513.817z M518.272,86.676v-5.569h5.568v5.569H518.272z M545,95.586
			l-2.228,15.592l0,0c0,1.114,1.114,2.228,1.114,2.228c1.112,0,1.112,0,1.112,0v3.342c-1.112,0-2.228,0-3.341,0
			c-2.228,0-3.342-1.114-3.342-2.229c0-1.113,0-1.113,0-1.113l0,0c-2.228,2.228-4.454,4.455-7.796,4.455
			c-3.341,0-5.568-2.228-5.568-5.567c0-1.114,0-1.114,0-2.228c0-3.342,1.113-4.455,2.229-5.57c1.112-1.112,2.228-2.227,4.455-3.34
			l4.454-1.114c1.113,0,2.228,0,2.228,0c1.114-1.114,1.114-2.228,1.114-3.341v-1.114c0-1.114-1.114-2.228-3.342-2.228
			s-3.342,1.114-4.454,4.455h-4.455c0-2.228,1.113-4.455,2.228-5.569c2.229-2.227,4.455-2.227,7.797-2.227
			c4.454,0,7.796,1.113,7.796,4.455L545,95.586L545,95.586z M538.319,106.723l1.114-4.455c-1.114,1.114-2.229,1.114-3.342,2.228
			c-2.228,0-3.341,0-3.341,1.113c-1.113,0-2.229,1.113-2.229,3.342c0,1.113,0,1.113,0,2.228s1.114,2.228,2.229,2.228
			C536.091,113.406,538.319,111.178,538.319,106.723z M559.481,116.746l4.454-35.638h6.683l7.797,26.729l0,0l3.342-26.729h4.455
			l-4.455,35.638h-6.684l-6.683-26.729l0,0l-3.341,26.729H559.481z M607.37,95.586l-2.228,15.592l0,0
			c0,1.114,1.114,2.228,1.114,2.228c1.112,0,1.112,0,1.112,0v3.342c-1.112,0-2.228,0-3.341,0c-2.228,0-3.342-1.114-3.342-2.229
			c0-1.113,0-1.113,0-1.113l0,0c-2.229,2.228-4.455,4.455-7.796,4.455c-3.342,0-5.569-2.228-5.569-5.567c0-1.114,0-1.114,0-2.228
			c0-3.342,1.114-4.455,2.229-5.57c1.113-1.112,3.342-2.227,4.455-3.34l4.455-1.114c1.113,0,2.228,0,2.228,0
			c1.114-1.114,1.114-2.228,1.114-3.341c1.112,0,1.112-1.114,0-1.114c0-1.114-1.114-2.228-2.229-2.228
			c-3.342,0-4.455,1.114-5.568,4.455h-4.455c0-2.228,1.114-4.455,3.342-5.569c1.113-2.227,3.341-2.227,6.683-2.227
			c5.568,0,7.796,1.113,7.796,4.455V95.586L607.37,95.586z M600.689,106.723l1.114-4.455c-1.114,1.114-2.229,1.114-3.342,2.228
			c-2.229,0-2.229,0-3.342,1.113c-1.113,0-2.228,1.113-2.228,3.342c0,1.113,0,1.113,0,2.228s1.113,2.228,2.228,2.228
			C598.461,113.406,600.689,111.178,600.689,106.723z M624.075,106.723h5.569c-1.114,3.341-2.229,6.683-3.342,7.796
			c-2.229,2.229-4.454,3.342-7.796,3.342c-4.454,0-7.796-3.342-7.796-8.91c0-1.114,0-3.342,0-5.568
			c1.113-4.455,2.228-7.796,3.342-10.024c2.228-2.228,4.454-3.341,7.796-3.341c5.567,0,7.796,2.227,8.909,6.682c0,0,0,1.114,0,2.228
			h-5.567c0-1.114,0-1.114,0-2.228c0-2.228-1.115-3.341-3.342-3.341c-2.229,0-3.342,1.114-4.455,3.341
			c0,1.114-1.113,3.341-1.113,6.683c0,2.229,0,4.455,0,5.568c0,3.341,1.113,4.455,3.34,4.455
			C621.85,113.406,624.075,111.178,624.075,106.723z M631.872,116.746l3.342-26.729h5.567l-3.341,26.729H631.872z M636.326,86.676
			v-5.569h5.569v5.569H636.326z M643.01,103.382c1.113-4.455,2.228-7.796,3.342-10.024c2.228-2.228,5.568-3.341,8.91-3.341
			c4.454,0,7.796,2.227,7.796,7.796c0,1.114,0,3.341,0,5.569c-1.114,8.91-4.455,14.479-11.138,14.479
			c-5.568,0-7.797-3.342-8.91-8.91C643.01,107.837,643.01,105.611,643.01,103.382z M648.578,103.382c0,3.341,0,4.455,0,6.682
			c0,2.228,1.113,3.342,3.342,3.342c2.228,0,3.342-1.114,4.455-2.229c0-1.113,1.113-4.455,1.113-7.796
			c1.113-2.228,1.113-4.455,1.113-5.569c-1.113-3.341-2.229-4.455-4.455-4.455c-1.113,0-2.229,1.114-3.341,3.341
			C649.693,97.813,649.693,100.042,648.578,103.382z M665.284,116.746l3.341-26.729h5.569l-1.114,3.341l0,0
			c2.229-2.228,4.455-3.341,7.797-3.341s5.568,1.113,5.568,4.455c0,0,0,1.114,0,2.228l-2.228,20.047h-5.568l2.227-17.819
			c0-1.114,0-2.228,0-2.228c0-2.228-1.112-3.341-3.341-3.341c-1.112,0-2.228,1.114-2.228,2.228c-1.113,0-2.229,2.228-2.229,3.341
			l-2.228,17.819h-5.567V116.746z M708.721,95.586l-1.113,15.592l0,0c0,1.114,0,2.228,1.113,2.228l0,0v3.342
			c-1.113,0-2.229,0-2.229,0c-3.341,0-4.454-1.114-4.454-2.229c0-1.113,0-1.113,0-1.113l0,0c-2.228,2.228-4.454,4.455-6.683,4.455
			c-4.455,0-6.683-2.228-6.683-5.567c0-1.114,0-1.114,0-2.228c1.112-3.342,1.112-4.455,2.228-5.57
			c1.113-1.112,3.341-2.227,5.568-3.34l4.455-1.114c1.113,0,1.113,0,2.228,0c0-1.114,1.114-2.228,1.114-3.341v-1.114
			c0-1.114-1.114-2.228-3.342-2.228c-3.341,0-4.455,1.114-4.455,4.455h-5.568c1.113-2.228,1.113-4.455,3.341-5.569
			c1.114-2.227,3.343-2.227,6.684-2.227c5.567,0,7.796,1.113,7.796,4.455V95.586L708.721,95.586z M703.153,106.723v-4.455
			c-1.113,1.114-1.113,1.114-3.341,2.228c-1.114,0-2.228,0-3.342,1.113c-1.113,0-2.229,1.113-2.229,3.342c0,1.113,0,1.113,0,2.228
			s1.114,2.228,3.343,2.228C699.812,113.406,702.038,111.178,703.153,106.723z M712.063,116.746l4.455-35.638h5.568l-4.455,35.638
			H712.063z M747.7,116.746l1.114-3.34H747.7c-1.112,2.227-3.341,4.455-5.567,4.455c-4.455,0-6.684-3.342-7.797-7.797
			c0-2.228,0-4.455,1.113-6.682c0-5.569,1.113-8.91,3.342-11.138c2.228-2.227,3.342-2.227,6.683-2.227
			c2.228,0,4.455,1.113,4.455,3.341h1.114l1.112-12.251h5.568l-4.455,35.638H747.7L747.7,116.746z M749.929,103.382
			c0-2.228,0-4.455,0-5.569c0-2.228-1.113-4.455-4.455-4.455c-1.113,0-2.229,1.114-3.341,2.228c0,2.228-1.114,4.455-1.114,7.796
			c-1.113,2.229-1.113,4.455-1.113,5.568c1.113,3.341,2.229,4.455,4.455,4.455c1.113,0,2.229-1.114,3.341-3.342
			C748.816,108.951,748.816,106.723,749.929,103.382z M777.773,104.496h-13.365v1.113c-1.112,2.228-1.112,3.342-1.112,4.455
			c1.112,2.229,2.228,3.342,4.455,3.342c1.112,0,2.228,0,3.341-2.229c1.114-1.113,1.114-2.229,1.114-3.341h5.567
			c-1.113,3.341-2.228,5.569-3.341,6.682c-2.229,2.228-4.455,3.341-7.797,3.341c-2.229,0-3.341-1.113-4.455-2.228
			c-2.229-1.114-3.341-3.341-3.341-5.567c0-2.228,0-4.455,0-6.683c1.112-8.91,5.567-13.365,11.138-13.365
			c5.568,0,7.796,2.227,8.909,6.682c0,1.114,0,2.228-1.113,4.455V104.496L777.773,104.496z M764.406,100.042h8.91v-1.114
			c0-1.114,0-1.114,0-2.228c0-2.228-1.113-3.341-3.341-3.341C766.635,93.358,765.522,95.586,764.406,100.042L764.406,100.042z
			 M393.532,152.387h5.569v1.113c0,1.113,0,1.113,0,2.229c0,3.342,2.228,4.455,5.568,4.455c1.114,0,3.342,0,4.454-1.113
			c1.115-1.113,1.115-2.229,1.115-4.455v-1.113c0-2.229-1.115-4.455-4.455-5.568l-3.342-1.113c-4.455-1.115-6.683-3.344-6.683-6.684
			c0-1.113,0-2.229,0-3.341c1.113-3.341,2.228-5.569,4.455-7.796c2.228-1.114,4.455-2.229,8.909-2.229
			c5.569,0,8.91,2.229,8.91,6.684c0,1.113,0,2.228,0,3.341l0,0h-6.683h1.114c0-1.114,0-2.228,0-2.228
			c-1.114-2.229-2.228-3.342-4.455-3.342c-3.343,0-5.569,1.114-5.569,5.569c-1.113,0-1.113,1.112-1.113,1.112
			c1.113,2.229,2.229,3.342,5.569,4.456l3.342,1.113c4.454,2.229,6.682,4.455,6.682,7.797c0,0,0,1.113,0,2.229
			c-1.113,7.795-5.568,11.137-13.364,11.137c-6.684,0-10.024-2.227-10.024-7.797c0-1.113,0-2.227,0-3.34V152.387L393.532,152.387z
			 M440.31,142.363l-2.228,15.594v1.113c0,1.113,1.113,1.113,1.113,1.113c1.113,0,1.113,0,1.113,0v3.342
			c-1.113,0-2.227,1.113-3.341,1.113c-2.229,0-3.341-1.113-3.341-3.342c0,0,0,0,0-1.113h-1.114
			c-1.113,3.342-3.341,4.455-6.684,4.455c-4.454,0-5.567-2.229-6.683-5.568c0,0,0-1.113,0-2.229
			c1.114-2.229,1.114-4.455,3.342-6.682c0,0,2.229-1.115,4.455-2.229l4.455-1.113c1.113,0,2.229,0,2.229-1.115
			c1.112,0,1.112-1.113,1.112-2.229v-1.111c0-2.229-1.112-3.342-3.341-3.342c-2.228,0-4.455,2.228-4.455,5.569h-5.569
			c1.114-3.341,2.229-5.569,3.343-6.684c2.228-1.112,4.455-2.227,7.796-2.227c5.568,0,7.796,2.227,7.796,5.568L440.31,142.363
			L440.31,142.363z M433.628,153.5l1.112-4.455c-1.112,1.115-2.228,1.115-3.341,2.229c-2.228,0-3.342,0-3.342,1.113
			c-2.229,0-2.229,2.229-3.341,4.455c0,0,0,0,0,1.113s1.112,2.229,3.341,2.229C431.401,160.184,433.628,157.955,433.628,153.5z
			 M457.017,163.525l1.113-3.342l0,0c-2.229,3.342-4.455,4.455-7.796,4.455c-3.343,0-5.569-2.229-5.569-5.568
			c-1.113-1.113-1.113-2.229,0-3.342l2.228-18.934h5.569l-2.228,18.934c0,1.113,0,1.113,0,2.229c0,1.113,1.112,2.227,2.228,2.227
			c2.228,0,3.341,0,3.341-1.113c1.114-1.113,2.229-2.229,2.229-3.342l2.228-18.933h5.568l-3.341,26.73H457.017z M453.675,132.339
			l4.455-6.684h6.683l-6.683,6.684H453.675z M481.519,163.525l1.114-3.342l0,0c-2.229,3.342-3.342,4.455-6.684,4.455
			c-4.455,0-6.683-2.229-7.797-7.797c0-2.229,0-4.455,0-6.682c1.114-5.57,2.229-10.025,4.455-12.252
			c2.229-1.113,3.342-2.228,6.684-2.228c2.228,0,4.454,1.114,5.568,4.455l0,0l1.114-12.251h5.567l-4.453,35.641H481.519
			L481.519,163.525z M483.745,150.16c0-2.229,0-4.457,0-5.57c0-3.34-1.112-4.455-3.341-4.455c-2.228,0-3.342,1.114-4.455,2.228
			c0,1.113-1.113,4.455-1.113,7.797c-1.113,2.227-1.113,4.455-1.113,5.568c1.113,3.342,2.228,4.455,4.455,4.455
			c1.113,0,3.341-1.113,3.341-2.229C482.633,155.729,483.745,153.5,483.745,150.16z M513.817,151.273h-14.478v1.113
			c-1.114,2.229-1.114,3.342-1.114,4.455c1.114,2.229,2.228,4.455,4.455,4.455c1.114,0,2.228-1.113,3.342-3.342
			c1.113-1.113,1.113-2.229,1.113-3.342h5.566c0,3.342-1.111,5.568-3.34,7.797c-2.228,1.113-4.455,2.229-7.796,2.229
			c-2.228,0-3.342,0-5.569-1.113c-1.112-1.113-2.228-3.342-2.228-6.684c-1.113-2.229,0-4.455,0-6.682
			c1.114-10.025,4.455-14.48,12.252-14.48c4.455,0,7.795,2.228,7.795,6.683c0,2.227,0,3.34,0,5.568L513.817,151.273L513.817,151.273
			z M499.339,146.818h8.909v-1.113c0-1.113,0-2.229,0-2.229c0-3.341-1.113-4.454-3.342-4.454
			C501.567,139.023,500.451,141.25,499.339,146.818L499.339,146.818z M529.408,152.387h5.568v1.113c0,1.113,0,1.113,0,2.229
			c0,3.342,2.228,4.455,4.455,4.455c2.227,0,3.341,0,4.455-1.113c1.113-1.113,2.228-2.229,2.228-4.455v-1.113
			c0-2.229-1.113-4.455-4.455-5.568l-3.342-1.113c-4.454-1.115-6.682-3.344-6.682-6.684c0-1.113,0-2.229,0-3.341
			c0-3.341,1.112-5.569,4.454-7.796c2.228-1.114,4.455-2.229,7.797-2.229c5.567,0,8.91,2.229,10.022,6.684
			c0,1.113,0,2.228-1.112,3.341l0,0h-5.569l0,0c0-1.114,0-2.228,0-2.228c0-2.229-1.113-3.342-4.455-3.342
			c-3.341,0-4.455,1.114-5.567,5.569v1.112c0,2.229,2.228,3.342,4.454,4.456l4.455,1.113c3.342,2.229,5.568,4.455,5.568,7.797
			c1.114,0,0,1.113,0,2.229c0,7.795-4.455,11.137-13.365,11.137c-5.567,0-8.909-2.227-10.022-7.797c0-1.113,0-2.227,1.113-3.34
			V152.387L529.408,152.387z M569.504,163.525v-3.342l0,0c-2.229,3.342-4.455,4.455-7.797,4.455s-5.568-2.229-5.568-5.568
			c0-1.113,0-2.229,0-3.342l2.228-18.934h5.568l-2.228,18.934c0,1.113,0,1.113,0,2.229c0,1.113,1.113,2.227,3.342,2.227
			c1.112,0,2.228,0,3.341-1.113c1.114-1.113,1.114-2.229,1.114-3.342l3.341-18.933h5.568l-4.454,26.73H569.504z M578.413,172.434
			l4.455-35.639h5.568v3.341l0,0c1.113-3.341,3.341-4.455,6.683-4.455c4.455,0,6.684,2.228,6.684,7.794c0,2.229,0,4.457,0,6.686
			c-1.114,5.566-2.229,8.908-4.455,12.25c-1.114,1.113-3.342,2.229-5.569,2.229c-3.341,0-5.567-1.113-5.567-4.455l0,0l-2.229,12.25
			H578.413L578.413,172.434z M586.21,150.16c0,2.227,0,4.453,0,5.566c0,3.342,2.228,4.455,4.454,4.455
			c1.113,0,2.229-1.113,3.342-2.227c1.113-1.115,1.113-4.455,2.228-7.797c0-2.229,0-4.455,0-5.568c0-3.341-1.112-4.456-3.341-4.456
			s-3.342,1.114-4.455,2.229C587.323,144.59,587.323,146.818,586.21,150.16z M605.144,163.525l4.455-35.641h5.567l-4.454,35.641
			H605.144z M636.326,151.273H621.85v1.113c0,2.229,0,3.342,0,4.455c0,2.229,1.113,4.455,3.342,4.455
			c2.227,0,3.34-1.113,4.454-3.342c0-1.113,1.113-2.229,1.113-3.342h5.567c-1.112,3.342-2.228,5.568-4.454,7.797
			c-1.113,1.113-3.342,2.229-6.682,2.229c-2.229,0-4.455,0-5.57-1.113c-2.227-1.113-3.34-3.342-3.34-6.684c0-2.229,0-4.455,0-6.682
			c1.113-10.025,5.568-14.48,12.25-14.48c5.568,0,7.796,2.228,8.91,6.683c0,2.227,0,3.34,0,5.568L636.326,151.273z M622.963,146.818
			h8.909v-1.113c0-1.113,0-2.229,0-2.229c0-3.341-1.113-4.454-3.342-4.454C625.192,139.023,622.963,141.25,622.963,146.818
			L622.963,146.818z M639.669,163.525l3.341-26.73h5.568l-1.113,3.341h1.113c1.113-3.341,3.342-4.455,6.684-4.455
			c3.341,0,5.567,1.114,5.567,4.455c2.229-3.341,4.455-4.455,7.796-4.455c3.343,0,5.569,1.114,5.569,4.455c0,1.114,0,2.229,0,3.34
			l-2.228,20.049h-5.569l2.228-18.934c0,0,0-1.115,0-2.229c0-1.114-1.112-2.228-2.228-2.228c-2.228,0-2.228,0-3.341,1.114
			c-1.114,1.114-2.229,2.227-2.229,4.456l-2.228,17.82h-5.568l2.229-18.936c0,0,0-1.113,0-2.227c0-1.115-1.114-2.229-2.229-2.229
			s-2.228,0-3.342,1.114c-1.113,1.115-2.228,2.226-2.228,4.455l-2.229,17.82h-5.565V163.525z M697.584,151.273h-13.365l-1.114,1.113
			c0,2.229,0,3.342,0,4.455c0,2.229,2.228,4.455,4.455,4.455c1.114,0,2.228-1.113,3.342-3.342c1.113-1.113,1.113-2.229,1.113-3.342
			h5.568c0,3.342-1.113,5.568-3.342,7.797c-2.228,1.113-4.455,2.229-7.796,2.229c-2.228,0-4.455,0-5.568-1.113
			s-2.228-3.342-3.342-6.684c0-2.229,0-4.455,1.114-6.682c1.113-10.025,4.454-14.48,11.137-14.48c5.569,0,8.91,2.228,8.91,6.683
			c0,2.227,0,3.34,0,5.568L697.584,151.273z M684.219,146.818h8.91v-1.113c0-1.113,0-2.229,0-2.229c0-3.341-1.114-4.454-3.343-4.454
			C686.447,139.023,685.331,141.25,684.219,146.818L684.219,146.818z M700.925,163.525l3.342-26.73h5.567v3.341l0,0
			c1.113-3.341,4.455-4.455,6.684-4.455c4.455,0,6.683,1.114,6.683,4.455c0,1.114,0,2.229,0,3.34l-3.342,20.049h-5.568l3.342-18.934
			c0,0,0-1.115,0-2.229c0-1.114-1.113-2.228-3.342-2.228c-1.113,0-2.228,0-3.342,1.114c-1.112,1.114-2.228,2.227-2.228,4.456
			l-2.229,17.82H700.925L700.925,163.525z M726.541,140.135v-3.341h4.454v-7.796h5.567l-1.113,7.796h5.568l-1.113,3.341h-4.455
			l-2.228,16.707c0,1.113,0,1.113,0,1.113c0,1.113,1.113,2.229,2.228,2.229c1.113,0,1.113,0,2.229,0l-1.114,3.342
			c-1.113,1.113-2.228,1.113-4.455,1.113c-1.112,0-2.226-1.113-3.341-1.113c0,0-1.113-1.113-1.113-3.342c0,0,0-1.113,0-2.229
			l2.229-17.82H726.541L726.541,140.135z M761.067,142.363l-2.228,15.594v1.113c0,1.113,0,1.113,1.112,1.113h1.114l-1.114,3.342
			c-1.112,0-1.112,1.113-2.228,1.113c-2.228,0-4.455-1.113-4.455-3.342c0,0,0,0,0-1.113l0,0c-2.228,3.342-4.454,4.455-7.796,4.455
			c-3.341,0-5.568-2.229-5.568-5.568c0,0,0-1.113,0-2.229c0-2.229,1.113-4.455,2.229-6.682c1.112,0,3.341-1.115,5.567-2.229
			l4.455-1.113c1.113,0,1.113,0,2.229-1.115c0,0,1.113-1.113,1.113-2.229v-1.111c0-2.229-1.113-3.342-3.342-3.342
			c-3.341,0-4.455,2.228-4.455,5.569h-5.567c0-3.341,1.112-5.569,3.341-6.684c1.114-1.112,3.342-2.227,7.796-2.227
			c4.455,0,6.683,2.227,7.797,5.568V142.363z M754.384,153.5v-4.455c0,1.115-1.114,1.115-3.341,2.229c-1.114,0-2.229,0-3.343,1.113
			c-1.112,0-2.228,2.229-2.228,4.455c0,0,0,0,0,1.113s1.114,2.229,2.228,2.229C751.043,160.184,753.27,157.955,754.384,153.5z
			 M763.294,163.525l3.341-26.73h5.568v3.341l0,0c2.229-3.341,4.455-4.455,6.683-4.455c1.114,0,1.114,0,1.114,0v5.568
			c-1.114,0-2.229,0-2.229,0c-4.455,0-5.568,2.227-6.683,6.682l-2.229,15.594H763.294z"/>
	</g>
</g>
<path fill="#BDBFC1" d="M-0.622,200.885h808v59c0,13-11,23-24,23h-761c-13,0-23-10-23-23V200.885z"/>
<g>
	<path fill="#FFFFFF" d="M43.383,222.986c3.24-0.54,7.38-0.84,11.76-0.84c7.56,0,12.779,1.56,16.499,4.68
		c3.9,3.18,6.3,7.979,6.3,14.88c0,7.199-2.46,12.599-6.3,16.079c-4.02,3.66-10.439,5.52-18.299,5.52c-4.32,0-7.56-0.24-9.959-0.54
		V222.986z M50.762,257.245c1.02,0.18,2.58,0.18,4.08,0.18c9.6,0.061,15.299-5.22,15.299-15.479
		c0.06-8.939-5.1-14.039-14.339-14.039c-2.34,0-4.02,0.18-5.04,0.42V257.245z"/>
	<path fill="#FFFFFF" d="M91.742,222.446v40.438h-7.38v-40.438H91.742z"/>
	<path fill="#FFFFFF" d="M100.022,254.845c2.399,1.38,6,2.58,9.779,2.58c4.74,0,7.38-2.22,7.38-5.52c0-3.06-2.04-4.86-7.2-6.72
		c-6.66-2.4-10.919-5.939-10.919-11.76c0-6.6,5.52-11.64,14.279-11.64c4.38,0,7.62,0.96,9.72,2.04l-1.8,5.939
		c-1.44-0.779-4.26-1.92-8.04-1.92c-4.68,0-6.72,2.521-6.72,4.86c0,3.12,2.34,4.56,7.74,6.659c7.02,2.641,10.439,6.181,10.439,12
		c0,6.479-4.92,12.119-15.359,12.119c-4.26,0-8.7-1.199-10.919-2.52L100.022,254.845z"/>
	<path fill="#FFFFFF" d="M165.361,269.364c-5.64-1.56-10.679-3.239-15.779-5.22c-0.9-0.3-1.74-0.54-2.64-0.6
		c-9.36-0.48-17.7-7.38-17.7-20.52c0-12.479,7.74-21.239,19.319-21.239c11.7,0,18.659,9,18.659,20.399
		c0,9.779-4.5,16.319-10.439,18.659v0.24c3.48,0.96,7.38,1.8,10.68,2.46L165.361,269.364z M159.421,242.546
		c0-7.74-3.78-14.819-11.1-14.819c-7.38,0-11.34,7.02-11.28,15.119c-0.06,8.1,4.08,14.76,11.16,14.76
		C155.341,257.605,159.421,251.005,159.421,242.546z"/>
	<path fill="#FFFFFF" d="M180.902,222.446v23.579c0,7.92,3.3,11.58,8.28,11.58c5.34,0,8.52-3.66,8.52-11.58v-23.579h7.38v23.1
		c0,12.479-6.42,17.999-16.14,17.999c-9.359,0-15.419-5.22-15.419-17.939v-23.159H180.902z"/>
	<path fill="#FFFFFF" d="M236.16,244.945h-15.239v11.88h17.039v6.06h-24.419v-40.438h23.519v6.06h-16.139v10.439h15.239V244.945z"/>
	<path fill="#FFFFFF" d="M264.959,251.425l-3.48,11.46h-7.62l12.959-40.438h9.42l13.139,40.438h-7.919l-3.66-11.46H264.959z
		 M276.539,245.846l-3.18-9.96c-0.78-2.46-1.44-5.22-2.04-7.56h-0.12c-0.6,2.34-1.2,5.16-1.92,7.56l-3.12,9.96H276.539z"/>
	<path fill="#FFFFFF" d="M295.019,262.885v-40.438h8.4l10.439,17.34c2.7,4.499,5.04,9.179,6.899,13.559h0.12
		c-0.48-5.399-0.66-10.619-0.66-16.799v-14.1h6.839v40.438h-7.62l-10.56-17.76c-2.58-4.439-5.28-9.419-7.26-13.979l-0.18,0.06
		c0.3,5.22,0.36,10.56,0.36,17.22v14.459H295.019z"/>
	<path fill="#FFFFFF" d="M335.399,254.845c2.399,1.38,6,2.58,9.779,2.58c4.74,0,7.38-2.22,7.38-5.52c0-3.06-2.04-4.86-7.2-6.72
		c-6.66-2.4-10.919-5.939-10.919-11.76c0-6.6,5.52-11.64,14.279-11.64c4.38,0,7.62,0.96,9.72,2.04l-1.8,5.939
		c-1.44-0.779-4.26-1.92-8.04-1.92c-4.68,0-6.72,2.521-6.72,4.86c0,3.12,2.34,4.56,7.74,6.659c7.02,2.641,10.439,6.181,10.439,12
		c0,6.479-4.92,12.119-15.359,12.119c-4.26,0-8.7-1.199-10.919-2.52L335.399,254.845z"/>
	<path fill="#FFFFFF" d="M365.519,238.646c0-2.76,1.919-4.739,4.56-4.739c2.699,0,4.499,1.979,4.56,4.739c0,2.7-1.8,4.68-4.56,4.68
		C367.379,243.325,365.519,241.346,365.519,238.646z M365.519,258.865c0-2.76,1.919-4.74,4.56-4.74c2.699,0,4.499,1.92,4.56,4.74
		c0,2.64-1.8,4.68-4.56,4.68C367.379,263.545,365.519,261.505,365.519,258.865z"/>
	<path fill="#FFFFFF" d="M419.156,243.146c0,12.54-4.92,20.399-14.221,20.399c-9,0-13.799-8.16-13.859-20.039
		c0-12.12,5.159-20.279,14.279-20.279C414.776,223.227,419.156,231.626,419.156,243.146z M398.516,243.506
		c-0.06,9.479,2.58,14.399,6.66,14.399c4.32,0,6.6-5.28,6.6-14.64c0-9.06-2.16-14.399-6.6-14.399
		C401.217,228.866,398.457,233.726,398.516,243.506z"/>
	<path fill="#FFFFFF" d="M423.237,252.865c0-4.859,2.82-8.16,7.32-10.14v-0.18c-4.08-1.98-5.939-5.22-5.939-8.64
		c0-6.36,5.639-10.68,13.02-10.68c8.398,0,12.238,5.04,12.238,9.84c0,3.3-1.74,6.72-6,8.819v0.18c4.26,1.62,7.441,4.979,7.441,9.84
		c0,6.96-5.881,11.64-14.221,11.64C427.977,263.545,423.237,258.325,423.237,252.865z M443.817,252.505
		c0-3.96-2.939-6.119-7.26-7.319c-3.66,1.08-5.76,3.6-5.76,6.84c-0.121,3.3,2.4,6.3,6.539,6.3
		C441.237,258.325,443.817,255.865,443.817,252.505z M431.637,233.605c0,3.181,2.639,5.101,6.359,6.12
		c2.641-0.78,4.859-2.939,4.859-5.88c0-2.699-1.619-5.52-5.58-5.52C433.557,228.326,431.637,230.786,431.637,233.605z"/>
	<path fill="#FFFFFF" d="M483.477,243.146c0,12.54-4.92,20.399-14.221,20.399c-9,0-13.799-8.16-13.859-20.039
		c0-12.12,5.16-20.279,14.279-20.279C479.096,223.227,483.477,231.626,483.477,243.146z M462.836,243.506
		c-0.059,9.479,2.58,14.399,6.66,14.399c4.32,0,6.6-5.28,6.6-14.64c0-9.06-2.16-14.399-6.6-14.399
		C465.537,228.866,462.778,233.726,462.836,243.506z"/>
	<path fill="#FFFFFF" d="M515.635,243.146c0,12.54-4.92,20.399-14.219,20.399c-9,0-13.801-8.16-13.859-20.039
		c0-12.12,5.16-20.279,14.279-20.279C511.256,223.227,515.635,231.626,515.635,243.146z M494.996,243.506
		c-0.061,9.479,2.58,14.399,6.66,14.399c4.318,0,6.6-5.28,6.6-14.64c0-9.06-2.16-14.399-6.6-14.399
		C497.696,228.866,494.936,233.726,494.996,243.506z"/>
	<path fill="#FFFFFF" d="M559.494,223.887v4.739l-16.5,34.259h-7.799l16.439-32.759v-0.12h-18.359v-6.119H559.494z"/>
	<path fill="#FFFFFF" d="M592.375,243.146c0,12.54-4.92,20.399-14.221,20.399c-9,0-13.799-8.16-13.859-20.039
		c0-12.12,5.16-20.279,14.279-20.279C587.994,223.227,592.375,231.626,592.375,243.146z M571.735,243.506
		c-0.059,9.479,2.58,14.399,6.66,14.399c4.32,0,6.6-5.28,6.6-14.64c0-9.06-2.16-14.399-6.6-14.399
		C574.436,228.866,571.676,233.726,571.735,243.506z"/>
	<path fill="#FFFFFF" d="M608.574,230.546h-0.121l-7.139,3.6l-1.26-5.579l9.479-4.68h6.18v38.998h-7.139V230.546z"/>
	<path fill="#FFFFFF" d="M644.574,257.605c1.139,0.119,2.279,0.06,4.078-0.12c2.881-0.24,5.76-1.261,7.92-3
		c2.521-2.04,4.26-4.98,4.98-8.64l-0.119-0.061c-1.98,2.221-4.74,3.48-8.52,3.48c-6.781,0-11.82-4.92-11.82-12.12
		c0-7.439,5.76-13.919,14.1-13.919c9.059,0,13.92,7.14,13.92,16.619c0,8.34-2.76,14.279-6.781,18.119
		c-3.42,3.18-8.1,4.979-13.318,5.34c-1.68,0.18-3.359,0.18-4.439,0.12V257.605z M648.414,236.726c0.059,4.021,2.34,7.14,6.42,7.14
		c2.998,0,5.158-1.38,6.299-3.239c0.24-0.48,0.42-1.08,0.42-2.101c0.061-5.279-1.92-9.839-6.719-9.839
		C651.114,228.687,648.414,231.986,648.414,236.726z"/>
	<path fill="#FFFFFF" d="M697.492,229.106c-1.08,0-2.281,0-3.779,0.18c-8.16,0.96-12.121,6-13.08,11.399h0.18
		c1.92-2.22,4.859-3.779,8.76-3.779c6.719,0,11.939,4.8,11.939,12.719c0,7.44-5.459,13.92-13.74,13.92
		c-9.479,0-14.699-7.2-14.699-16.8c0-7.499,2.701-13.619,6.779-17.519c3.602-3.36,8.281-5.28,13.861-5.76
		c1.619-0.181,2.818-0.181,3.719-0.12L697.492,229.106z M694.012,250.045c0-4.499-2.459-7.739-6.779-7.739
		c-2.76,0-5.221,1.68-6.359,4.02c-0.301,0.601-0.48,1.32-0.48,2.34c0.119,5.16,2.58,9.36,7.32,9.36
		C691.553,258.025,694.012,254.725,694.012,250.045z"/>
	<path fill="#FFFFFF" d="M730.672,230.006h-15l-1.139,7.8c0.898-0.12,1.68-0.18,2.818-0.18c3.42,0,6.84,0.78,9.48,2.52
		c2.939,1.86,5.1,5.16,5.1,9.899c0,7.44-6.18,13.5-15.779,13.5c-4.5,0-8.279-1.141-10.32-2.28l1.5-5.579
		c1.682,0.899,5.041,2.039,8.58,2.039c4.32,0,8.461-2.46,8.461-7.14c0-4.439-3.301-7.38-11.1-7.38c-2.16,0-3.781,0.12-5.34,0.36
		l2.58-19.679h20.158V230.006z"/>
	<path fill="#FFFFFF" d="M761.811,229.106c-1.08,0-2.279,0-3.779,0.18c-8.16,0.96-12.119,6-13.08,11.399h0.18
		c1.92-2.22,4.861-3.779,8.76-3.779c6.721,0,11.939,4.8,11.939,12.719c0,7.44-5.459,13.92-13.738,13.92
		c-9.48,0-14.699-7.2-14.699-16.8c0-7.499,2.699-13.619,6.779-17.519c3.6-3.36,8.279-5.28,13.859-5.76
		c1.619-0.181,2.82-0.181,3.721-0.12L761.811,229.106z M758.332,250.045c0-4.499-2.461-7.739-6.781-7.739
		c-2.76,0-5.219,1.68-6.359,4.02c-0.299,0.601-0.48,1.32-0.48,2.34c0.121,5.16,2.58,9.36,7.32,9.36
		C755.871,258.025,758.332,254.725,758.332,250.045z"/>
</g>
</svg>
