<?xml version="1.0" encoding="utf-8"?>
<!-- Generator: Adobe Illustrator 16.0.0, SVG Export Plug-In . SVG Version: 6.00 Build 0)  -->
<!DOCTYPE svg PUBLIC "-//W3C//DTD SVG 1.1//EN" "http://www.w3.org/Graphics/SVG/1.1/DTD/svg11.dtd">
<svg version="1.1" id="Layer_1" xmlns="http://www.w3.org/2000/svg" xmlns:xlink="http://www.w3.org/1999/xlink" x="0px" y="0px"
	 width="104.174px" height="20.196px" viewBox="0 0 104.174 20.196" enable-background="new 0 0 104.174 20.196"
	 xml:space="preserve">
<rect x="0.532" y="0.653" stroke="#000000" stroke-miterlimit="10" width="103.161" height="19.011"/>
<rect x="1.956" y="1.985" fill="none" stroke="#FFFFFF" stroke-width="0.25" stroke-miterlimit="10" width="100.312" height="16.346"/>
<g>
	<path fill="#FFFFFF" d="M11.765,11.91L11.069,14.2H9.546l2.59-8.083h1.883l2.626,8.083h-1.583l-0.732-2.291H11.765z M14.079,10.794
		l-0.635-1.991c-0.156-0.492-0.288-1.043-0.408-1.511h-0.024c-0.12,0.468-0.24,1.031-0.384,1.511l-0.624,1.991H14.079z"/>
	<path fill="#FFFFFF" d="M17.777,14.2V6.117h1.679l2.087,3.466c0.54,0.9,1.007,1.835,1.379,2.711h0.024
		c-0.096-1.08-0.132-2.123-0.132-3.358V6.117h1.367V14.2h-1.523l-2.111-3.55c-0.516-0.887-1.056-1.883-1.451-2.794l-0.036,0.012
		c0.06,1.043,0.072,2.111,0.072,3.442V14.2H17.777z"/>
	<path fill="#FFFFFF" d="M25.853,12.593c0.48,0.276,1.199,0.516,1.955,0.516c0.947,0,1.475-0.444,1.475-1.104
		c0-0.612-0.408-0.972-1.439-1.343c-1.332-0.479-2.183-1.188-2.183-2.351c0-1.319,1.104-2.327,2.854-2.327
		c0.875,0,1.523,0.192,1.943,0.408l-0.36,1.187c-0.288-0.156-0.852-0.384-1.607-0.384c-0.936,0-1.343,0.504-1.343,0.972
		c0,0.624,0.468,0.912,1.547,1.331c1.403,0.528,2.086,1.235,2.086,2.399c0,1.295-0.983,2.423-3.07,2.423
		c-0.851,0-1.739-0.24-2.183-0.504L25.853,12.593z"/>
	<path fill="#FFFFFF" d="M37.167,10.494v1.02h-3.058v-1.02H37.167z"/>
	<path fill="#FFFFFF" d="M40.805,10.099c0-0.672-0.012-1.235-0.048-1.739h1.295l0.072,0.875h0.036
		c0.251-0.456,0.887-1.007,1.859-1.007c1.02,0,2.075,0.66,2.075,2.506V14.2h-1.475v-3.298c0-0.839-0.312-1.475-1.115-1.475
		c-0.588,0-0.996,0.42-1.151,0.864c-0.048,0.132-0.06,0.312-0.06,0.479v3.43h-1.487V10.099z"/>
	<path fill="#FFFFFF" d="M51.086,9.055c-0.012,1.379-1.007,2.015-1.991,2.015c-1.104,0-1.967-0.768-1.967-1.943
		c0-1.223,0.875-2.015,1.991-2.015C50.319,7.112,51.086,7.939,51.086,9.055z M48.196,9.103c0,0.684,0.384,1.211,0.912,1.211
		c0.54,0,0.899-0.504,0.899-1.224c0-0.551-0.288-1.223-0.912-1.223C48.46,7.868,48.196,8.551,48.196,9.103z"/>
	<path fill="#FFFFFF" d="M57.591,14.2v-1.979h-3.526v-0.959l3.178-4.857h1.739v4.702h1.007v1.115h-1.007V14.2H57.591z
		 M57.591,11.106V8.983c0-0.443,0.012-0.899,0.048-1.355h-0.048c-0.24,0.492-0.444,0.887-0.684,1.319l-1.427,2.135l-0.012,0.024
		H57.591z"/>
	<path fill="#FFFFFF" d="M63.087,7.736h-0.024l-1.427,0.72L61.384,7.34l1.895-0.936h1.235V14.2h-1.427V7.736z"/>
	<path fill="#FFFFFF" d="M67.804,13.145c0.228,0.024,0.456,0.012,0.816-0.024c0.576-0.048,1.151-0.251,1.583-0.6
		c0.503-0.408,0.852-0.995,0.996-1.727l-0.024-0.012c-0.396,0.444-0.947,0.695-1.703,0.695c-1.355,0-2.362-0.983-2.362-2.422
		c0-1.487,1.151-2.783,2.818-2.783c1.811,0,2.782,1.427,2.782,3.322c0,1.667-0.552,2.854-1.355,3.622
		c-0.684,0.636-1.619,0.996-2.663,1.067c-0.336,0.036-0.672,0.036-0.888,0.024V13.145z M68.572,8.971
		c0.012,0.803,0.468,1.427,1.283,1.427c0.6,0,1.032-0.276,1.26-0.648c0.048-0.096,0.084-0.216,0.084-0.419
		c0.012-1.056-0.384-1.967-1.344-1.967C69.112,7.364,68.572,8.023,68.572,8.971z"/>
	<path fill="#FFFFFF" d="M75.951,7.736h-0.024L74.5,8.456L74.248,7.34l1.895-0.936h1.235V14.2h-1.427V7.736z"/>
	<path fill="#FFFFFF" d="M80.368,12.677c0.3,0.18,1.032,0.479,1.775,0.479c1.127,0,1.583-0.636,1.571-1.247
		c0-0.924-0.863-1.319-1.763-1.319h-0.684v-1.08h0.66c0.684,0,1.547-0.312,1.547-1.091c0-0.528-0.396-0.972-1.248-0.972
		c-0.635,0-1.271,0.276-1.595,0.492l-0.336-1.067c0.444-0.312,1.307-0.6,2.243-0.6c1.607,0,2.435,0.888,2.435,1.907
		c0,0.815-0.479,1.487-1.439,1.823v0.024c0.947,0.168,1.715,0.888,1.715,1.943c0,1.319-1.104,2.363-3.034,2.363
		c-0.948,0-1.763-0.264-2.183-0.54L80.368,12.677z"/>
	<path fill="#FFFFFF" d="M89.402,10.494v1.02h-3.058v-1.02H89.402z"/>
	<path fill="#FFFFFF" d="M90.58,12.677c0.3,0.18,1.032,0.479,1.775,0.479c1.127,0,1.583-0.636,1.571-1.247
		c0-0.924-0.863-1.319-1.763-1.319h-0.684v-1.08h0.66c0.684,0,1.547-0.312,1.547-1.091c0-0.528-0.396-0.972-1.248-0.972
		c-0.635,0-1.271,0.276-1.595,0.492l-0.336-1.067c0.444-0.312,1.307-0.6,2.243-0.6c1.607,0,2.435,0.888,2.435,1.907
		c0,0.815-0.479,1.487-1.439,1.823v0.024c0.947,0.168,1.715,0.888,1.715,1.943c0,1.319-1.104,2.363-3.034,2.363
		c-0.948,0-1.763-0.264-2.183-0.54L90.58,12.677z"/>
</g>
</svg>
