<?xml version="1.0" encoding="utf-8"?>
<!-- Generator: Adobe Illustrator 16.0.0, SVG Export Plug-In . SVG Version: 6.00 Build 0)  -->
<!DOCTYPE svg PUBLIC "-//W3C//DTD SVG 1.1//EN" "http://www.w3.org/Graphics/SVG/1.1/DTD/svg11.dtd">
<svg version="1.1" id="Layer_1" xmlns="http://www.w3.org/2000/svg" xmlns:xlink="http://www.w3.org/1999/xlink" x="0px" y="0px"
	 width="1938.232px" height="1468.642px" viewBox="359.469 190 1938.232 1468.642"
	 enable-background="new 359.469 190 1938.232 1468.642" xml:space="preserve">
<g id="_2399377406528">
	<path fill="#A9ABAE" d="M864.889,1151l938-946l471,468l-871,878c-37,37-97,37-134,1L864.889,1151z"/>
	<path fill="#606062" d="M929.889,274l406,404l-471,473l-473-471l405-406C832.889,237,893.889,237,929.889,274z"/>
	<path fill="#D4D4D0" d="M391.889,677h4l-4,3V677z M2269.889,677h6v963h-1884V680l473,471l0,0l404,401c37,36,97,36,134-1
		L2269.889,677z"/>
</g>
</svg>
