<?xml version="1.0" encoding="UTF-8"?>
<!DOCTYPE svg PUBLIC "-//W3C//DTD SVG 1.1//EN" "http://www.w3.org/Graphics/SVG/1.1/DTD/svg11.dtd">
<!-- Creator: CorelDRAW X8 -->
<svg xmlns="http://www.w3.org/2000/svg" xml:space="preserve" width="177px" height="94px" version="1.1" style="shape-rendering:geometricPrecision; text-rendering:geometricPrecision; image-rendering:optimizeQuality; fill-rule:evenodd; clip-rule:evenodd"
viewBox="0 0 177 94"
 xmlns:xlink="http://www.w3.org/1999/xlink">
 <defs>
  <style type="text/css">
   <![CDATA[
    .str0 {stroke:#D19C2C;stroke-width:9.2099;stroke-linejoin:round}
    .fil0 {fill:#FFD525}
   ]]>
  </style>
 </defs>
 <g id="Camada_x0020_1">
  <metadata id="CorelCorpID_0Corel-Layer"/>
  <path class="fil0 str0" d="M102 86l1 0c2,0 4,-1 5,-1 2,-2 2,-2 2,-5 0,-2 0,-5 2,-8 2,-1 4,-2 5,-3 2,-1 4,-1 5,-3 1,-1 2,-3 3,-5 1,-3 3,-6 5,-9 2,-2 5,-4 7,-6 5,-4 9,-8 11,-12 1,-2 2,-4 2,-7 2,-6 4,-12 7,-15 0,0 0,0 -1,0 -2,-1 -5,-1 -8,0 -3,0 -6,0 -9,0 -2,-1 -4,-2 -5,-2 -1,-1 -2,-1 -2,-1 -2,-1 -5,1 -8,1 0,1 0,1 -1,1 0,1 0,2 0,4 -3,8 -17,17 -21,17 -3,1 -6,1 -8,1 -3,0 -5,0 -6,0 -2,0 -4,0 -5,0 -2,0 -4,0 -6,0 -6,0 -12,0 -16,-3 -3,-2 -6,-5 -8,-7 -4,-5 -7,-9 -14,-7 -3,0 -3,1 -4,3 -1,1 -1,3 -3,5 -2,2 -5,3 -9,4 -1,1 -2,1 -3,2 1,1 2,4 3,6 4,1 8,4 11,6 3,2 5,3 7,4 3,1 5,3 7,5 2,1 5,3 7,4 1,0 2,0 3,0 2,-1 4,-1 7,0 4,1 7,5 10,8 1,3 3,5 5,6 1,1 3,2 6,4 8,4 14,8 16,13z"/>
 </g>
</svg>
