<?xml version="1.0" encoding="UTF-8"?>
<!DOCTYPE svg PUBLIC "-//W3C//DTD SVG 1.1//EN" "http://www.w3.org/Graphics/SVG/1.1/DTD/svg11.dtd">
<!-- Creator: CorelDRAW X8 -->
<svg xmlns="http://www.w3.org/2000/svg" xml:space="preserve" width="1949px" height="1949px" version="1.1" style="shape-rendering:geometricPrecision; text-rendering:geometricPrecision; image-rendering:optimizeQuality; fill-rule:evenodd; clip-rule:evenodd"
viewBox="0 0 1949 1949"
 xmlns:xlink="http://www.w3.org/1999/xlink">
 <defs>
  <style type="text/css">
   <![CDATA[
    .fil1 {fill:none}
    .fil0 {fill:#FFD525}
   ]]>
  </style>
 </defs>
 <g id="Camada_x0020_1">
  <metadata id="CorelCorpID_0Corel-Layer"/>
  <g id="_2252466391296">
   <path class="fil0" d="M1139 1766c-1,0 -2,0 -3,1 0,0 -1,0 -2,1 -6,3 -10,7 -12,14l0 3c-2,8 -4,19 -11,24 -3,3 -6,4 -8,5 -4,1 -6,2 -7,5l-1 2c-1,4 -2,5 -6,8 -1,0 -2,1 -3,1 -2,1 -3,2 -4,3 0,2 0,10 1,12 0,1 1,1 1,1 0,0 0,0 1,1 -2,-3 -2,-6 -1,-8 1,-3 5,-4 10,-5 8,-1 13,-1 18,-7 0,0 1,-1 1,-2 1,-1 3,-3 6,-5 1,0 2,-1 3,-2 2,0 3,-1 4,-2 1,-1 1,-3 2,-5 0,-2 0,-3 1,-5 2,-3 4,-5 6,-6 1,-1 2,-2 2,-3 1,0 2,-1 3,-2 1,-2 3,-5 6,-7 1,0 2,-1 3,-1 1,-1 2,-1 3,-2 0,-1 0,-4 0,-6 0,-4 0,-8 2,-11 3,-2 5,-1 7,-1 0,0 0,0 1,0 1,-1 0,-7 -1,-8 0,0 0,0 0,0 -1,0 -6,1 -9,2 -1,1 -2,2 -3,2 -2,2 -4,3 -7,4 -1,0 -2,-1 -3,-1 0,0 0,0 0,0z"/>
   <path class="fil0" d="M1254 1556c0,0 0,0 0,0 -1,-2 -2,-3 -2,-4 -2,-1 -4,-1 -7,0l-2 0c-5,0 -9,2 -13,5 -4,2 -8,4 -13,5 -6,1 -11,-1 -16,-3 -3,-2 -6,-3 -9,-4 -2,0 -4,0 -7,1 0,1 -1,2 -3,3 -3,0 -6,-1 -9,-1 -2,-1 -3,-1 -5,-1 -4,-1 -6,1 -9,3 -2,1 -5,3 -9,4l-3 1c-3,0 -5,0 -8,1l-2 0c-1,0 -1,0 -2,0 0,1 0,1 0,2 -1,2 -1,3 -1,5 -1,6 -2,14 -13,15 -5,1 -6,-1 -8,-2 -1,-1 -1,-2 -3,-2 -2,-2 -5,-2 -8,-2 -3,0 -6,-1 -8,-2 -11,-4 -22,-5 -33,-6l-7 -1c-5,0 -10,0 -16,-3 -1,0 -2,-1 -2,-1 -2,-1 -3,-1 -5,-2 -4,-1 -9,-1 -15,0 -1,0 -2,0 -3,0l0 0c0,1 0,1 -1,2 -2,4 -1,10 -1,16 1,2 1,3 1,5 1,4 0,7 -1,10 -1,1 -1,3 -1,4l2 0 3 0c7,1 14,1 21,2 20,0 40,1 57,10 1,1 3,2 4,2 3,2 5,3 9,4 2,1 4,1 6,1 4,0 8,1 12,3 9,5 19,15 25,24 5,9 13,12 22,16 2,0 4,1 5,2 6,2 19,5 24,4 2,-1 4,0 4,2 0,0 0,0 0,0 0,0 0,1 0,1 0,0 1,0 1,1 0,0 0,1 0,1 0,0 1,1 1,1 0,6 -4,8 -6,9 -1,0 -2,1 -2,1 -3,2 -3,4 -4,7 -1,1 -1,2 -1,3 -1,2 -2,4 -4,7 -1,1 -1,2 -2,4 0,-1 1,-1 1,-1 2,-2 4,-3 6,-3 3,-1 5,1 8,4 0,0 0,1 0,1 1,-1 1,-2 2,-3 2,-2 4,-4 6,-6 1,-1 3,-2 4,-3 5,-5 10,-9 16,-13 3,-2 6,-5 9,-7 3,-2 4,-4 6,-6 2,-2 3,-3 5,-5 2,-1 4,-3 5,-5 2,-3 1,-9 1,-14 -1,-3 -1,-6 -1,-8l1 -2c0,-4 0,-9 1,-14 1,-3 1,-7 1,-10 0,-2 -1,-3 -1,-4 -1,-1 -2,-3 -2,-4 -2,-4 -2,-9 -2,-13 0,-4 0,-8 0,-11 -2,-5 -3,-10 -2,-16 1,-1 1,-3 2,-5 1,-1 1,-2 1,-3 0,-1 0,-2 0,-2z"/>
   <path class="fil0" d="M1040 1387c0,0 0,0 0,0 -2,0 -4,1 -5,2 -3,1 -5,3 -7,5 -1,1 -2,3 -3,4 -3,2 -5,2 -8,3 -1,1 -2,1 -4,2 -3,1 -4,5 -5,9 -1,3 -1,7 -3,9 -1,2 -3,4 -4,5 -2,2 -3,3 -4,5 -1,1 -1,4 -1,6 -1,2 -1,5 -2,7 -3,7 -7,12 -11,18 5,13 1,28 -3,41 0,0 0,1 0,2 0,2 0,3 0,5 -1,3 -3,5 -5,7 0,1 -1,1 -2,2 -2,4 -3,6 -2,8 1,1 6,1 10,1 2,0 4,0 5,0 8,1 11,2 14,10 1,1 1,2 1,3 0,1 1,3 1,3 1,2 2,2 3,3 1,1 3,3 4,5 0,1 0,3 1,6 0,1 0,2 0,3 0,0 0,0 0,1 1,-1 2,-1 3,-1 0,0 1,0 2,0 7,-1 13,0 17,1 3,0 5,1 6,2 1,0 2,1 3,1 4,2 9,2 14,3l6 0c12,2 23,3 35,7 2,1 4,1 7,1 3,0 7,1 10,3 2,1 3,2 4,3 1,1 1,1 3,0 6,0 7,-4 8,-10 1,-2 1,-4 1,-5 1,-1 1,-2 1,-2 0,-4 3,-5 6,-5l2 0c3,0 6,-1 8,-1l3 0c3,-1 5,-2 7,-4 3,-2 6,-5 13,-4 2,0 4,1 6,1 1,1 3,1 5,1 0,-1 1,-2 2,-2 4,-1 8,-2 11,-1 4,0 7,2 10,3 5,2 9,4 13,3 4,0 8,-2 11,-4 5,-3 10,-6 16,-6l2 0c3,0 6,0 9,0 1,-2 4,-5 6,-7 1,-1 5,-4 5,-6 0,0 -1,-1 -3,-2 -2,0 -2,-2 -2,-3 2,-3 6,-4 9,-5 1,0 3,0 4,-1 3,-1 8,-5 10,-7 -1,0 -3,0 -4,-1 -2,-1 -3,-3 -3,-4 -1,-1 -1,-2 -2,-2 -2,-1 -4,0 -7,0 -3,0 -7,0 -10,-1 -1,-1 -2,-1 -2,-2 0,-1 0,-2 0,-2 1,-3 3,-5 5,-6 1,-2 2,-4 3,-5l0 0c-1,0 -1,0 -4,-1 -3,0 -7,0 -11,0 -1,0 -2,0 -4,0 -1,0 -3,0 -5,0 -5,0 -10,0 -13,-1 -5,-3 -5,-8 -5,-11 0,-2 0,-3 0,-5 -1,-3 -3,-5 -5,-8 -1,-2 -3,-3 -4,-6 -3,-5 -3,-10 -3,-15 1,-2 1,-4 1,-6 -1,-7 -3,-11 -7,-17 -2,-2 -3,-5 -4,-7 -2,-4 -3,-8 -7,-10 -5,-4 -12,-3 -18,-3 -2,0 -3,0 -4,0l-3 0c-11,0 -20,0 -31,-4 -8,-4 -15,-6 -23,-8l-6 -1c-10,-3 -18,-2 -28,-1 -4,0 -7,0 -11,1 -4,0 -9,-1 -14,-2 -4,0 -8,-1 -12,-1 -1,1 -1,1 -2,1z"/>
   <path class="fil0" d="M371 760c1,0 1,0 1,0 1,0 1,0 1,1 1,-1 2,-1 3,-1 1,0 2,0 3,1 1,0 2,0 2,0 0,0 0,-1 1,-2 0,0 1,-1 2,-2 4,-2 8,-2 12,-2 3,0 5,0 7,-1 1,0 2,0 3,-1 2,0 5,-1 9,-1 1,0 3,1 4,2 0,0 1,0 1,0 0,0 1,0 1,0 1,-1 2,-2 4,-2 0,0 0,0 0,0 3,-1 7,-2 10,5 1,3 1,5 1,7 0,2 0,4 0,6 1,1 0,3 -1,3 0,2 0,4 0,6 0,2 -1,3 -2,5 0,0 -1,1 -1,1 -1,5 1,15 2,19l1 3c2,3 3,7 3,12 -1,1 -1,3 -2,4 0,1 0,2 0,3 0,4 1,9 2,12 4,9 8,13 16,18 3,2 4,4 5,7 1,0 1,1 2,2 1,2 3,3 5,4 2,0 4,1 6,3 3,3 4,6 5,9 1,3 2,5 8,6 3,0 7,-1 11,-1 7,-1 14,-2 20,0 2,2 4,4 6,6 2,2 3,3 5,4 2,1 4,0 6,0 2,0 4,0 6,0 7,1 10,5 12,8 1,2 3,3 5,5 3,3 7,4 12,4 3,1 6,2 10,3 0,1 2,1 3,1 1,1 4,2 5,3 3,1 5,3 7,5 1,2 1,3 2,3 2,2 6,5 8,6 2,0 2,0 4,0 1,-1 2,-1 5,-1 3,0 5,0 7,1 1,0 2,1 3,1 1,0 3,-1 5,-1 2,-1 4,-1 6,-1 8,0 18,3 24,6 1,0 2,0 4,1l1 0c0,0 1,0 1,0 2,-1 3,-2 5,-3 4,-3 7,-5 10,-9 2,-2 3,-4 3,-6 1,-1 1,-3 2,-4 2,-3 4,-6 6,-8 2,-1 3,-2 4,-4 5,-6 8,-13 8,-20l0 -4c0,-4 0,-7 0,-11 -1,-2 -1,-3 -2,-4 -1,-1 -2,-2 -3,-3 -3,-6 -4,-18 -2,-24 1,-2 2,-3 3,-4 1,0 2,-1 2,-1 0,-2 -1,-4 -2,-7l-2 -3c-1,-1 -1,-1 -1,-1 -1,-1 -3,-1 -3,-1 -1,0 -2,1 -3,1 -2,0 -4,1 -6,0 -3,-1 -6,-2 -8,-4 -2,-2 -4,-4 -8,-3 -4,0 -7,0 -11,1 -8,1 -18,2 -27,1 -1,1 -2,2 -3,2 -1,0 -3,-1 -3,-3 0,-11 -1,-21 -3,-32l-1 -4c-1,-10 -1,-17 0,-28 1,-6 2,-10 1,-16 -1,-1 -1,-2 -2,-4 0,-2 -1,-5 -1,-9 0,-1 1,-3 2,-5 1,-2 2,-6 2,-7 0,0 -1,0 -2,0 -1,-1 -1,-1 -2,-2 0,0 -1,0 -1,-1l0 0c-2,0 -3,-1 -5,-1 -1,0 -2,0 -2,0 0,0 0,0 0,1 -1,1 -1,3 -3,5 -1,2 -3,2 -4,1 -2,-2 -4,-4 -6,-6 -2,-2 -3,-4 -5,-6 -2,-1 -4,-2 -6,-3 -3,-2 -7,-4 -10,-8 -1,-2 -2,-3 -2,-4 0,0 0,0 -1,0 0,-1 -2,-1 -3,-1 -1,0 -3,0 -5,0 -3,-2 -4,-5 -5,-7 0,-1 0,-2 -1,-3 -1,-1 -2,-1 -3,-2 -1,0 -2,-1 -3,-2 -1,-1 -2,-1 -2,-2 -1,-1 -2,-1 -3,-2 -1,0 -4,0 -6,1 -2,0 -4,0 -5,0 -1,0 -2,0 -4,0 -1,0 -3,0 -4,0 0,1 0,3 -1,4 -1,1 -3,2 -4,2 -2,2 -4,3 -5,4 -1,1 -1,2 -2,3 -1,2 -1,3 -3,5 -2,1 -3,2 -4,2 -1,1 -2,1 -3,3 -1,1 -2,2 -3,3 -1,1 -3,3 -4,4 0,1 -1,2 -1,4 0,2 -1,5 -3,7 -2,2 -5,3 -7,4l-1 0c-3,1 -7,2 -12,3 -5,1 -11,2 -14,4 -2,2 -3,4 -4,6 -1,3 -2,5 -4,7 -2,2 -8,6 -12,4 -2,0 -3,-1 -3,-3 -1,1 -2,1 -3,2 -2,2 -3,4 -7,5 -2,1 -4,1 -6,1 -3,0 -4,0 -5,2 -1,1 -2,1 -4,1 -3,-1 -5,-3 -7,-4 -2,-2 -3,-3 -6,-4 -6,0 -11,1 -17,6 0,0 -1,1 -2,1 0,1 0,2 -1,3 -1,1 -1,1 -1,1 -1,3 -3,3 -6,4 -2,0 -3,0 -5,0 -1,0 -3,0 -4,0 2,1 5,1 6,2 1,1 2,2 2,3z"/>
   <path class="fil0" d="M356 761c0,0 0,0 -1,0 -3,-1 -7,-4 -10,-7 -2,-2 -3,-4 -5,-5 -5,-3 -10,-5 -16,-7 -4,-2 -9,-3 -13,-5 -15,-8 -31,-15 -47,-22 -17,-8 -35,-16 -52,-24 -5,-3 -9,-5 -14,-8 -11,-6 -22,-12 -36,-14 -10,-1 -20,-3 -30,-5 -9,-2 -17,-4 -26,-5 -9,-2 -17,-5 -25,-7 -7,-3 -14,-5 -21,-6 -6,-1 -11,-4 -16,-7 -3,-2 -6,-3 -10,-5 1,2 1,3 0,4 0,1 -1,2 -2,2 -1,1 -2,1 -3,1 -2,0 -5,1 -5,1 0,0 0,1 1,4 0,2 2,5 4,7 3,3 5,6 7,10 0,1 0,2 -1,3 0,0 -1,1 -1,1 0,0 -1,0 -1,0 0,1 0,2 -1,3 1,0 1,0 1,0 2,0 3,0 5,1 2,1 3,3 4,5l1 1c1,3 2,5 2,7 1,3 1,5 3,7 3,5 7,9 11,14 3,3 5,6 8,9 6,7 0,12 -3,15 -1,2 -3,3 -3,4 0,0 0,1 1,2 9,-5 23,0 30,6 4,3 7,7 10,11 1,2 2,5 2,7 1,3 1,5 3,6 1,0 3,0 5,0 2,0 5,0 7,1 1,0 3,1 4,1 1,1 2,1 2,1 6,1 16,-2 23,-3l0 -1c5,-1 8,-4 12,-8 2,-2 3,-3 5,-5l3 -2c5,-5 10,-9 16,-13 1,0 2,0 3,1 1,1 1,2 1,3 -4,13 -6,27 -7,43l0 2c-1,8 -2,21 1,29 0,0 0,1 0,1 0,0 1,1 1,1 1,1 2,2 3,2 1,1 4,-1 6,-2 2,-1 4,-2 5,-2 3,-1 5,-1 7,-1 2,-1 4,-1 6,-1 5,-1 8,-1 12,-1 2,0 3,1 5,1 8,0 13,-1 20,1 2,1 4,2 6,3 6,2 11,4 16,4 5,0 14,-7 17,-9 2,-2 3,-4 5,-6 3,-5 6,-11 14,-10 2,1 4,2 6,3 4,2 5,2 7,-2 1,-1 1,-2 2,-3 0,-3 1,-5 4,-7 3,-2 7,-4 10,-5 3,0 6,-1 9,-3 2,-1 4,-3 6,-5 2,-2 5,-4 8,-6 2,-1 4,-1 5,-2 2,0 3,0 4,-1 0,0 0,-1 0,-2 0,0 0,0 0,0 -2,-1 -5,-1 -7,-1 -1,0 -1,0 -1,0 -1,0 -1,0 -1,0l-1 0 0 0z"/>
   <path class="fil0" d="M534 167c6,1 12,4 14,8 0,2 1,4 1,5 0,2 0,4 1,5l1 1c1,3 2,5 3,9 1,3 3,6 5,8 2,3 4,6 5,10 1,2 1,3 1,4 1,2 1,4 2,5 1,0 2,0 3,0 4,3 3,11 3,19 0,2 -1,4 -1,5 1,5 2,9 3,14 0,3 1,7 2,11 0,3 0,6 0,9 0,4 0,9 2,13l0 1c4,9 5,15 2,18 -1,2 -4,2 -6,2 0,0 0,0 0,0 2,3 5,6 8,8 2,2 3,4 4,5 8,8 17,14 27,16 1,-5 1,-12 1,-19 0,-8 0,-12 8,-17 2,-1 3,-2 5,-3 3,-2 6,-3 8,-4 7,-2 12,2 15,6 2,2 4,3 5,5 2,2 4,4 6,5 2,-1 4,-1 6,-1 2,0 4,0 5,-2 2,-2 2,-4 2,-7 1,-3 1,-7 4,-11 1,-2 3,-3 5,-4 1,-1 3,-1 3,-3 1,0 1,-2 1,-3 1,-2 1,-3 1,-4 3,-6 6,-15 12,-17 3,-2 7,-1 10,-1 3,0 5,0 7,0 3,-1 5,-2 8,-3 3,0 6,-1 9,-2 3,-1 6,0 9,0 3,0 9,1 10,-1 0,-1 0,-9 0,-13 0,-1 -1,-2 -1,-3 -1,-1 -1,-2 -1,-4 -1,-2 -2,-9 -1,-12 0,-1 1,-2 2,-3 0,-1 1,-2 1,-2 0,-1 0,-2 1,-3 0,-4 -1,-6 -4,-7 -2,-1 -6,0 -9,-1 -3,-1 -4,-3 -6,-5 0,-1 -1,-1 -2,-2 -1,-1 -2,-1 -3,-2 -3,-1 -5,-2 -8,-6 -2,-5 -4,-7 -7,-10 -4,-4 -5,-9 -6,-14 -1,-2 -1,-3 -1,-5 0,-1 -1,-2 -1,-3 0,-2 -1,-5 -2,-6 0,-1 0,-1 -1,-1 -1,-1 -1,-2 -2,-3 -3,-5 -4,-15 -4,-23 0,0 -1,-1 0,-2 1,-4 1,-6 1,-9 0,-4 0,-8 3,-12 1,-2 2,-5 3,-7 2,-5 4,-10 8,-14 1,0 2,-1 3,-2 2,-2 5,-4 5,-6 0,-1 0,-1 0,-1 0,0 -1,0 -1,-1 0,0 -1,-1 -2,-2 -5,-6 -6,-9 -8,-16 -2,-6 -5,-6 -10,-7l-2 -1c-1,0 -2,0 -2,0 -5,-1 -7,-3 -6,-9 1,-4 2,-5 4,-6 1,0 1,0 1,0 2,-2 2,-6 2,-9 0,0 -1,-1 -1,-1 -1,0 -2,-1 -3,-3 -1,-2 -2,-3 -2,-5 0,-1 0,-2 -1,-2 -1,-1 -2,-1 -2,-1 0,2 -1,3 -3,3 -1,0 -2,0 -4,1 -4,0 -9,1 -13,0 0,0 0,0 0,0 2,2 3,3 4,4 1,7 -3,10 -7,12 -2,1 -3,2 -3,3 0,1 0,1 -1,2 0,1 -1,3 -2,3 -1,0 -1,0 -1,0 0,0 -1,1 -1,2 -1,1 -2,4 -6,5 -2,1 -5,1 -7,1 -2,0 -3,0 -4,1 -1,0 -2,0 -3,0 -1,1 -1,1 -2,1 -1,0 -3,1 -4,1 -1,0 -2,0 -3,1 0,0 -1,1 -1,1 0,2 -1,4 -4,5 -2,2 -5,2 -6,2 -2,1 -2,1 -3,2 0,0 0,0 0,1 1,2 1,4 -2,6 -3,2 -8,1 -14,1 -1,-1 -3,-1 -4,-1 -5,0 -20,0 -24,3 -1,2 -1,2 0,6 0,2 0,4 0,7 -1,2 -3,5 -6,6 -4,2 -10,2 -15,0 -2,-1 -3,-4 -4,-6 -1,-1 -2,-2 -3,-3 -2,-2 -7,-1 -11,-1 -1,0 -2,0 -3,0 -6,0 -9,-2 -13,-4 -3,-1 -6,-3 -10,-3 -8,0 -10,-3 -11,-7 -1,-2 -1,-3 -3,-4 -3,-1 -16,-2 -18,0 -1,1 -1,1 -1,2 1,2 5,5 7,5 3,1 4,1 5,1 6,1 6,3 7,9l1 2c0,3 1,5 2,7 2,3 5,7 2,13 -1,4 -3,5 -5,7 -2,1 -3,2 -3,4 -1,1 -1,3 -1,3 1,0 1,0 1,0 2,1 3,2 3,3 0,2 0,4 1,6 0,3 1,6 1,9 0,2 0,3 -1,5 0,3 0,6 1,8 1,0 5,0 8,0 4,1 6,3 8,4 2,0 4,0 5,0 1,1 2,1 3,1 1,0 1,-1 2,-2 3,-1 6,-3 10,-1 1,0 3,1 4,5 1,3 1,9 0,12z"/>
   <path class="fil0" d="M1032 173c-1,0 -2,0 -3,-1 -3,-1 -3,-4 -3,-5 0,0 0,0 0,-1 -1,0 -2,1 -3,1 -3,0 -5,0 -6,0 -3,0 -6,-1 -8,-2 -2,-1 -4,-2 -5,-1 -2,0 -3,1 -5,3 -1,1 -4,3 -7,4 -4,1 -9,2 -13,1 -4,-1 -6,-2 -7,-4 -1,0 -2,-1 -3,-1 -2,-1 -3,-1 -4,-2 -1,0 -1,0 -2,0 0,2 0,4 0,6 -1,3 -1,7 -1,10 0,3 0,4 0,4 0,0 2,0 3,0l3 0c7,0 15,5 20,11 2,1 3,1 5,1 3,1 6,2 9,4 1,1 3,2 4,4 1,1 2,3 3,3 1,0 2,0 3,0 2,0 3,0 6,2 3,2 3,4 3,6 0,1 0,2 0,2 2,4 4,7 6,10l1 1c2,4 4,6 7,5 1,0 3,1 3,2l0 0c1,1 1,2 1,3 0,1 0,3 1,6 0,3 0,7 0,9 0,1 0,2 0,3 0,2 0,3 0,4 1,1 3,2 3,4 0,1 1,2 1,3 0,1 1,2 1,3 2,4 5,14 9,16 1,1 3,2 4,2 2,1 5,1 7,5 3,4 3,9 4,13 0,2 0,4 0,6 2,6 6,10 15,14 4,2 12,5 14,4 3,-1 6,-14 8,-20 2,-7 3,-10 5,-11 4,-5 8,-8 14,-12 2,-2 5,-3 8,-5 2,0 4,-1 5,-2 2,-2 3,-5 3,-8 1,-2 1,-4 2,-6 5,-8 9,-12 11,-14 1,0 1,-1 1,-1 3,-9 19,-21 19,-21 2,-1 5,-3 8,-4 5,-2 10,-5 12,-8 2,-5 2,-16 -3,-23 -1,-2 -3,-5 -6,-5 -2,0 -3,1 -4,1 -2,1 -4,1 -8,-1 -2,-2 -3,-4 -3,-6 -1,-1 -1,-2 -2,-2 -1,-2 -1,-2 -3,-3 0,0 -1,-1 -3,-2 0,-1 -1,-2 -2,-2 0,-1 -1,-2 -1,-2 -1,-1 -2,-1 -2,-2 -2,-1 -4,-1 -5,-5 0,-2 0,-5 1,-7 0,-2 0,-4 0,-5 -1,-2 -2,-3 -4,-4 -1,-1 -3,-2 -4,-5 -2,-3 -2,-6 -2,-9 0,-4 0,-7 -5,-9 0,0 -1,-1 -1,-1 -1,0 -2,-1 -2,-2 -1,-7 0,-12 1,-18 0,-4 1,-7 1,-11 0,0 0,-1 0,-1 -2,0 -3,-1 -5,-2 -2,-4 -2,-8 -2,-12 0,-1 0,-2 0,-3 -3,-1 -5,-3 -6,-5 0,-1 0,-2 -1,-2 -1,-1 -2,-2 -3,-2 -1,-1 -2,-1 -3,-2 -2,3 -4,6 -6,8 -2,3 -4,6 -5,8 -2,2 -3,4 -4,6 -1,2 -2,4 -3,6 -2,2 -4,4 -6,6 -2,1 -4,3 -5,4 -7,9 -11,18 -16,27 -1,3 -3,6 -4,9 -1,1 -2,3 -3,5 -2,2 -3,5 -4,8 -1,1 -1,3 -2,4 0,3 -1,6 -5,9 0,0 -14,6 -22,6z"/>
   <path class="fil0" d="M778 604c-1,-1 -1,-3 0,-4 2,-3 3,-7 5,-11 0,-1 0,-3 1,-4 3,-8 7,-15 10,-21 3,-5 6,-9 9,-13 4,-6 8,-12 10,-18 2,-4 3,-7 4,-11 1,-4 2,-8 4,-12 1,-3 3,-6 4,-8 1,-2 2,-4 3,-7 4,-7 6,-14 9,-21 1,-4 3,-8 5,-12 3,-9 8,-18 13,-27 3,-6 7,-13 10,-19 6,-12 13,-26 23,-35 -1,-1 0,-2 0,-2 1,-1 3,-3 4,-4 2,-1 5,-3 5,-4 -1,0 -3,1 -4,2l-1 1c-7,6 -19,9 -28,9 -1,0 -2,-2 -2,-3 0,-2 -1,-3 -1,-3 -1,-3 -2,-3 -4,-3 -2,0 -3,0 -4,-1 -5,-1 -7,-1 -7,-5 -1,-1 -1,-1 -1,-2 -4,-7 -7,-8 -14,-10l-3 -1c-3,-1 -7,-1 -12,-1 -5,0 -11,0 -16,-2 -4,-2 -13,-8 -16,-13 -1,-2 -1,-3 -1,-4 0,-1 -1,-2 -1,-3 -1,-1 -2,-1 -2,-2 -2,-2 -3,-3 -4,-7 0,0 0,-1 0,-2 -1,-2 -1,-4 -2,-5 0,-1 -1,-1 -3,0 -1,0 -4,0 -6,-1 -4,-1 -5,-6 -5,-10 0,-1 -1,-2 -1,-3 0,-3 -1,-5 -1,-6 0,-1 0,-2 0,-4 0,-3 -1,-6 -3,-10 -2,-5 -5,-12 -4,-18 -2,0 -5,0 -8,0 -2,0 -5,-1 -7,0 -3,0 -6,1 -9,2 -2,1 -5,2 -8,2 -2,1 -5,1 -8,1 -3,-1 -6,-1 -8,0 -4,2 -7,10 -8,14 0,1 -1,2 -1,3 0,2 -1,4 -2,5 -1,3 -3,4 -5,5 -2,1 -3,2 -4,3 -1,2 -2,5 -2,8 -1,3 -1,7 -3,10 -3,3 -7,4 -10,4 -1,0 -2,0 -3,0 0,1 -1,2 -1,2 -1,0 -2,0 -3,0 -3,-3 -6,-5 -9,-8 -1,-2 -3,-3 -4,-5 0,0 -1,0 -1,0 -3,-4 -5,-6 -9,-5 -2,1 -4,3 -7,4 -2,1 -3,2 -5,3 -5,3 -5,5 -5,12 0,9 -1,16 -2,23 0,1 0,2 -1,2 0,1 -1,1 -1,1 -1,0 -1,0 -1,0 -13,-3 -23,-9 -33,-19 -1,-2 -2,-3 -4,-5 -3,-3 -7,-6 -9,-9 -1,-2 -2,-5 -1,-7 2,-2 4,-2 6,-2 0,0 2,1 2,0 0,0 0,-3 -3,-12l0 -1c-3,-5 -3,-10 -3,-15 0,-3 0,-6 0,-9 -1,-3 -1,-7 -2,-10 -1,-4 -2,-9 -2,-14 0,-2 0,-4 0,-7 0,-2 1,-7 0,-10 -6,-4 -6,-7 -7,-11 0,-2 -1,-3 -1,-4 -1,-3 -3,-6 -5,-8 -2,-3 -4,-6 -5,-11 -1,-3 -2,-4 -3,-7l-1 -2c-1,-2 -2,-4 -2,-6 0,-1 0,-2 -1,-3 0,-2 -3,-4 -11,-5 -1,0 -3,0 -4,-1 0,0 -1,0 -2,0 -1,0 -2,-1 -3,-1 0,0 -1,0 -2,0 0,0 0,0 0,0 0,1 -1,3 -2,4 -3,1 -4,2 -6,2l-1 0c-2,0 -4,1 -6,0 -2,0 -4,0 -5,1 -1,1 -1,2 -1,5 1,1 1,2 1,4 0,9 -6,11 -10,13 -2,0 -4,1 -6,2l-2 2c-3,3 -4,3 -10,4 -3,0 -4,1 -5,3 -2,1 -3,3 -6,5 -2,1 -4,1 -7,1 -1,0 -3,0 -4,1 -1,0 -1,1 -1,2 0,3 -1,6 -5,8 -2,1 -4,1 -6,1 -1,-1 -2,-1 -2,1 -1,0 -1,2 -1,3 0,2 0,7 -7,7 -2,0 -4,0 -6,-2 -2,-2 -1,-5 -1,-8 0,-1 0,-4 0,-4 -2,0 -10,1 -12,2 -1,0 -2,2 -3,3 -2,2 -3,4 -7,5 -4,2 -16,2 -21,-2 -2,-2 -4,-4 -5,-7 0,-2 -1,-3 -3,-5 -1,-1 -5,-2 -8,-3 -8,-3 -16,-5 -17,-12 0,-5 3,-7 5,-8 0,-1 1,-2 1,-2 0,-1 -1,-3 -5,-7l0 -1c-1,-1 -3,-2 -4,-3 -2,-2 -3,-4 -5,-6 -1,-1 -2,-3 -3,-4 -1,-1 -2,-3 -3,-4 -2,2 -4,5 -6,7 -2,3 -5,5 -7,7 -3,3 -11,5 -16,2 -2,-2 -2,-4 -2,-6 0,0 0,-1 0,-1 0,0 0,0 -1,0 0,0 0,1 0,2 0,3 -1,6 -3,8 -2,2 -8,2 -16,1 -2,0 -3,0 -4,0 -3,0 -7,0 -10,0 -4,0 -7,1 -11,1 0,0 -2,0 -3,0 -4,0 -10,1 -14,-1 -1,0 -2,-1 -3,-2 0,0 0,0 0,0 -4,-1 -4,-2 -9,0 -9,4 -11,6 -10,14 1,3 1,6 1,8 0,4 0,8 2,9 1,1 3,2 6,2 1,0 3,0 4,-1 6,0 14,-1 18,7 3,4 5,14 1,19 -1,2 -4,4 -9,3 -2,-1 -3,-2 -4,-2 -2,-1 -3,-2 -4,-2 -3,0 -5,0 -7,1 -1,0 -2,0 -3,1 -1,0 -3,0 -4,0 -7,2 -11,3 -12,7 -1,7 0,17 0,25l0 1c0,5 1,6 3,8 1,0 1,0 1,0 9,4 21,15 19,25 -1,1 -2,2 -2,3 -1,1 -1,1 -1,2 0,0 1,2 5,7 6,6 7,8 7,18 0,20 -5,41 -11,62 -1,6 -2,12 -3,19 -1,5 -2,10 -3,16 -2,9 -4,20 -4,31 0,0 -1,1 -1,2 -1,5 -2,11 -6,14 -4,3 -8,4 -13,3 -2,-1 -3,-2 -3,-3 0,0 0,-1 -1,-2 -5,-4 -15,-5 -18,-4 -2,1 -3,2 -4,5 -1,1 -2,3 -4,5 -5,4 -10,3 -15,3 -1,0 -2,-1 -3,-1 -15,1 -36,9 -47,15 -3,2 -5,4 -7,6 -2,2 -4,4 -6,5 -4,3 -7,3 -9,4 -1,0 -1,0 -2,0 0,0 0,1 0,2 0,3 -3,5 -5,6 -1,1 -3,2 -3,3 -2,4 -3,9 -3,14l-1 3c-1,6 -3,8 -5,10 -1,2 -3,3 -4,5 -1,2 -1,9 0,10 1,0 1,1 2,1 0,1 0,2 0,3 0,1 0,3 1,5 0,2 1,5 0,8 -2,5 -5,6 -8,7 -1,0 -2,1 -3,1 -7,4 -14,12 -19,19 2,2 4,4 5,6 5,2 9,4 13,6 5,3 9,5 14,6 8,1 15,4 22,6 8,3 16,5 24,7 9,1 17,3 26,5 10,2 20,4 30,6 14,2 26,8 38,14 4,3 9,5 13,7 17,9 35,17 53,25 15,7 31,14 47,22 4,2 8,3 12,4 6,2 12,5 17,8 2,1 4,3 6,5 3,2 5,5 7,6 0,-1 1,-2 1,-2 1,-1 2,-2 2,-2 0,0 0,-1 1,-1 3,-1 5,-1 7,-1 2,0 3,0 4,0 1,0 2,0 2,0 0,-1 1,-1 1,-2 0,-1 0,-3 1,-4 1,-1 2,-1 3,-2 0,0 1,0 1,0 7,-5 13,-7 21,-6 5,0 7,2 9,4 1,1 2,2 3,3 3,-3 6,-3 9,-3 2,0 3,0 4,0 2,-1 3,-2 5,-4 2,-2 4,-4 9,-5 0,0 1,0 2,0 1,1 1,2 1,3 0,2 0,2 0,2 0,0 0,0 0,0 1,0 4,-1 6,-3 1,-2 2,-3 3,-5 1,-3 3,-6 5,-8 4,-4 11,-5 18,-6 3,-1 7,-1 10,-3l1 0c2,0 4,-1 4,-2 2,-1 2,-2 2,-4 1,-2 1,-4 2,-6 1,-2 3,-4 5,-5 1,-1 2,-2 2,-3 2,-2 4,-3 5,-4 1,0 2,-1 3,-1 1,-1 1,-2 2,-3 1,-1 1,-3 2,-4 2,-2 4,-4 7,-6 1,0 2,-1 2,-1 0,-2 1,-3 2,-5 3,-1 5,-1 8,-1 1,1 3,1 3,1 2,0 3,-1 5,-1 3,0 6,-1 9,0 2,1 4,2 5,3 0,1 1,1 1,1 1,1 2,2 3,2 1,1 3,2 4,3 2,2 2,4 3,6 0,1 1,2 2,2 0,1 1,0 2,0 2,0 4,0 6,2 3,1 4,2 4,4 0,1 0,1 0,1 3,4 5,5 9,7 2,1 4,2 6,3 3,2 5,5 7,7 0,1 1,2 2,3 0,0 0,-1 0,-1 1,-4 3,-5 9,-5l0 0c3,0 7,2 9,3 5,1 17,0 23,0 3,0 6,0 8,0 16,1 31,0 46,-1l1 0c11,-1 21,-1 31,-1 9,0 18,0 26,0 2,0 4,0 6,0 5,0 12,1 16,-1 -1,-3 1,-6 2,-8 0,-1 1,-3 1,-4 2,-5 1,-12 0,-17 0,-2 0,-4 0,-6 0,-10 4,-18 9,-27l0 0c-1,-4 0,-7 1,-9 1,-1 1,-2 1,-3 1,-2 0,-5 -1,-9 -1,-2 -3,-3 -5,-5 -3,-2 -8,-5 -7,-11z"/>
   <g>
    <path class="fil0" d="M1128 306c0,0 -4,2 -5,4 -2,1 -2,2 -2,3 0,1 1,2 0,3 0,4 -1,6 -3,7 0,1 -1,2 -1,3 -1,1 -1,2 -2,3 1,-1 2,-2 3,-3 1,0 2,0 2,0l0 0c3,-4 6,-9 7,-13 0,-1 0,-1 0,-2 1,-1 2,-4 1,-5z"/>
    <path class="fil0" d="M1223 357c-2,0 -3,0 -4,-1 -2,0 -3,-1 -4,0 -1,1 -1,1 -1,2 0,1 0,2 -1,3 -2,2 -4,2 -8,2l0 0c-2,0 -4,-1 -6,-2 -1,0 -2,-1 -3,-1l-1 0c-1,0 -1,0 -2,0 0,0 -1,1 -2,2 0,0 0,0 0,0l-1 0c1,0 1,0 1,0 1,0 3,0 3,1 2,2 3,4 5,7 1,1 2,3 3,5 0,-1 0,-2 0,-2 1,-3 3,-6 7,-8 2,-1 3,-1 4,-1 2,0 3,0 4,-1 2,-1 3,-3 5,-5 0,-1 0,-1 1,-1z"/>
    <path class="fil0" d="M1167 346c1,0 2,1 2,2 1,1 1,1 1,2 2,5 2,5 9,7 1,0 2,1 3,1 1,1 3,2 4,1 0,0 0,0 0,0 0,-1 1,-2 2,-3 2,0 2,-1 2,-1 2,-1 3,-1 6,-1l0 0c2,1 4,1 5,2 3,1 5,1 6,1 1,0 1,0 1,0 0,-2 1,-4 4,-6 3,-2 6,-1 9,0 2,0 3,1 4,0 0,-1 1,-2 1,-4 1,-2 1,-5 4,-6 1,-1 2,-1 4,-1 2,1 3,3 4,4 0,0 0,1 1,1 0,0 0,-2 0,-3 0,0 0,-1 0,-1 0,0 0,0 0,-1 -1,-1 -1,-2 -1,-4 2,-4 5,-6 8,-8l1 -1c8,-4 11,-10 15,-18l3 -3c1,-2 1,-3 2,-3 1,-2 2,-3 2,-4 0,0 -1,-1 -2,-2 -2,-2 -4,-2 -6,-3 -1,-1 -2,-2 -4,-3 -1,0 -2,-1 -3,-1 -3,-2 -5,-3 -7,-3 -2,-1 -3,0 -5,0 -2,1 -4,1 -7,1 -2,-1 -3,-1 -5,-2 -1,-1 -2,-1 -3,-1 -1,0 -2,0 -3,1 -1,0 -2,0 -3,1 -3,0 -5,0 -7,0 -2,0 -4,0 -6,0 -1,0 -3,2 -5,3 -2,2 -5,4 -9,4 -3,0 -6,-1 -8,-2 -1,-1 -2,-2 -4,-2 -3,1 -3,2 -3,8 -1,3 -1,7 -3,9 -3,2 -7,2 -10,2 -1,0 -3,-1 -4,0 0,0 0,0 0,0 -1,0 -1,0 -1,0 5,2 8,4 11,7 1,2 2,3 1,5 0,3 -2,4 -3,5 -1,0 -1,0 -1,0 0,0 0,1 0,1l0 0c0,0 1,0 1,0 2,1 5,2 6,5 1,1 0,3 -2,5 -1,2 -4,2 -7,2 -1,0 -2,0 -2,0 0,1 -1,1 -1,1 -2,0 -4,1 -5,1 0,1 0,1 0,1 1,1 2,1 3,1 1,1 4,1 5,3z"/>
    <path class="fil0" d="M1378 339c-1,-1 -1,-1 -2,-2 0,-1 0,-2 1,-3 -1,-1 -2,-2 -3,-3l-2 -1c-2,-1 -4,-2 -5,-3 -2,-2 -4,-3 -6,-4 0,0 -1,0 -2,0 -2,0 -4,0 -6,-1 -3,0 -4,-2 -6,-3 0,-1 -1,-2 -2,-2 -2,-2 -6,-2 -10,-2 -2,0 -4,0 -6,0 -2,0 -5,0 -7,0 -2,-1 -5,-1 -9,-1 -1,-1 -2,-1 -4,-2 -3,-1 -6,-2 -9,0 -4,1 -8,5 -10,8 -4,5 -5,6 -9,8l-2 2c-3,1 -4,3 -6,6 -1,1 -2,3 -4,4 -3,3 -6,5 -10,7 -2,1 -4,2 -6,3l-2 1c-4,3 -9,7 -13,11 0,1 -1,2 -2,3 -2,4 -5,10 -12,8 -2,0 -3,-2 -2,-3l0 -2c0,-1 1,-1 1,-2 -1,0 -2,1 -3,2 -2,1 -4,2 -6,2 -1,0 -2,0 -2,0 -3,1 -3,2 -4,5 -1,2 -2,4 -5,6 0,1 -1,1 -1,1 -1,0 -2,0 -3,-1 -2,-2 -4,-6 -5,-8 -1,-1 -1,-2 -1,-2 -2,1 -3,1 -4,1 -1,0 -2,0 -2,1 -2,0 -4,1 -6,2 -2,2 -4,3 -7,4 -6,1 -16,-7 -19,-11 -2,-3 -3,-6 -4,-9 0,-3 -1,-5 -2,-8 0,0 -1,0 -1,-1 -2,-1 -3,-3 -4,-5 0,-2 0,-4 1,-5 0,-1 0,-2 0,-2 -1,-3 -1,-3 -5,-4 -3,-1 -9,0 -10,1 -2,1 -3,2 -3,3 -2,3 -4,4 -9,4l-1 0c-4,0 -4,0 -6,5 -4,6 -7,10 -15,12 -5,2 -16,0 -18,-5 0,-1 -1,-5 5,-8 2,-1 4,-1 6,-2 2,0 3,0 5,-2 1,-1 2,-3 3,-5 -6,0 -16,-5 -16,-5 -7,-3 -15,-8 -17,-18 -1,-2 -1,-4 -1,-6 0,-4 -1,-8 -2,-11 -2,-2 -3,-2 -5,-2 -1,-1 -3,-1 -5,-3 -5,-3 -8,-11 -11,-19 -1,-1 -1,-2 -2,-4 0,-1 0,-1 0,-2 0,0 -1,0 -1,-1 -1,0 -2,-1 -2,-2 -1,-2 -1,-5 -1,-7 0,-1 0,-2 0,-3 0,-2 0,-5 0,-9 0,-2 -1,-4 -1,-5 -5,0 -8,-4 -10,-7l-1 -2c-2,-3 -4,-7 -6,-11 -1,-2 -1,-3 -1,-4 0,-1 0,-1 -1,-2 0,0 -1,0 -2,0 -1,0 -3,0 -4,0 -4,-2 -5,-4 -7,-6 -1,-1 -2,-2 -3,-3 -1,-1 -3,-1 -6,-2l0 0c0,1 -1,2 -2,2 -1,1 -3,0 -4,-1 0,-1 -1,-2 -2,-3l0 0c-1,-1 -1,-2 -1,-2 -4,-5 -10,-8 -15,-8l-3 0c-3,0 -5,0 -7,-2 -2,-2 -2,-5 -2,-8 0,-4 1,-7 1,-11 0,-3 1,-5 1,-8 -1,0 -1,-1 -2,-1 0,-2 0,-4 1,-4l0 0c0,-2 -1,-2 -2,-3 -5,-4 -16,-3 -25,0 -2,0 -4,1 -7,3 -5,3 -10,5 -15,4 -3,0 -5,-2 -7,-4 0,0 0,0 0,0 0,1 -1,2 -2,3l-1 1c-1,2 -2,3 -3,3 0,0 0,1 0,1 0,0 0,1 1,2 1,1 2,2 2,3 1,1 2,2 3,3 2,6 2,10 -1,12 -4,5 -13,3 -20,2 -8,-2 -14,-2 -23,-2 -3,0 -7,0 -10,0 -4,0 -8,-1 -12,0 -4,1 -6,1 -9,4 0,1 0,1 -1,2 -1,2 -2,4 -6,5 -3,1 -6,1 -9,0 -3,0 -6,0 -8,1 0,0 0,0 -1,1 0,2 -2,4 -5,5 -3,2 -6,2 -9,2 -4,0 -7,0 -9,3 0,0 0,1 0,2 -1,1 -1,3 -3,5 -2,2 -5,2 -8,3 -2,1 -5,1 -6,2 0,1 0,1 0,2 0,1 0,2 0,3 0,2 -2,3 -3,3 -1,0 -1,0 -1,0 -1,2 0,6 0,8 0,1 1,2 1,3 1,1 1,2 2,5 0,1 1,12 -1,16l0 0 0 0 0 2c0,1 -1,2 -2,2 -1,5 1,10 4,16 1,4 3,8 3,12 0,1 0,2 0,3 0,2 0,4 1,5 0,2 0,3 0,4 1,4 1,5 2,6 1,0 2,0 3,0 3,0 5,-1 8,1 2,3 3,6 3,8 1,1 1,2 1,2 1,4 1,4 2,5 0,1 1,1 2,2 2,3 2,4 3,5 0,1 0,2 0,3 2,3 10,9 13,11 4,1 9,1 14,1 5,0 10,0 14,2l3 0c7,2 11,4 17,13 1,2 1,3 1,4 1,0 1,0 3,1 1,0 2,0 3,0 4,0 6,1 9,5 1,1 1,3 1,4 7,-1 16,-4 21,-8l1 0c3,-2 6,-5 9,-4 2,1 3,1 4,4 2,4 -3,8 -6,11 -1,0 -1,0 -2,1 1,1 0,2 -1,2 -9,9 -17,23 -23,35 -3,7 -7,14 -10,20 -5,9 -10,17 -13,26 -2,4 -3,8 -5,12 -2,7 -5,15 -8,22 -1,2 -3,4 -4,7 -1,2 -3,5 -4,7 -1,4 -2,8 -3,11 -1,4 -3,8 -4,12 -3,7 -7,13 -12,19 -2,4 -5,8 -8,13 -3,6 -7,13 -10,20 0,1 0,3 -1,4 -1,4 -2,7 -4,10 0,1 0,1 0,2 -1,4 0,5 4,7 2,2 5,4 7,8 1,3 3,8 2,12 0,2 -1,3 -1,5l-1 0c8,3 9,10 9,15 0,2 0,5 1,6 1,3 3,6 5,8 2,3 4,5 5,9l1 3c2,4 4,9 4,14 0,3 0,6 0,8 0,2 0,4 0,6 4,1 8,4 10,6 1,1 2,2 2,3 4,2 6,4 8,6 1,2 3,4 3,6 2,2 3,4 4,5 1,1 1,1 4,1 1,0 2,0 4,0 4,1 6,4 7,5 1,1 1,2 2,3 2,1 6,0 9,-1 2,0 4,0 6,0 4,0 8,0 12,0 5,0 9,0 13,0l0 0c4,0 8,0 11,1 2,1 5,1 7,1 9,1 16,1 24,2 4,0 7,0 10,0 5,0 10,0 16,1l5 0c6,1 13,1 19,1 16,1 31,2 47,3 16,1 34,2 51,2 20,0 43,2 66,6l2 1c5,1 16,3 21,0 0,0 0,-1 0,-2 0,-4 0,-8 1,-11 1,-4 2,-5 3,-7 1,-1 2,-1 2,-2 2,-3 3,-5 3,-7 2,-5 4,-11 13,-14 5,-2 6,-3 7,-7 0,-2 1,-4 1,-7 2,-5 5,-9 8,-12 2,-3 5,-6 6,-10 3,-7 0,-14 -2,-17 -4,-6 -8,-13 -3,-21 1,-2 3,-4 4,-5 2,-1 3,-2 3,-3 1,-2 1,-4 0,-7 0,-2 -1,-4 -1,-6 1,-5 6,-9 8,-10 4,-2 9,-5 14,-4 0,-1 1,-2 2,-2 1,0 2,1 3,2 2,-2 3,-5 4,-9 2,-4 3,-8 6,-12 1,-1 2,-2 3,-3 2,-2 4,-3 5,-7 0,0 0,-1 0,-1 0,-2 1,-3 1,-4 0,0 -1,-2 -1,-3 0,0 0,-1 0,-1 0,0 0,0 0,-1 1,-3 2,-5 3,-6 1,-1 2,-2 2,-3l0 0c0,0 -1,-1 -4,-2 -2,-1 -5,-2 -8,-3 -6,-1 -11,-2 -15,-6 -1,-1 -1,-3 -1,-4 2,-3 6,-5 8,-6 2,-1 3,-2 4,-3 1,0 2,-2 3,-3 1,-2 2,-4 3,-5 3,-4 7,-6 10,-8 4,-3 8,-5 10,-8 1,-1 1,-2 2,-3 1,-2 3,-5 6,-6 2,-1 3,-1 5,-1 1,0 3,0 3,0 6,-2 8,-6 11,-11 1,-2 2,-4 3,-6 2,-2 4,-4 5,-7 3,-3 6,-6 7,-10 1,-1 2,-3 2,-5 1,-3 1,-5 3,-8 1,-1 2,-2 3,-3 1,-1 2,-1 3,-2 1,-1 1,-3 2,-6 1,-2 1,-4 3,-6 1,-2 3,-3 4,-4 2,-1 3,-2 3,-3 1,-1 3,-7 3,-8 0,-1 0,-2 -1,-3 0,-1 0,-3 0,-5 0,-3 2,-5 4,-6 1,-1 1,-2 2,-3 1,-1 1,-3 1,-5 1,-2 1,-4 2,-6 1,-2 2,-4 3,-5 1,-2 2,-4 3,-5 0,-1 0,-1 0,-2 0,-2 1,-4 2,-6 0,0 0,0 0,0 0,-1 0,-1 -3,-2 -2,-1 -4,-2 -5,-5 -1,-2 1,-4 2,-5 1,-1 3,-2 5,-3 1,0 2,0 2,0 2,-2 2,-2 2,-4l1 -4c1,-3 2,-7 2,-9z"/>
   </g>
   <path class="fil0" d="M1034 1160c3,-6 5,-13 3,-17 0,-1 0,-1 0,-1 -1,-1 -3,-2 -3,-5 0,-1 0,-3 0,-5 1,0 1,-1 1,-1l0 -3c0,-6 0,-10 2,-17 2,-7 7,-12 11,-16 4,-3 7,-6 9,-10 3,-5 7,-9 11,-13 1,-2 3,-4 5,-7 1,-1 2,-2 2,-4 2,-3 3,-6 6,-7 3,-2 6,-3 9,-3 2,0 4,0 6,-2 3,-2 3,-5 4,-8 0,-3 1,-5 1,-7 4,-8 10,-22 21,-26 2,-1 5,-2 7,-2 1,-1 3,-1 4,-1 5,-2 5,-4 6,-8 0,-1 0,-3 1,-4 1,-3 2,-6 3,-9 2,-5 3,-9 4,-14l0 -3c1,-5 1,-10 3,-15 2,-5 3,-9 5,-13 1,-2 2,-4 3,-6 1,-3 3,-6 3,-9 1,-2 1,-4 2,-7 0,-2 1,-6 2,-8 -1,0 -2,0 -2,0 -1,-1 -2,-1 -2,-2 -3,-11 -3,-20 -3,-34 1,-10 1,-20 0,-30 0,-6 1,-10 2,-14 1,-1 1,-2 2,-4 1,-4 1,-9 1,-13 1,-6 2,-13 3,-18 2,-6 5,-10 7,-15 3,-5 6,-10 7,-16 -1,0 -2,1 -4,1 -5,0 -11,-2 -15,-2l-2 -1c-23,-4 -45,-7 -65,-7 -18,0 -35,-1 -52,-2 -15,-1 -31,-2 -46,-2 -7,0 -13,0 -19,-1l-6 -1c-5,0 -10,0 -15,0 -3,0 -7,0 -10,0 -8,-1 -16,-1 -25,-2 -2,0 -5,-1 -7,-1 -3,-1 -6,-2 -10,-2 -4,1 -8,1 -13,0 -4,0 -8,0 -12,0 -1,1 -3,1 -5,1 -4,1 -9,2 -13,-1 -2,-1 -3,-2 -4,-3 -1,-2 -1,-3 -3,-3 -1,0 -2,0 -3,0 -3,0 -6,0 -9,-3 -1,-2 -2,-4 -4,-6 -1,-2 -1,-4 -2,-5 -2,-2 -4,-4 -7,-5 -1,-1 -2,-2 -3,-4 -3,-2 -5,-4 -7,-4 -1,1 -2,0 -3,-1 -1,0 -1,-1 -1,-2 -1,-3 -1,-6 -1,-8 0,-3 0,-6 0,-9 0,-4 -2,-8 -3,-12l-1 -3c-1,-3 -3,-5 -5,-7 -2,-3 -4,-6 -6,-10 0,-2 -1,-5 -1,-7 0,-5 -1,-8 -2,-9 -1,0 -1,1 -1,1 0,0 -1,1 -1,1l0 0c-4,8 -8,16 -8,24 0,2 0,3 0,5 1,6 1,13 0,19 -1,2 -1,4 -2,5 -1,3 -2,4 -1,7 0,1 0,3 -2,3 -5,4 -14,3 -21,3 -2,0 -3,0 -5,0 -8,0 -17,0 -26,0 -10,0 -20,0 -30,0l-1 0c-16,2 -31,3 -48,1 -1,0 -4,1 -7,1 -7,0 -12,0 -16,0l-1 0c0,3 -1,7 -2,10 -1,1 -2,3 -2,4 0,2 0,4 1,6 0,2 1,4 1,5 1,6 1,12 0,17 -2,11 -2,18 0,27l1 4c1,9 3,19 3,28 9,1 18,0 27,-1 3,0 7,-1 10,-1 6,0 10,2 13,4 2,2 3,3 5,4 1,0 3,0 4,-1 1,0 2,0 4,0 5,0 6,0 9,4l1 3c2,3 5,7 3,12 0,1 -2,2 -3,3 -1,1 -1,2 -2,3 -1,4 0,14 2,18 1,1 2,1 2,2 2,2 3,3 4,7 0,4 0,8 0,12l0 4c0,9 -4,17 -10,24 -1,1 -2,3 -3,4 -2,2 -4,4 -6,7 0,1 -1,2 -1,3 -1,2 -2,4 -4,7 -4,5 -8,8 -12,11 -1,0 -2,1 -3,1l1 0c2,1 4,1 6,3 3,1 8,10 8,15 0,2 -2,4 -3,5 -1,1 -1,2 -2,3 0,2 0,7 1,10 1,2 1,3 3,4 0,1 1,1 2,3 2,3 3,5 3,7l0 2c1,1 1,3 2,4 2,6 4,13 0,16 -2,3 -6,3 -9,3 0,0 0,0 0,0 1,2 2,3 3,4 2,2 3,4 5,7 0,1 0,2 1,2 1,4 3,7 3,11 0,3 0,6 1,9 0,7 0,13 5,18 6,6 13,4 22,2 3,-1 6,-1 9,-2 5,-1 10,0 14,2 3,0 5,1 8,1 5,1 11,0 17,-1 2,0 3,0 5,0 5,-1 10,0 13,3 1,3 1,6 -1,9 -2,2 -4,3 -5,4 -1,0 -2,0 -2,0 -1,2 0,5 0,8l0 1c0,1 0,2 0,4 1,5 2,13 4,16 1,1 2,1 3,2 1,0 3,1 4,2 2,1 3,3 3,5 1,1 2,2 3,3 1,0 2,1 4,1 2,0 4,0 7,2 0,-1 2,-2 4,-3 0,0 0,0 0,0 4,0 7,4 10,7l1 1c1,1 1,2 2,3 2,2 3,4 6,5 2,0 4,-1 7,-2 2,-1 3,-2 4,-2 4,-2 6,-4 8,-7 2,-3 4,-6 8,-8 6,-4 9,-3 16,-3 6,-1 12,-3 12,-5 0,0 1,-1 2,-2 5,-2 13,2 23,6 2,1 4,2 5,2 6,2 9,5 14,8l2 2c4,3 7,3 13,2 3,0 5,0 8,0 4,-1 7,-1 11,-2 0,0 1,0 1,0 1,-1 3,-2 5,-2 2,0 4,1 6,1 1,0 2,1 3,1 8,-1 17,-4 27,-10 1,-1 1,-1 2,-1 1,1 2,1 2,2 4,8 5,16 3,25 -1,1 -1,2 -2,3 0,1 0,2 0,2l0 0c0,0 0,1 2,1 1,1 3,1 6,1 2,-1 5,0 7,0l3 1c3,2 6,2 7,3z"/>
   <path class="fil0" d="M1142 1234c-1,0 -2,0 -2,-2 0,-1 0,-2 1,-2 -1,-2 -2,-3 -2,-3 -2,-2 -8,-3 -12,-4 -3,-1 -6,-2 -9,-3 -2,-1 -4,-2 -7,-3 -3,-2 -6,-4 -10,-5l-3 -1c-6,-2 -11,-4 -17,-8l-2 -2c-4,-3 -8,-6 -13,-8 -2,0 -4,-1 -6,-1 -4,-1 -8,-2 -11,-5 -1,0 -2,-2 -1,-3 0,-2 1,-3 2,-4 0,-1 1,-1 1,-1 0,0 -1,-1 -1,-1 0,-2 -6,-4 -8,-4l-2 -1c-4,-1 -5,-3 -7,-5 0,0 0,0 0,-1 0,0 -1,0 -1,0 0,-1 -1,-1 -1,-2 -1,0 -4,-1 -6,-2l-3 -1c-1,-1 -3,-1 -5,0 -3,0 -6,0 -8,-1 -3,-1 -5,-2 -6,-4 -1,-3 0,-5 1,-7 0,-1 1,-2 1,-2 2,-7 2,-13 -1,-19 -10,6 -19,9 -27,10l0 0c-2,0 -3,-1 -5,-1 -1,-1 -3,-1 -4,-1 -1,0 -1,0 -2,1 -1,0 -1,1 -2,1 -5,1 -9,1 -13,1 -2,1 -4,1 -7,1 -7,1 -11,1 -18,-4l-2 -1c-4,-3 -7,-5 -12,-7 -2,-1 -3,-2 -5,-3 -4,-1 -13,-6 -17,-6 0,0 -1,0 -1,0 -3,6 -14,7 -17,7 -7,1 -9,0 -13,2 -3,2 -4,5 -6,7 -3,3 -5,7 -11,9 -1,1 -2,1 -3,2 -3,2 -7,3 -12,2 -5,-1 -7,-4 -9,-7 0,0 -1,-1 -1,-2l-2 -1c-1,-2 -3,-4 -4,-5 0,0 -1,0 -1,1 0,1 -1,2 -2,3 0,2 0,3 1,4l0 2c0,4 1,4 3,8 2,2 3,6 4,9 1,3 2,8 4,9 1,0 1,1 1,2 1,1 0,2 0,2 -1,2 -3,3 -4,4 -1,0 -2,1 -3,2 0,1 0,3 -1,5 0,2 -1,4 -1,6 -3,5 -3,7 -2,13l0 1c1,4 2,10 -3,14 -1,2 -3,3 -5,3 -1,1 -2,1 -3,2 -1,1 -2,4 -2,7 -1,2 -1,3 -2,5 0,1 0,2 -1,3 -1,4 -2,8 -1,10 1,0 1,0 2,1 2,0 5,2 6,6 0,5 -3,7 -5,9 -1,1 -2,1 -2,2 -3,3 -2,5 0,9 1,3 3,6 3,9 1,1 1,2 1,3 0,4 1,8 2,10 1,0 2,0 2,1 2,1 4,1 5,4 1,1 1,4 1,10 0,5 0,6 -2,8 -1,1 -2,1 -3,3 -3,3 -2,7 -1,12 1,3 1,5 1,8 0,1 0,2 0,4 -1,2 -1,6 0,8 1,0 5,1 7,2 1,0 2,0 3,0 2,1 3,2 4,2 2,1 4,2 6,3 1,1 1,2 2,3 0,0 1,1 1,1 3,2 7,0 11,-1 4,-1 8,-2 12,-2l1 0c15,2 17,1 17,0 0,0 0,0 0,-1 0,0 0,-1 0,-2 0,-1 1,-1 2,-1 4,-2 9,1 12,3 1,2 3,3 4,3 2,1 3,1 5,1 6,0 11,0 15,4 2,2 2,4 3,6 1,1 1,3 2,4l1 1c4,6 8,11 7,19l0 2c0,6 0,10 2,16 1,1 1,3 2,4 2,4 4,8 4,14 0,1 0,2 0,4 -1,4 -1,8 1,10 2,1 6,0 8,0 1,0 2,0 3,0l0 0c2,-1 4,-2 6,-3 6,-5 9,-6 17,-4 7,2 15,4 20,11 3,-4 5,-8 7,-13 1,-2 2,-4 2,-6 0,-3 1,-5 2,-8 1,-2 3,-4 4,-6 2,-1 3,-2 4,-4 1,-2 2,-4 3,-7 1,-5 2,-10 7,-13 2,-1 4,-2 6,-2 2,-1 3,-1 5,-3 1,-1 2,-2 3,-3 2,-2 5,-5 8,-6 2,-2 5,-3 7,-3 2,-1 3,-2 4,-4 4,-3 7,-5 10,-8 3,-2 7,-4 10,-6 4,-3 9,-6 12,-9 1,-1 2,-2 3,-4 1,-1 1,-2 2,-3 1,-1 2,-2 3,-3 2,-1 4,-2 4,-3 0,-1 0,-1 0,-2 -1,-1 -1,-3 -1,-5 1,-4 3,-4 5,-5 1,0 1,0 1,-1 1,-1 1,-4 0,-8 0,-3 -1,-7 1,-11 2,-2 4,-4 6,-5 3,-1 4,-2 6,-4 0,-1 0,-2 0,-3 1,-2 1,-4 2,-7 2,-2 4,-3 6,-5 2,-1 4,-1 5,-3 1,-1 2,-3 3,-4 1,-2 3,-5 6,-7 1,-1 4,-2 6,-3 2,-1 6,-2 7,-3 0,-1 0,-2 0,-2 -1,-1 -2,-2 -2,-3 1,-3 0,-5 0,-8 0,-3 -1,-6 0,-9 0,-2 2,-5 3,-6 0,-1 1,-2 1,-3z"/>
   <path class="fil0" d="M1309 1065c-2,0 -5,0 -7,0 -3,-1 -4,-1 -8,-1 -13,1 -21,1 -24,-3 -1,-1 -2,-3 -2,-4 1,-3 3,-3 4,-3 0,-1 0,-1 0,-1 0,0 0,-1 0,-1l1 -2c0,-1 0,-3 0,-5 0,-6 0,-10 10,-12 2,0 3,0 5,0 0,-1 0,-1 0,-1 1,-2 2,-2 4,-2 6,2 11,2 16,1 2,0 5,-1 7,-1 3,0 6,0 8,2 1,2 0,4 0,6 -1,1 -1,2 -1,4 -1,1 0,3 0,5 1,6 2,13 -5,17 -2,1 -5,1 -8,1z"/>
   <path class="fil0" d="M1298 1059c1,0 3,0 5,0 4,0 9,1 11,0 3,-2 3,-5 2,-11 0,-2 0,-5 0,-7 0,-2 1,-4 1,-5 0,0 0,0 0,0 0,0 -1,0 -1,0 -3,0 -5,0 -7,1 -1,0 -2,0 -3,0 0,1 0,2 -1,3 -1,1 -3,1 -4,0 -1,-2 -6,-3 -17,-1 -6,1 -6,1 -5,6 0,2 0,4 -1,6l0 2c0,1 0,2 0,2 0,0 0,1 -1,1 0,1 -1,2 -1,2 3,1 9,1 18,1 1,0 3,0 4,0z"/>
   <path class="fil0" d="M1377 908c0,0 0,-1 0,-1 0,0 0,-1 0,-1 0,0 0,-1 0,-1 -1,-2 -1,-3 -1,-4 -1,-2 -2,-4 -2,-8 -1,-1 0,-3 0,-4 0,0 0,-1 0,-1 0,-2 -1,-3 -1,-4 -1,-1 -2,-2 -3,-4 -2,-8 2,-12 5,-15 1,-1 2,-3 3,-5 2,-2 2,-2 2,-2 0,0 -1,-1 -1,-1 -1,-1 -2,-2 -2,-4 -1,-5 1,-7 3,-9 -3,-1 -5,-2 -9,-2 0,0 -1,0 -2,0 -4,0 -10,1 -13,-4 -2,-5 3,-9 7,-13 1,0 2,-1 3,-2 1,-2 1,-3 1,-5 0,-2 1,-4 2,-7 0,-1 2,-2 3,-2 0,-1 1,-1 1,-2 1,-3 2,-5 4,-7 2,-2 4,-2 7,-3 2,0 4,-1 5,-2 3,-3 3,-4 3,-7 -1,-2 -1,-4 -1,-6 -2,-1 -4,-2 -5,-3 -1,0 -2,-1 -3,-2 0,0 -1,1 -3,1 -2,0 -5,0 -8,-2 -3,-3 -4,-7 -6,-11 -1,-3 -2,-7 -5,-8 0,-1 -1,-2 -1,-3 0,-2 0,-4 -1,-6 0,-1 -1,-2 -1,-4 -8,-1 -8,-6 -9,-10 0,-2 -1,-4 -2,-6 -1,-1 -3,-2 -5,-3 -2,-1 -4,-1 -5,-3 -3,-5 0,-8 2,-9 0,0 1,-1 1,-1 2,-2 3,-6 3,-10 0,0 0,-1 0,-2 0,-2 0,-4 2,-6 1,-2 10,-6 12,-6 3,0 5,-1 6,2 0,0 0,0 1,1 1,1 1,1 2,2 0,0 0,1 0,1 0,0 0,0 1,0 0,-1 -2,-6 -5,-15 -1,-1 -1,-2 -1,-3 -1,-4 -3,-6 -4,-6 -2,-1 -5,0 -9,2 -1,1 -3,2 -4,2 -9,4 -13,-4 -16,-11 -2,-3 -3,-6 -5,-8 -1,-1 -2,-1 -3,-2 -1,-1 -3,-2 -5,-6 0,-1 -1,-2 -1,-3 0,-1 -1,-3 -1,-4 -2,-2 -5,-4 -7,-5 -1,-1 -2,-2 -3,-2 0,-1 -1,-2 -1,-2 0,-1 1,-2 1,-3 9,-6 9,-14 9,-26l0 -2c0,-5 1,-9 1,-14 1,-13 2,-25 -2,-35 -2,-5 -5,-7 -9,-7 -2,-1 -3,-1 -4,-1 -3,1 -6,1 -9,-1 -1,-1 -2,-2 -3,-2 -1,-1 -2,-2 -4,-2 0,0 -2,0 -3,0 -1,1 -2,1 -4,1 -1,0 -3,-1 -5,-1 -2,-1 -5,-1 -6,-1 0,0 0,0 -1,0 -1,0 -2,1 -2,1 -2,1 -3,1 -4,2 3,2 6,3 10,4 3,0 7,1 9,2 5,3 7,5 8,7 0,3 -1,5 -3,7 -1,1 -2,2 -2,4 0,1 1,3 1,4 0,2 -1,4 -1,5 0,1 -1,1 -1,2 -1,5 -4,7 -6,9 -1,1 -2,2 -3,3 -2,3 -3,6 -4,10 -1,5 -3,12 -12,13 0,1 -1,1 -1,1 -1,0 -1,0 -1,0 -2,0 -3,0 -4,-1 0,0 0,0 0,0 -2,0 -5,1 -8,3 -3,2 -5,4 -5,6 0,1 0,2 1,4 0,3 1,7 0,11 -1,2 -3,3 -5,5 -1,1 -2,2 -3,3 -3,5 -1,9 3,15 4,7 5,16 2,22 -1,4 -4,8 -6,11 -3,4 -6,7 -7,11 -1,2 -1,4 -2,6 -1,5 -2,8 -10,12 -6,2 -7,5 -9,10 -1,2 -2,5 -4,8 0,1 -1,2 -2,3 -1,1 -2,2 -2,4 -1,3 -1,7 -1,11 0,1 1,2 0,3 0,1 -1,1 -1,1 0,1 -1,2 -1,2l0 1c-2,8 -5,14 -9,20 -2,5 -4,9 -6,14 -2,5 -2,10 -3,16 0,5 -1,10 -2,15 0,2 -1,3 -1,4 -2,4 -2,6 -2,11 1,11 1,21 0,31 0,11 0,19 1,27 1,-1 2,-2 2,-3 1,-2 2,-3 3,-4 0,0 0,-1 0,-1 0,-1 1,-1 2,-2 0,0 1,-1 1,-1 3,-3 6,-4 8,-6l3 -3c1,-1 2,-1 3,-1 1,1 2,1 2,2 1,5 -1,11 -4,17 -2,4 -5,10 -3,12 1,1 4,0 7,0 4,0 7,0 10,1 4,1 9,3 14,6 1,1 2,2 4,3 1,1 2,3 3,3 0,0 1,-1 1,-4 1,-5 2,-6 5,-8 1,-1 2,-1 3,-2 1,-1 1,-1 2,-1 0,0 1,-1 1,-1 0,0 0,0 0,0 -1,-1 -1,-2 0,-3 0,-1 1,-2 2,-2 4,0 7,3 9,7 0,-1 1,-2 2,-2 4,-4 7,-5 14,1 3,3 9,9 9,15 0,0 0,1 0,1 3,1 7,1 10,1 7,1 15,2 24,5 0,1 1,1 2,2 5,2 7,2 8,1 1,-1 1,-2 1,-5 0,-2 0,-5 2,-7 3,-3 9,-3 14,-2 3,0 5,0 6,0 5,-1 10,-4 15,-7 1,-1 3,-2 5,-3l1 0c5,-3 7,-4 12,-3 2,0 3,0 4,1 1,0 2,1 3,1 1,0 1,0 2,0z"/>
   <path class="fil0" d="M1385 1007c0,-2 1,-5 0,-7 0,-2 1,-3 2,-3 4,-2 3,-5 1,-12l-1 -2c0,-1 0,-2 -1,-3 0,-3 -1,-3 -4,-6 0,0 -1,-1 -2,-1 -3,-3 -6,-5 -7,-10 -1,-5 -1,-9 0,-14 0,-1 0,-3 0,-5 0,-1 0,-2 0,-3 0,-4 0,-7 1,-11 0,-1 1,-2 2,-2 1,0 2,0 3,1 0,0 0,0 0,0 1,0 1,0 1,-1 0,-1 -2,-1 -3,-1 0,0 -1,-1 -2,-2 0,0 0,-1 0,-2 0,-1 1,-3 2,-5 1,-1 2,-3 3,-5 -2,1 -4,1 -6,1 -2,-1 -3,-1 -4,-2 -1,0 -2,0 -3,-1 -3,0 -4,0 -8,3l-1 0c-2,1 -4,2 -6,3 -5,3 -10,6 -16,7 -2,1 -4,1 -7,0 -3,0 -9,0 -10,1 0,0 0,2 0,3 0,2 0,6 -3,9 -2,2 -4,3 -6,3 -3,0 -6,-2 -8,-3 -1,-1 -2,-1 -3,-1 -7,-4 -14,-4 -22,-5 -4,0 -9,-1 -14,-2 -1,0 -2,-1 -2,-2 0,-1 0,-2 1,-2 0,-1 0,-1 0,-2 0,-3 -3,-7 -7,-11 -4,-3 -4,-3 -5,-3 0,0 0,1 -1,2 -1,1 -4,3 -8,4 0,1 -1,0 -2,0 -1,0 -1,-1 -1,-2 0,-1 -1,-2 -1,-3 -1,1 -2,2 -3,3 -1,0 -1,0 -2,1 -1,0 -2,1 -3,2 -1,0 -1,0 -2,4 -1,4 -2,7 -5,8 -3,2 -6,-1 -9,-3 -1,-1 -2,-2 -4,-3 -3,-2 -8,-5 -12,-6 -2,-1 -5,0 -7,0 -5,0 -9,0 -12,-2 -5,-4 -2,-12 2,-19 1,-2 2,-4 2,-6 -1,1 -3,3 -5,4l0 0c0,1 0,1 0,1 1,3 -1,6 -3,8 -1,0 -1,1 -2,2 -1,3 -3,9 -4,15 0,2 0,4 -1,6 -1,4 -2,8 -4,11 -1,2 -2,4 -2,5 -2,5 -4,8 -5,13 -2,5 -3,9 -3,14l-1 2c0,6 -2,11 -4,16 -1,3 -2,6 -3,9 0,1 0,2 -1,3 -1,5 -1,9 -9,12 -2,1 -3,1 -5,1 -2,1 -4,1 -6,2 -9,4 -15,17 -17,23 -1,2 -1,3 -1,5 -1,4 -2,9 -6,13 -4,2 -7,3 -10,3 -2,0 -4,0 -6,1 -1,1 -2,4 -3,6 -1,1 -2,3 -4,5 -1,2 -3,4 -5,7 -4,3 -7,7 -10,12 -2,5 -6,8 -10,12 -4,4 -8,7 -10,13 -2,6 -2,9 -1,15l0 2c0,2 -1,3 -1,4 0,1 -1,2 0,2 0,1 0,1 0,1 1,1 2,2 3,3 2,7 -1,18 -5,25 1,1 2,2 4,2l2 1c4,1 10,3 12,7 2,4 0,6 -1,8 0,0 0,1 -1,1 2,1 5,1 7,2 3,0 5,1 8,2 5,2 9,5 14,9l1 1c6,4 9,5 15,7l4 1c4,1 8,3 11,5 2,2 5,3 7,4 2,1 4,1 7,2 6,1 12,2 15,5 0,1 2,4 4,6l0 0c3,0 4,0 5,-1 0,0 -1,-1 -1,-2 0,-2 -1,-4 0,-7 2,-3 4,-3 6,-3 0,0 0,0 1,-1 3,-2 5,-6 8,-9 4,-6 9,-12 16,-15 5,-3 11,-4 18,-5 3,0 7,-1 10,-2 0,0 1,0 2,0 1,-1 3,-2 4,-2 2,1 4,2 4,3 1,0 1,0 1,0 1,0 3,-1 5,-2 1,-2 3,-3 4,-4 5,-2 7,-2 11,-2l2 1c3,0 5,-1 9,-1 2,-1 4,-1 7,-1l5 -1c8,0 17,-1 24,1 2,1 3,2 5,3 1,1 2,2 3,2 2,0 7,-4 8,-5 2,-2 2,-3 2,-3 2,-3 2,-4 7,-6l1 0c5,-3 7,-4 8,-9 0,-1 -1,-2 -1,-3 0,-1 -1,-3 -1,-4 1,-2 1,-4 2,-5 0,0 0,-1 0,-2 1,-4 0,-5 -2,-6 -3,-1 -6,-2 -8,-6 -1,-1 0,-2 0,-3 3,-2 5,-4 8,-6 3,-2 6,-5 8,-7 2,-4 2,-4 -1,-6 0,-1 -1,-1 -1,-2 -3,-4 -4,-8 -6,-12 -2,-4 -4,-9 -7,-13 -1,0 -1,-1 -1,-2 0,-1 1,-2 1,-2 1,-1 3,-2 4,-2 2,-1 4,-2 5,-4 0,0 0,-1 0,-3 0,-1 -1,-3 0,-5 2,-6 14,-9 17,-10 1,0 1,0 2,0 6,-2 8,-2 7,-7 -1,-4 -5,-11 -6,-11 -1,0 -2,-1 -3,-2 0,-1 0,-2 1,-3 1,-3 4,-9 5,-12 1,-1 0,-3 0,-4 0,-1 0,-3 1,-5 2,-2 4,-3 8,-3 0,0 0,0 0,0 2,0 3,0 3,1 1,0 1,0 1,0 0,0 0,-1 0,-1 1,-1 1,-1 0,-3 -1,-1 -2,-3 -2,-6 0,0 0,-1 0,-1 0,-2 2,-3 3,-3 1,0 2,0 3,0 2,0 5,0 8,2 1,2 1,4 1,5 0,0 0,0 0,0 0,0 1,0 1,0 2,0 5,0 7,2 0,1 1,3 1,4 1,0 3,0 5,0z"/>
   <path class="fil0" d="M1443 1376c7,-6 14,-7 22,-8 3,0 6,-1 9,-1 4,-1 6,-3 9,-5l2 -1c4,-2 8,-2 12,-3 2,0 4,0 6,-1 2,0 3,-1 5,-1 2,-1 5,-2 8,-2 3,0 5,1 7,2 1,1 2,1 4,1 6,1 11,-2 16,-6 4,-2 7,-4 12,-6 2,0 4,-1 6,-1 4,-1 4,-1 4,-6l0 -2c0,-4 -1,-8 2,-12 1,-2 2,-3 3,-4 2,-2 3,-3 3,-4 0,-1 0,-2 0,-4 0,-2 0,-5 2,-8 2,-2 4,-3 6,-4 1,-1 2,-1 3,-2 1,-1 2,-2 3,-3 1,-2 3,-4 5,-5 0,0 0,0 -1,-1 -1,-1 -2,-2 -2,-3 -2,-5 1,-14 3,-17 2,-4 11,-8 17,-6 1,0 2,0 3,1 2,-2 2,-5 3,-8 1,-4 2,-8 4,-11 2,-2 3,-3 5,-4 2,-1 3,-3 4,-4 0,0 -1,-1 -1,-2 -1,-1 -2,-2 -2,-4 0,-3 0,-6 1,-9l1 -3c1,-4 1,-6 0,-8 0,1 -1,1 -1,2 -1,0 -1,0 -2,0 -1,0 -2,0 -2,-1 -2,-3 -3,-6 -2,-9 1,-3 4,-4 7,-5 1,0 2,0 3,-1 0,0 0,0 0,0l-1 -1c0,-11 -2,-13 -2,-13 -1,0 -2,0 -2,0 -1,0 -2,-1 -2,-2 -5,-12 8,-17 15,-20 0,-1 1,-1 1,-1 0,-1 0,-2 1,-3 6,-4 11,-4 16,-4 1,0 2,0 4,0 2,1 6,1 7,0 0,0 0,-1 0,-2 -1,-2 -2,-2 -4,-3 -2,-1 -4,-1 -6,-3 -2,-2 -2,-4 -3,-7 0,-1 0,-2 0,-2 -1,0 -2,0 -3,-1 0,0 -1,-1 -1,-2 1,-4 2,-12 0,-19 0,-1 1,-2 2,-3 1,-4 5,-7 9,-9 1,-1 2,-1 2,-2 1,0 1,0 1,0 0,0 0,-1 0,-2 0,-1 0,-3 2,-5 1,-2 3,-2 4,-3 1,0 1,0 2,-1 0,0 0,-1 1,-2 0,0 1,-2 2,-3 0,-1 1,-2 2,-3 1,0 3,-2 3,-2l0 0c0,0 0,-1 -1,-1 -1,-1 -1,-3 0,-4 1,-1 2,-1 3,-1 1,-1 0,-2 0,-2 0,-4 -10,-11 -25,-17 -5,-3 -19,-7 -22,-6 0,0 -1,1 -1,1 -1,2 -3,4 -6,5 -2,1 -9,1 -12,-1 -1,-2 -2,-4 -3,-8 0,-1 0,-2 -1,-2 -1,-3 -3,-6 -5,-8 -1,-1 -1,-2 -2,-3 -3,-5 -5,-7 -9,-8 -5,0 -8,-1 -11,-3 -3,-1 -6,-2 -11,-3 -2,0 -4,0 -6,0 -7,0 -13,-1 -19,-8 -2,-3 -3,-3 -5,-4 -1,0 -3,0 -6,-2 -1,0 -2,-2 -3,-3 -1,-1 -1,-1 -2,-2 -6,-2 -11,-3 -13,-2 0,0 0,1 0,4 0,1 0,2 0,3 0,1 -1,2 -2,3 -1,0 -2,0 -3,-1 -1,0 -2,1 -4,0 -3,0 -4,-1 -5,-2 0,0 0,-1 -1,-1 -3,-3 -6,-2 -11,-2l0 1c-2,0 -3,-1 -3,-2 -1,0 -1,-1 -1,-2 1,-2 0,-3 0,-5 -1,-3 -2,-6 0,-9 1,-1 2,-2 3,-2 1,0 2,0 3,1 0,-1 0,-2 0,-3l0 0c0,0 0,0 -1,0 -2,-1 -7,-1 -11,-1 -3,0 -5,0 -8,0 -4,-1 -5,-1 -7,1 -1,0 -2,1 -3,1 -2,1 -4,2 -6,2 -2,0 -4,1 -5,1 -1,1 -1,1 -2,1 0,1 0,1 -1,3 -4,7 -8,8 -13,10 -1,1 -2,1 -4,2 -6,3 -11,7 -16,11 -4,4 -10,6 -16,7 -5,2 -11,4 -14,7 0,1 -1,1 -2,1 0,1 -1,1 -1,1 -1,0 -1,0 -1,0 -2,-1 -3,-2 -2,-4 1,-3 1,-7 1,-9 -1,0 -1,-1 -2,-1 0,0 -1,0 -1,0 -1,0 -2,1 -3,1 -2,0 -3,-1 -4,-2 0,-1 0,-2 0,-3 0,-1 0,-2 0,-2 -1,0 -2,0 -3,0 -1,0 -3,0 -4,-2 -2,-1 -2,-3 -2,-5 0,0 0,0 0,0 0,0 -1,0 -3,0l0 0c0,0 0,1 1,2 1,1 2,5 0,8 -2,5 -6,4 -7,3 -1,0 -1,0 -2,0 -2,0 -3,0 -3,1 0,0 0,0 0,0 0,2 1,4 0,7 -1,3 -3,7 -5,11 4,3 7,11 8,14 1,11 -6,12 -12,13l-2 1c-5,1 -12,4 -13,6 0,1 0,1 1,2 0,2 1,4 -1,7 -2,3 -5,5 -7,6 0,0 0,0 -1,0 3,4 5,8 6,12 2,4 3,7 5,10 1,1 2,2 2,2 3,4 4,7 0,13 -2,3 -6,6 -9,8 -1,2 -3,3 -4,4 1,1 2,1 3,2 3,1 8,3 6,12 0,1 -1,3 -1,4 0,0 -1,1 -1,2 0,0 0,1 1,2 0,2 1,4 0,6 -1,8 -6,10 -10,13l-2 0c-3,2 -3,2 -3,3 -1,1 -1,2 -3,4 -1,2 -9,8 -13,8 0,0 -1,0 -1,0 -3,0 -5,-2 -6,-4 -1,0 -2,-1 -3,-1 -6,-2 -14,-1 -22,-1l-4 0c-3,1 -5,1 -7,1 -4,1 -7,1 -11,1l-2 0c-3,0 -4,0 -7,1 -1,1 -3,2 -4,3 -2,2 -5,4 -9,4 -1,0 -3,-1 -4,-2 0,0 0,-1 0,-1 -1,0 -2,1 -2,1 -1,0 -2,1 -3,1 -3,1 -7,1 -11,2 -5,1 -11,2 -16,4 -6,2 -10,7 -14,13 -2,4 -5,8 -9,11 -2,1 -3,1 -4,1 0,0 0,0 -1,1 0,0 1,2 1,2 0,2 1,4 0,6 -2,4 -6,5 -9,5 0,2 -1,4 -2,6 -1,1 -2,2 -2,4 -1,2 0,4 0,7l0 0c1,0 3,-1 5,-1 1,-1 2,-1 3,-2 2,0 3,-1 4,-2 2,-1 3,-2 5,-3 4,-1 5,-1 7,0 2,1 3,1 4,2 1,1 1,1 2,1 3,1 5,1 7,1 2,-1 3,-1 4,-1 2,0 4,0 6,0 12,-1 28,-2 36,6 3,3 3,7 3,9 0,2 0,3 0,5 1,1 1,2 2,2 0,0 1,-1 1,-2 1,-1 1,-2 2,-2 1,0 1,0 2,0 3,1 5,5 6,8 0,1 1,3 1,4 0,-1 1,-4 1,-12 0,-1 1,-2 2,-2 4,-2 8,-2 13,-1 3,0 6,0 8,0 3,0 5,-1 7,-1 3,-1 6,-1 9,-2 1,1 2,0 3,1 1,0 2,0 3,0 1,0 1,-1 2,-2 1,0 1,-1 3,-2 2,-1 4,0 7,0 2,0 5,0 6,0 0,-1 0,-2 2,-2 1,-1 2,0 3,1 1,1 3,3 5,5 2,2 5,5 7,7 1,3 1,5 1,7 0,1 1,2 1,3 0,0 0,5 0,7 0,0 1,0 2,1 1,0 3,0 5,2 1,2 0,4 -1,7 -1,2 -2,4 -3,6l-1 0c1,1 2,1 2,1 2,2 2,5 2,7 0,1 0,2 1,3 0,5 3,7 7,10 2,1 5,2 8,3 3,1 6,2 9,4 7,5 5,9 2,12l-1 2c-3,4 -4,7 -4,12 1,1 1,2 1,3 0,2 1,5 0,8 0,2 -1,3 -2,4 -1,1 -1,1 -1,2 0,0 2,5 2,6 0,0 0,0 0,0 1,0 3,0 5,1 4,2 7,6 8,10 0,2 0,4 -2,6 2,2 3,4 4,7 4,0 8,-1 12,-2 2,-1 4,-1 6,-2 1,0 3,0 4,0 1,0 1,0 1,0 0,0 1,-1 1,-2 0,-2 0,-6 4,-7 3,0 5,1 6,2 0,0 1,0 1,0 2,0 3,-1 4,-2 1,0 2,-1 3,-1 4,-3 9,-5 14,-6 3,-1 5,-2 8,-3l1 -1c3,-1 4,-1 8,0l0 0z"/>
   <path class="fil0" d="M1443 1384c-1,0 -2,-1 -2,-1 -1,0 -1,-1 -1,-2 0,0 -1,0 -1,0 0,0 -1,0 -2,1l-1 0c-2,1 -5,2 -8,3 -5,2 -9,3 -13,6 -1,0 -2,1 -3,1 -1,1 -3,3 -7,3 -1,0 -3,-1 -4,-1 0,-1 -1,-1 -1,-1 0,0 -1,1 -1,2 0,1 0,4 -2,6 -3,2 -5,1 -6,1 -1,0 -2,0 -2,0 -2,0 -4,1 -6,1 -5,2 -10,3 -17,2 -1,0 -2,-1 -2,-3 0,-2 -1,-5 -3,-6 -1,-1 -2,-1 -2,-2 0,-1 1,-2 1,-3 2,-1 2,-2 2,-3 0,-2 -2,-5 -5,-6 0,0 0,0 -1,0 -1,1 -3,1 -5,-2 -2,-2 -4,-9 -4,-11 0,-2 1,-3 2,-4 1,-1 1,-2 1,-2 1,-2 1,-4 0,-6 0,-1 0,-3 0,-4 -1,-6 1,-10 4,-15l1 -2c1,-1 2,-2 2,-2l0 0c0,0 -1,-1 -3,-2 -2,-2 -4,-3 -7,-4 -3,-1 -6,-2 -9,-3 -4,-3 -9,-6 -10,-14 0,-1 0,-2 -1,-4 0,0 0,-1 0,-2l0 0c0,1 -1,1 -3,0 0,0 0,0 0,0 -2,0 -3,-1 -2,-3 0,-3 2,-5 3,-7 1,-1 2,-2 3,-4 0,-1 0,-1 0,-2 -1,0 -4,0 -6,-3 -1,-1 -1,-4 -1,-10 0,-1 0,-2 0,-2 0,-2 -1,-4 -1,-5 -1,-2 -4,-4 -6,-6 -1,-1 -3,-2 -4,-3 -2,1 -6,1 -9,1 -1,-1 -3,-1 -4,0 0,0 -1,0 -1,0 -1,1 -2,3 -5,3 -2,1 -3,1 -5,0 0,0 -1,0 -2,0 -2,0 -5,1 -8,2 -2,0 -4,0 -7,1 -3,0 -6,0 -10,0 -3,-1 -6,-1 -8,0 0,10 -2,12 -4,14 -1,1 -3,1 -5,0 -3,0 -4,-4 -5,-7 0,-1 0,-2 -1,-2 -1,1 -2,1 -4,1 0,0 0,0 0,0 -3,0 -6,-2 -7,-5 -1,-3 -1,-5 -1,-7 0,-3 0,-4 -1,-5 -7,-6 -22,-5 -32,-4 -2,0 -4,0 -6,0 -1,0 -2,0 -3,0 -3,0 -6,1 -9,0 -2,0 -3,-1 -4,-2 -1,0 -2,-1 -2,-1 -1,0 -2,-1 -2,-1 -1,0 -1,0 -2,1 -1,0 -2,1 -4,2 -1,1 -3,2 -5,2 -1,1 -2,2 -4,2 -3,1 -4,1 -5,5 0,1 1,3 1,4l0 2c0,0 0,1 0,2 -1,0 -1,1 -1,1 -2,1 -5,3 -10,5 -2,0 -4,1 -5,2 -2,1 -3,3 -4,5 -1,2 -2,3 -4,5 -1,2 -4,3 -6,4 -1,1 -3,2 -4,4 -1,1 -1,2 -1,4 0,1 -1,2 -1,4 -2,4 -5,6 -8,7 -2,1 -3,2 -4,3 -1,2 0,5 0,7 1,4 1,9 -1,13 -2,2 -3,2 -4,2 -1,1 -1,1 -1,1 0,1 0,1 0,2 1,1 2,3 0,6 -1,2 -3,4 -5,6 -1,0 -2,1 -3,1 0,1 -1,2 -1,3 -2,2 -3,4 -4,5 -4,4 -8,7 -13,9 -3,2 -6,4 -9,7 -3,2 -6,4 -9,7 3,0 5,0 7,1 5,0 9,1 13,1 4,0 7,-1 10,-1 10,-1 19,-2 31,1l5 2c8,2 16,4 24,7 10,5 18,4 29,4l2 0c2,0 3,0 4,0 8,0 15,0 22,4 5,3 7,8 9,13 1,2 2,4 4,6 4,7 6,11 7,19 0,3 0,5 0,7 0,5 0,9 2,12 1,2 2,4 3,5 3,3 5,6 6,11 1,2 1,4 1,6 0,3 0,4 2,6 1,0 6,0 9,0 3,0 5,0 7,0l3 0c4,0 8,0 12,0 3,1 7,2 8,5 1,4 -1,7 -4,10 0,1 -1,2 -1,2 1,0 2,0 4,0 3,0 6,0 9,1 3,1 4,3 5,4 0,1 1,2 1,2 0,0 1,0 2,0 1,0 3,0 4,1l0 0c1,0 1,-1 1,-1 0,0 0,-1 0,-2 0,-1 0,-3 1,-5 2,-5 7,-7 11,-8 4,-1 7,-3 8,-5 0,0 0,0 0,0 0,-1 0,-3 1,-4 3,-3 6,-5 8,-6l1 0c2,-1 3,-2 5,-2 1,-1 3,-2 4,-2 4,-2 6,-4 9,-7l3 -3c3,-3 6,-5 9,-7 2,-2 4,-3 6,-4 4,-4 8,-4 12,-4 2,0 4,0 7,-1 1,-1 2,-2 3,-4 2,-2 3,-4 7,-5 2,-1 7,-1 13,0 3,0 5,0 6,0 5,0 8,3 9,5 2,2 2,3 5,3 2,0 3,-2 3,-3 1,-1 1,-2 1,-3 -1,0 -1,0 -2,0 -1,0 -2,0 -2,-1 -1,-1 -1,-2 -1,-3 5,-12 17,-16 27,-18 5,-1 12,-3 15,-4 -3,0 -8,1 -10,2 -2,0 -3,0 -3,1 -1,0 -2,-1 -3,-1 0,-1 -1,-1 -1,-2 0,-1 0,-2 0,-3 0,-3 0,-7 3,-10 1,-1 2,-2 4,-2 1,-1 2,-1 3,-2 0,0 1,-1 2,-1 1,-1 3,-2 5,-3 1,-1 3,-1 5,-2 6,-1 9,-2 9,-5 -1,-2 -5,-2 -11,-1 -4,0 -8,1 -10,0 -2,-1 -4,-2 -5,-3 -1,0 -1,-1 -2,-1 0,1 -1,1 -1,1z"/>
   <path class="fil0" d="M1465 1399c2,-1 3,-1 5,-1 3,0 5,0 8,0 1,0 2,0 3,1 0,1 0,2 0,2 0,1 0,2 -1,3 1,-1 2,-2 3,-3 4,-3 8,-6 15,-6 1,0 3,1 3,3 0,2 0,3 -1,4 3,0 7,0 10,-1 1,0 2,-1 4,-2 1,-1 3,-3 6,-3 1,-1 3,0 5,1 1,0 3,1 3,1 3,0 5,0 8,-1 1,0 2,0 3,0 6,0 13,0 20,0l2 0c6,1 19,2 23,-3 2,-1 2,-2 2,-4 0,-1 0,-2 0,-4 1,-5 4,-8 7,-11l1 -2c1,-1 2,-3 2,-4 1,-2 2,-4 3,-5 4,-4 7,-2 10,-3 2,-1 5,-3 7,-5 3,-2 6,-4 9,-6 2,0 3,-1 4,-1 0,0 1,0 1,-1 1,-2 0,-10 -1,-13 0,-1 -1,-2 -2,-4 0,-1 -1,-2 -2,-4 0,-4 2,-6 4,-8 0,0 0,0 0,0 -2,-1 -6,0 -9,0 -5,1 -11,2 -17,-1 -1,-1 -2,-2 -2,-3 0,0 -1,-1 -1,-1 0,0 -2,0 -2,0 -2,0 -4,0 -6,-2 -2,-2 -2,-7 -2,-12 -1,1 -2,2 -3,3 -1,1 -2,1 -3,2 -2,1 -3,1 -4,2 -1,2 -1,3 -1,5 0,2 0,4 -1,6 0,3 -2,4 -4,6 -1,1 -2,1 -2,3 -2,2 -2,5 -2,9l0 1c1,10 -2,12 -8,13 -2,0 -4,0 -6,1 -3,1 -6,3 -10,5 -6,4 -12,8 -20,7 -2,0 -4,-1 -6,-2 -1,-1 -3,-1 -5,-1 -2,0 -3,1 -6,1 -1,1 -3,2 -4,2 -3,0 -5,1 -8,1 -3,0 -6,0 -9,2l-2 1c-3,2 -6,4 -11,5 -3,1 -6,1 -9,2 -7,1 -13,1 -17,5 0,0 0,0 1,1 1,0 1,1 2,1 2,1 5,0 8,0 6,-1 16,-2 17,6 1,8 -6,10 -12,12z"/>
   <path class="fil0" d="M1694 1179c-1,-1 -1,-1 -2,-2 0,-1 0,-1 0,-1 -1,-1 -2,-2 -3,-2 -2,-1 -3,-2 -5,-3 -2,-2 -3,-3 -5,-5 -3,-4 -6,-7 -10,-7 0,0 -1,0 -1,0 -3,1 -6,0 -9,0 -1,0 -3,0 -4,0 -4,0 -7,0 -10,2 1,0 1,0 1,1 0,1 -1,2 -2,2 -1,1 -2,1 -4,2 -8,4 -13,6 -12,11 1,0 1,0 2,1 4,2 5,9 5,17 1,0 2,0 2,1 1,1 1,2 0,3 -2,3 -5,4 -8,5 -1,0 -1,0 -1,0 7,5 6,10 5,16l-1 3c-1,3 -1,5 -1,7 0,1 0,1 1,2 1,2 2,4 1,6 0,3 -3,6 -6,7 -1,1 -2,2 -3,3 -1,3 -2,6 -3,9 -2,6 -3,11 -7,14 -1,1 -2,1 -3,1 -1,-1 -2,-2 -2,-3 0,0 0,-1 -1,-1 -4,-1 -10,2 -11,4 -2,2 -4,9 -3,12 0,0 1,1 2,1 1,2 2,3 3,5 0,2 -1,3 -2,4 0,0 -1,0 -1,0l0 0c0,1 0,2 0,4 0,3 -1,9 0,10 0,0 1,0 2,0 2,0 4,0 5,1 1,1 2,2 3,3 0,0 0,1 0,1 4,2 8,1 13,1 5,-1 10,-2 15,0 2,-1 4,-4 3,-7 -1,-1 -1,-3 1,-4 3,-1 6,-3 8,-5 4,-3 6,-6 8,-9 1,-1 1,-2 2,-4 2,-2 4,-3 5,-4 1,0 2,0 2,-1 2,-2 2,-5 2,-8 1,-2 1,-4 1,-6 4,-9 9,-17 15,-24 5,-6 10,-12 13,-19 2,-7 1,-11 -1,-17 -1,-1 -1,-3 -2,-4 -2,-6 0,-10 1,-14 1,-2 2,-4 2,-6 0,-1 0,-2 0,-3z"/>
   <path class="fil0" d="M1729 934c0,0 0,-1 0,-2 1,-2 2,-4 2,-7 2,-5 4,-11 8,-14 4,-3 8,-2 10,-1 2,0 4,1 5,1 2,-1 5,-2 7,-4 2,-1 4,-2 5,-2 5,-2 5,-3 6,-8 0,-1 1,-2 1,-3 4,-12 11,-23 19,-33 5,-6 9,-12 13,-19 -3,2 -6,3 -9,3 -1,0 -1,0 -2,0 -6,-1 -10,-5 -14,-12 -1,-1 -1,-2 -2,-3 -8,-17 -10,-22 -8,-25 2,-4 7,-3 11,-2 1,1 3,1 4,1 2,0 2,0 2,-4 0,-2 0,-4 0,-6 1,-1 1,-3 1,-5 1,-6 3,-15 0,-19 0,-1 -1,-1 -3,-2 -2,-1 -5,-1 -7,-4 -3,-3 -2,-7 -2,-11 0,-1 0,-4 0,-5 0,0 -1,0 -3,0 -1,0 -2,0 -2,-1 -1,-1 -1,-2 -1,-3 1,-1 1,-2 1,-4 -1,0 -1,-1 -1,-2 0,0 0,0 0,0 -1,-3 -2,-6 -4,-8 -3,-5 -6,-7 -10,-10l-3 -2c-8,-5 -17,-11 -25,-13 -5,-2 -18,-3 -23,0 -4,1 -10,6 -13,9 -1,1 -2,2 -3,4 -1,2 -2,5 -5,7 -3,2 -5,1 -7,0 -1,0 -1,-1 -2,-1 -4,0 -6,1 -7,6 -1,2 -1,3 -1,4 0,4 -2,5 -6,6 -4,2 -12,1 -16,0 -1,-1 -1,-1 -2,-2 0,-1 0,-2 1,-3 0,0 1,-1 1,-2 2,-3 2,-3 1,-5l0 0c0,0 0,0 0,0 -2,-1 -3,-2 -4,-4 -1,-1 0,-3 0,-4 0,-2 0,-3 0,-4 0,-3 0,-4 -2,-6 -2,-2 -12,-3 -16,-3 -1,0 -2,0 -2,0 -1,0 -1,-1 -2,-1 0,1 0,2 -1,3 -1,2 -6,9 -12,12 1,3 1,5 0,6 -3,8 -19,11 -25,10l-3 0c-3,0 -5,0 -8,1 -1,1 -2,2 -3,2 -3,2 -5,3 -9,4l-2 1c-3,0 -8,2 -11,1 -3,-1 -5,-3 -6,-5 -1,-1 -2,-2 -3,-2 -3,-1 -5,-1 -8,0 -2,1 -5,1 -8,1 -4,-1 -6,-3 -7,-5 0,0 0,-1 0,-1 0,0 0,1 0,1 -1,1 -2,4 -4,5 -2,2 -4,3 -6,4 -2,1 -4,2 -4,2 -1,2 1,4 4,7 2,2 4,4 4,6 1,3 -1,8 -4,14 0,1 -1,3 -1,4 -3,6 -5,10 -10,14 -4,3 -10,7 -15,7 -2,0 -3,-1 -5,-1 -1,0 -2,-1 -4,-1 -1,1 -2,1 -2,2 -1,1 -2,1 -3,2 -3,3 -8,6 -13,8 -3,1 -6,2 -8,2 -5,0 -9,-2 -14,-4 -1,0 -3,-1 -4,-1 -8,-3 -8,-9 -7,-12 0,-3 0,-5 -2,-7 -3,-3 -14,-3 -19,-1l0 1 0 0c1,5 1,8 -4,13 -3,2 -5,3 -8,4 -2,0 -3,1 -5,2 0,0 -1,2 -1,3 -1,2 -1,3 -2,4 -1,2 -2,2 -3,2 -1,2 -1,3 -1,4 0,3 -1,6 -3,8 -1,2 -2,3 -3,4 -2,2 -6,5 -5,6 0,1 4,0 6,0 1,0 3,0 3,0 6,0 11,2 16,4 1,0 1,1 2,2 0,1 -1,2 -1,3l-2 1c-3,2 -4,4 -3,6 0,0 0,1 1,1 2,3 2,6 -1,10 -1,3 -3,4 -4,6 -3,3 -4,5 -3,10 0,0 1,1 1,2 1,1 3,3 3,6 0,1 0,2 0,3 -1,1 -1,2 -1,2 0,4 1,5 2,7 0,1 1,2 1,4 1,1 1,3 1,4 1,1 2,2 2,3 2,4 -1,8 -3,11 0,1 0,1 0,1 2,1 3,3 3,5 1,3 0,6 -3,8 -1,0 -2,0 -3,0 0,2 0,4 0,5 0,2 0,3 0,5 0,1 0,3 0,5 -1,4 -1,8 -1,11 1,4 3,5 6,7 0,0 1,1 2,2 4,3 5,5 6,8 0,1 0,2 1,3l0 2c2,5 5,14 -2,18 0,3 0,7 -2,11 1,1 1,3 1,6 3,-3 7,-4 12,-5 5,-2 10,-3 14,-6 5,-5 10,-9 17,-12 1,-1 2,-2 3,-2 5,-2 8,-3 11,-8 1,-1 1,-2 1,-2 1,-2 1,-2 4,-4 2,-1 4,-1 6,-2 2,0 4,0 5,-1l3 -1c3,-2 5,-3 11,-2 2,0 4,0 7,0 5,0 10,0 14,2 5,2 4,6 3,9 0,1 0,2 0,3 0,0 -1,1 -2,1 -1,1 -2,1 -2,0 -1,0 -1,0 -2,0 0,1 0,2 0,3 1,1 1,3 1,4 4,0 8,0 12,3 1,0 2,1 3,2 0,0 0,0 1,1 0,0 0,0 1,-1 0,0 1,0 1,0 0,-3 0,-6 4,-8 4,-3 13,0 17,2 3,1 4,3 5,4 0,1 0,1 1,1 2,1 3,1 4,2 3,0 5,1 9,5 4,6 8,6 14,6 2,0 4,0 6,1 6,0 10,2 13,3 3,1 5,2 9,2 8,1 11,6 14,11 1,1 1,2 2,3 1,1 3,4 6,8 0,0 0,0 0,1 0,0 0,1 1,2 0,2 1,5 1,6 1,0 5,0 7,0 0,-1 1,-2 2,-3 1,-1 2,-3 3,-3 6,-3 23,3 28,5 12,6 27,14 28,22 0,2 0,5 -2,7 0,1 0,1 0,2 0,3 -3,5 -5,7 -1,0 -1,1 -2,2 0,0 0,1 -1,1 0,2 -1,3 -2,5 -1,1 -3,1 -4,2 -1,0 -1,0 -2,1 0,0 0,1 0,2 0,1 0,3 -1,4 -1,2 -2,2 -3,3 -1,0 -2,0 -2,1 -5,3 -7,4 -7,8 0,0 0,0 -1,1 1,5 1,10 0,15 1,0 1,0 1,0 3,2 3,4 3,6 0,2 1,3 1,4 1,0 2,1 3,1 3,1 8,2 9,8 0,2 0,3 -1,4 5,1 8,5 11,8 2,2 3,3 5,4 1,1 2,2 4,3l0 0c2,-7 6,-12 11,-17 1,-2 2,-3 4,-5 2,-2 4,-5 6,-7 2,-1 3,-1 4,-1 1,-1 3,-1 3,-1 0,0 -1,-2 -2,-3 -1,-2 -2,-4 -2,-5 -1,-5 0,-11 1,-16 0,-2 1,-4 1,-6 0,-4 1,-6 2,-9 1,-1 1,-2 2,-3 1,-4 2,-9 2,-14 0,-2 0,-5 0,-9 1,-4 3,-8 5,-12l1 -1c2,-5 2,-8 1,-14l0 -2c-2,-9 -2,-18 -2,-27l0 -5c0,-1 0,-3 -1,-5 0,-2 0,-3 0,-5 -1,-5 0,-10 1,-15 1,-3 1,-7 1,-10 0,-7 0,-12 -4,-17 0,-2 -1,-2 -1,-2 -2,-2 -1,-3 -1,-6l0 -1c1,-2 2,-3 3,-5 0,-1 1,-3 1,-4 1,-2 1,-4 1,-5 0,-1 0,-2 0,-3z"/>
   <path class="fil0" d="M1855 786l1 0c2,-1 4,-1 5,-2 2,-1 2,-2 2,-4 0,-2 0,-5 2,-8 2,-2 4,-2 5,-3 2,-1 3,-2 4,-3 2,-1 2,-3 3,-5 2,-3 4,-7 6,-9 2,-2 5,-4 7,-6 4,-4 9,-8 11,-12 1,-2 1,-5 2,-8 2,-5 3,-11 7,-14 0,0 0,-1 -1,-1 -2,0 -5,0 -8,0 -3,1 -6,1 -9,0 -2,0 -4,-1 -5,-2 -1,0 -2,-1 -2,-1 -2,0 -5,1 -8,2 0,0 -1,1 -1,1 0,1 0,2 0,3 -3,8 -18,17 -21,18 -3,1 -6,1 -9,1 -2,0 -4,0 -6,0 -1,0 -3,0 -4,0 -2,-1 -4,0 -6,0 -6,0 -12,0 -17,-3 -3,-2 -5,-5 -7,-7 -4,-5 -8,-9 -15,-7 -2,0 -2,1 -3,3 -1,1 -2,3 -3,4 -2,3 -6,4 -9,5 -1,1 -2,1 -3,1 1,2 2,4 3,7 4,1 8,3 11,6 3,2 5,3 7,4 2,1 5,3 7,5 2,1 4,3 6,3 1,1 3,1 4,0 2,0 4,0 6,1 5,1 8,5 11,8 1,2 3,4 5,6 1,1 3,2 6,4 8,4 14,8 16,13z"/>
   <path class="fil0" d="M1849 790c0,-1 1,-2 1,-2 -2,-3 -10,-8 -14,-10 -3,-2 -5,-4 -7,-5 -2,-1 -4,-4 -6,-6 -2,-3 -4,-6 -7,-7 -1,0 -3,0 -4,0 -2,0 -4,1 -7,0 -2,-1 -5,-3 -7,-5 -3,-1 -4,-3 -6,-3 -3,-2 -6,-4 -8,-5 -2,-1 -3,-2 -4,-3 0,0 0,0 0,0 2,3 2,6 2,10 0,2 -1,5 0,7 1,0 2,1 4,1 3,1 6,2 8,5 3,6 1,16 0,23 0,2 -1,4 -1,5 0,2 0,3 0,5 0,4 0,8 -7,10 -2,0 -4,0 -7,-1 -1,0 -3,-1 -4,-1 1,4 6,15 8,19 1,2 2,3 2,4 3,5 6,8 10,8 0,0 0,0 1,0 7,0 16,-7 27,-21 1,-1 2,-2 3,-4 2,-2 4,-5 6,-7 2,-1 3,-1 3,-2 3,-1 4,-2 5,-4 1,-1 1,-2 2,-3 0,-2 1,-3 4,-6 1,0 1,-1 2,-1 1,-1 1,-1 1,-1z"/>
   <path class="fil0" d="M1590 422c-1,-1 -2,-2 -2,-3 0,-1 1,-2 2,-3 0,0 -1,-1 -1,-1 -3,-3 -10,-2 -16,-2 -4,0 -8,0 -12,0 -8,-1 -18,-3 -26,-9 -5,-5 -7,-5 -15,-4 -2,1 -5,2 -8,2 -3,1 -6,2 -10,3 0,0 -1,0 -2,0 -2,0 -4,0 -5,1 0,0 -1,2 -2,3 -1,2 -2,4 -4,5 -4,2 -7,1 -9,0 -2,-1 -3,-2 -5,-1 -1,1 -3,3 -4,5 -2,2 -3,4 -5,5 -2,2 -4,3 -7,4 -1,1 -2,2 -3,3 -1,0 -3,0 -4,0 -1,-1 -1,-2 -1,-4 1,-2 0,-5 0,-8 -1,-2 -1,-5 -1,-8 1,-5 5,-8 9,-10 2,-1 4,-2 5,-4 2,-4 0,-8 -4,-13 -1,-1 -1,-1 -2,-2 -2,-3 -3,-5 -3,-7 0,-1 0,-2 -1,-3 -1,-2 -1,-2 -3,-3 -1,-1 -2,-2 -3,-3 -2,-2 -3,-3 -4,-5 -2,-2 -3,-4 -8,-5 -1,0 -2,0 -4,0 -2,-1 -4,-1 -6,-2 -3,-1 -4,-3 -5,-5 0,-1 -1,-1 -1,-2 -4,-3 -12,-4 -18,-5 -2,-1 -4,-1 -6,-1 -4,-1 -9,-3 -13,-2 1,3 0,8 -1,12l-1 4c-1,2 -2,4 -4,6 -2,1 -3,2 -4,2 -1,0 -2,1 -3,1 0,0 0,0 0,0 1,0 1,0 1,1 1,0 3,1 4,1 0,0 1,-1 1,-1 2,-1 3,0 4,1 2,5 -1,7 -2,8 0,0 -1,1 -1,1 -1,1 -1,2 -1,4 0,1 0,2 -1,3 -1,2 -2,4 -3,6 -1,1 -2,3 -3,4 0,2 -1,4 -1,5 0,3 -1,5 -2,7 -1,2 -2,3 -3,4 -2,1 -2,2 -2,3 -1,1 0,2 0,3 0,1 1,3 0,5 0,1 -2,8 -3,10 -1,2 -3,3 -4,4 -1,1 -3,2 -3,3 -1,1 -2,3 -2,5 -1,3 -2,5 -4,8 -1,1 -2,2 -3,3 -1,0 -2,1 -2,1 -1,2 -2,4 -2,6 -1,2 -1,5 -2,7 -2,4 -5,8 -8,11 -2,2 -4,4 -5,6 -1,2 -2,4 -3,6 -3,5 -6,11 -14,13 -1,1 -4,1 -5,1 -1,0 -2,0 -3,0 -1,1 -2,2 -3,4 -1,1 -1,2 -2,3 -3,4 -7,7 -11,10 -4,2 -7,4 -10,7 0,1 -1,2 -2,4 -1,0 -1,1 -1,2l2 0c2,1 4,1 5,1 0,0 1,0 2,0 2,-1 4,-1 6,-1 3,1 4,2 6,3 0,1 1,1 2,2 2,1 3,1 6,1 1,0 3,0 5,0 6,1 11,4 13,11 5,11 4,25 3,37 0,5 -1,9 -1,14l0 2c0,11 0,21 -8,28 3,2 6,4 7,7 1,2 2,4 3,5 0,1 0,2 1,3 1,2 2,2 3,4 1,0 2,1 3,2 2,2 4,6 6,10 4,8 5,9 8,8 2,-1 3,-2 5,-2 4,-2 9,-5 13,-3 4,2 6,5 7,10 0,1 1,2 1,3 5,11 7,18 4,21 -2,2 -3,2 -5,2 -3,0 -4,-2 -5,-4 0,0 -1,0 -1,-1 -1,0 -1,-1 -1,-2 -1,0 -1,1 -1,1 -2,0 -8,3 -9,3 0,1 0,2 0,3 0,1 0,2 0,3 0,5 -2,9 -4,12 -1,1 -2,2 -3,3 0,0 0,1 -1,1 1,0 2,0 3,1 3,1 6,2 8,5 2,3 3,6 3,9 1,4 1,4 6,4 1,0 3,2 3,3 0,2 0,4 1,6 0,1 1,3 1,6 3,3 5,7 6,11 1,3 2,6 4,7 1,1 2,1 4,1 2,0 3,0 5,0 2,1 3,1 4,2 1,1 2,2 3,2 0,0 0,-1 0,-2 0,-1 -1,-3 -1,-6 0,-2 1,-5 2,-7 1,-3 1,-5 1,-7 0,-2 -1,-4 -2,-6 -1,-2 -2,-5 -2,-8 0,-1 0,-3 0,-4 0,-1 0,-3 0,-4 0,0 0,-1 -1,-1 0,-2 -1,-4 -1,-6 0,-2 2,-5 3,-7 0,-1 1,-2 1,-4 0,-1 1,-2 1,-3 1,-6 1,-10 6,-16 3,-4 4,-7 6,-12 1,-3 1,-6 2,-10 1,-11 2,-24 15,-28 3,-1 7,-2 10,-3 6,-1 12,-3 16,-5 7,-4 14,-10 19,-16 4,-5 11,-12 16,-15 8,-6 19,-1 24,0 10,4 16,2 26,-2l1 -1c6,-2 6,-3 6,-12 0,-2 0,-3 0,-3 0,0 0,0 0,0 0,0 -1,-1 -1,-1 -1,-1 -3,-2 -5,-2 -1,-1 -3,-2 -5,-3 -1,-1 -2,-3 -1,-4 1,-1 1,-1 1,-1 -3,-8 -2,-15 -2,-23l1 -4c0,-4 2,-7 4,-10 1,-1 1,-2 2,-3 3,-5 3,-11 3,-18 0,-2 0,-4 0,-6 0,-4 -1,-7 -2,-10 -1,-2 -2,-4 -3,-7 -1,-6 1,-9 3,-13 1,-1 2,-2 2,-3 1,-3 2,-5 4,-8 3,-8 6,-15 12,-20 2,-1 4,-2 6,-3 2,0 3,-1 5,-2 2,-1 5,-4 7,-6 2,-2 4,-4 6,-6 1,-1 3,-2 4,-3 4,-3 8,-5 9,-10z"/>
   <path class="fil0" d="M1923 593c0,-1 0,-1 -1,-2 -1,0 -2,-1 -3,-1 -2,-1 -4,-2 -6,-5 0,0 0,-1 0,-1l0 -9c0,-1 0,-3 0,-4 1,-2 1,-4 0,-5 0,-1 -1,-2 -2,-3 -2,-1 -4,-3 -4,-7 -2,-3 -1,-7 -1,-10 0,-3 0,-6 -2,-8 0,0 -1,-1 -3,-1 -1,-1 -3,-2 -4,-3 -1,-1 -2,-2 -2,-3 -1,-1 -3,-2 -4,-3 -2,0 -5,0 -7,0l-2 1c-5,0 -9,0 -13,-1 -4,0 -8,0 -12,0 -5,1 -9,1 -14,-1 -1,0 -2,0 -3,0 -3,0 -7,0 -9,-1 -2,-1 -4,-3 -6,-5 -4,-3 -5,-5 -9,-3 -1,1 -2,0 -3,0 -1,0 -3,0 -5,0 -7,1 -9,3 -12,8 -1,2 -2,4 -3,6 -3,3 -4,5 -5,8 0,1 0,2 0,3 0,2 0,5 -2,7 -1,2 -3,4 -5,6 -1,1 -3,2 -4,4 0,2 0,3 -1,4 0,2 -1,5 -3,7 -2,2 -3,4 -5,6 -1,2 -3,3 -4,5 -1,2 -3,4 -4,5 0,0 1,1 2,2 1,0 1,1 1,1 2,1 2,2 2,3 1,0 1,0 2,0 0,0 1,0 1,0 4,1 7,1 10,0 1,-1 3,-3 4,-5 2,-3 3,-5 5,-6 4,-4 20,-11 27,-6 3,2 5,9 5,12 -1,4 -4,6 -7,8 -2,1 -3,2 -4,4 0,0 -1,0 -1,1 0,1 0,2 -1,2 0,0 0,0 0,0 1,1 1,1 1,1 1,0 2,0 4,1 3,1 6,3 9,5 5,-3 12,-6 18,-4 5,3 6,7 6,10 1,-1 1,-2 1,-4 1,-2 1,-4 3,-7 -1,0 -1,0 -1,-1 0,0 0,-2 1,-2 1,-1 2,-2 3,-2 -1,-2 -2,-4 -2,-6 0,-2 1,-4 2,-5 3,-3 7,-1 11,1 1,0 2,0 2,1l2 0c3,1 11,3 14,2 1,-1 2,-1 3,0 0,0 0,0 0,0 2,0 3,-1 5,-2 1,0 2,0 3,-1 4,-1 6,-1 8,1 1,0 2,1 4,1 2,1 5,1 7,1 2,0 4,0 6,0 1,0 2,1 3,1 2,0 2,0 3,0 0,-1 1,-1 1,-1z"/>
   <path class="fil0" d="M1751 650c1,1 1,1 2,2 0,1 0,1 0,1 1,1 3,2 6,2 1,0 1,0 1,0 3,1 9,2 11,1 0,0 1,-1 1,-1 0,-2 0,-3 2,-4 4,-4 9,-6 15,-7 3,0 7,-1 10,-3 1,0 2,-1 3,-2 5,-3 9,-6 18,-4 1,0 2,1 2,2 0,0 2,1 2,2 2,1 6,3 5,7 -1,2 -4,3 -7,3 -1,0 -3,0 -3,1 0,0 0,0 1,2 1,2 3,5 2,8 0,2 -2,4 -3,5 4,1 9,4 8,11 0,1 0,3 -1,4 0,0 0,1 0,1 0,0 0,0 0,1 2,1 6,-3 8,-6 1,-1 2,-2 4,-3 2,-2 4,-2 6,-2 1,0 2,0 3,-1 2,0 3,-1 3,-1 0,-1 0,-3 1,-5 4,-7 15,-9 23,-9 0,0 0,0 0,0 2,0 3,0 4,0 0,0 0,0 2,-1 1,0 2,-1 3,-1 2,-2 4,-3 6,-4 2,-1 4,0 6,0 1,0 3,0 3,-1 2,0 2,-1 2,-1 0,-1 0,-3 1,-5 3,-5 11,-7 16,-6 4,1 6,3 8,5 1,0 1,0 1,1 1,-1 1,-1 2,0 0,-2 1,-4 1,-5 1,-1 1,-2 1,-3 0,-1 0,-2 -1,-3 -1,-2 -2,-5 -1,-8 0,-3 1,-4 2,-5 1,-2 1,-2 1,-5 -1,-3 -2,-3 -6,-5l-1 0c-1,0 -2,-1 -2,-2 0,-1 0,-2 1,-3 1,-1 1,-1 1,-2l0 0c0,0 -1,-1 -1,-1 -2,1 -4,0 -6,-1 0,0 -1,0 -2,0 -1,0 -3,0 -4,0 -4,0 -7,0 -10,-1 -2,-1 -3,-1 -4,-2 -2,-1 -2,-1 -4,0 -1,0 -2,1 -3,1 -2,1 -4,1 -6,2 0,1 -1,2 -3,2l-3 0c-1,0 -2,-1 -3,-2 -3,-1 -7,-1 -11,-2l-1 -1c-1,0 -2,-1 -4,-1 -1,-1 -3,-2 -4,-2 0,0 0,1 0,1 0,2 1,4 2,5 1,1 2,2 1,3 0,1 -1,2 -2,2 0,0 -1,0 -1,1 0,0 0,0 0,0 0,1 -1,2 -2,3 -1,1 -2,2 -2,5 -1,4 -2,9 -8,12 -1,0 -2,0 -3,-1 0,0 -1,-1 -1,-1 0,-2 -1,-4 -1,-5 0,-4 0,-5 -2,-6 -5,-2 -11,1 -15,5 -1,1 -1,1 -2,1 -1,-1 -2,-1 -2,-2 -2,-2 -5,-5 -8,-6 -1,0 -2,-1 -3,-1 -3,0 -5,-1 -5,-6 0,0 0,0 0,0 0,-1 0,-2 0,-2 0,0 1,-1 1,-2 0,-1 0,-2 1,-2l0 0c1,-3 4,-4 6,-6 2,-1 4,-2 4,-4 0,-1 -1,-5 -2,-6 -4,-2 -16,2 -20,5 -1,1 -3,3 -4,5 -2,3 -4,6 -7,7 -4,3 -8,2 -12,1 -1,0 -2,0 -2,0 -1,0 -3,0 -4,-1 -3,-1 -3,-3 -3,-4 0,0 -1,0 -1,-1 -1,0 -2,-2 -3,-2 -2,0 -3,3 -2,9 0,3 1,5 0,7 -1,2 -3,3 -7,6 -1,0 -2,1 -3,2 0,0 0,0 0,0 1,1 2,1 2,2 0,1 0,2 -1,3 -1,2 0,4 6,9 3,3 6,5 7,8 2,7 -2,10 -5,12 0,0 -1,1 -1,1z"/>
   <path class="fil0" d="M1657 636c2,0 3,0 4,1 2,1 4,2 7,2 1,0 4,-1 7,-2 2,0 4,-1 6,-1 7,-1 11,-1 17,0 10,1 13,4 17,11 1,1 2,2 3,3 1,2 2,2 3,2 2,0 4,1 6,2 2,1 3,4 4,6 1,0 1,0 1,0 0,-2 1,-5 4,-7 2,-2 5,-2 7,-3 0,0 0,0 0,0 2,-3 4,-4 5,-5 3,-3 4,-3 3,-6 -1,-2 -3,-4 -5,-6 -4,-4 -9,-8 -8,-13 -1,-1 -2,-2 -2,-3 -1,-4 3,-6 7,-9 2,-1 4,-3 4,-4 1,0 0,-2 0,-4 0,-2 0,-7 1,-10 -1,-1 0,-3 1,-4 2,-1 3,-1 4,-2 3,-2 5,-3 6,-5 2,-2 3,-4 5,-6 1,-2 3,-3 4,-5 2,-2 2,-4 3,-6 0,-1 0,-2 1,-4 1,-3 4,-5 5,-7 2,-1 3,-2 4,-4 1,-1 1,-2 1,-4 0,-1 0,-3 1,-4 0,-5 3,-9 5,-11 2,-2 3,-3 4,-5 3,-5 5,-9 15,-10 1,0 1,0 2,-1 -1,0 -3,-1 -4,-3 -2,-2 -6,-3 -10,-5 -5,-2 -11,-4 -14,-10l-1 -2c-2,-4 -4,-7 -8,-11l-2 -1c-4,-4 -9,-7 -13,-12 -11,-11 -22,-17 -36,-23 -5,-3 -10,-6 -14,-9 -6,-4 -12,-8 -18,-10 -2,-1 -4,-2 -7,-2 -3,-2 -7,-3 -11,-4 -3,-1 -5,-1 -7,0 -2,0 -3,1 -5,1 -2,0 -4,0 -6,0 -1,0 -3,0 -4,0 -1,1 -1,2 -1,5 1,1 1,3 1,5 0,1 -1,1 -2,2 0,0 -2,0 -2,0 -2,-1 -4,-3 -5,-6 -2,1 -4,0 -5,-1 -1,0 -1,-1 -2,-1 -6,-2 -6,-2 -11,2l-1 1 0 0c2,4 0,9 -1,14 -2,4 -3,8 -3,11 1,1 1,2 1,2 0,1 0,1 1,1 0,1 1,1 2,2 3,4 4,5 4,9 1,1 1,2 1,3 1,3 2,5 4,8 1,1 2,2 3,3 3,5 3,7 2,11 0,1 0,2 0,3 0,2 0,3 1,5 0,1 0,2 0,3 1,4 1,6 0,9 0,2 0,3 0,5 0,3 1,5 2,7 2,3 3,7 4,11 0,5 0,11 0,17 0,2 -1,4 -1,6 0,7 -1,15 2,20 0,0 1,0 1,1 2,0 3,1 5,5 0,2 0,4 0,6l0 1c1,3 1,5 1,7 1,4 1,6 4,7 1,0 2,0 3,1 3,0 8,0 8,8 0,4 -2,9 -4,14 -1,1 -2,3 -2,4 -1,1 -1,3 -2,4z"/>
   <path class="fil0" d="M1647 643c-1,-1 0,-2 0,-2 1,-1 1,-1 1,-2 2,-2 4,-5 5,-9 1,-1 2,-3 2,-5 2,-4 5,-8 4,-11 0,-2 0,-2 -3,-3 -1,0 -3,0 -5,-1 -5,-2 -6,-7 -6,-11 -1,-2 -1,-3 -1,-5 -1,0 -1,-1 -1,-2l0 0c0,-1 0,-2 0,-2 0,-2 0,-4 0,-5 0,-1 0,-1 -1,-1 -1,-1 -2,-1 -4,-3 -4,-6 -3,-16 -3,-24 1,-2 1,-4 1,-6 0,-5 0,-11 0,-16 0,-3 -2,-5 -3,-8 -1,-3 -3,-6 -3,-9 0,-3 0,-5 1,-7 0,-2 0,-4 0,-6 0,-1 -1,-2 -1,-3 -1,-3 -1,-4 -1,-8 0,-1 1,-2 1,-3 0,-3 0,-4 -2,-7 -1,-1 -1,-2 -2,-2 -2,-3 -5,-6 -6,-11 0,-1 0,-3 0,-4 -1,-2 -1,-2 -3,-5 -1,0 -1,-1 -2,-1 -2,-2 -3,-3 -3,-7 -1,-5 0,-10 2,-14 2,-4 3,-8 2,-10 -2,-4 -13,-7 -20,-8 -2,8 -7,11 -12,15 -1,1 -2,2 -3,3 -2,1 -4,3 -6,5 -2,2 -5,5 -8,7 -2,1 -4,2 -6,3 -1,0 -3,1 -5,2 -4,3 -7,10 -10,17 -1,3 -3,6 -4,8 0,2 -1,3 -2,4 -2,3 -3,5 -2,9 0,2 1,4 2,5 1,4 3,8 3,13 -1,2 -1,4 -1,6 1,7 1,14 -3,21 -1,1 -2,2 -2,4 -2,2 -3,4 -4,7l0 4c-1,8 -1,15 3,23 0,1 0,1 0,1l1 0c2,1 4,2 5,3 3,2 4,4 4,7 0,0 0,1 0,2 0,11 0,14 -10,18l-1 0c-10,4 -18,8 -30,3 -6,-3 -14,-5 -19,-2 -4,4 -11,11 -15,15 -5,6 -12,12 -20,17 -5,3 -11,4 -17,6 -4,0 -7,1 -10,2 -9,3 -10,13 -12,24 0,3 -1,7 -1,10 -2,6 -4,10 -7,14 -4,5 -5,8 -5,14 -1,1 -1,2 -1,4 -1,2 -1,3 -2,4 -1,2 -2,4 -2,6 0,1 0,1 1,2 0,1 0,2 1,4 0,1 0,3 0,4 0,1 -1,2 0,3 0,3 1,5 2,7 0,2 1,5 2,7 0,4 -1,7 -2,9 0,2 -1,4 -1,6 0,2 1,4 1,5 0,2 0,4 1,6 7,-2 17,-1 22,4 3,4 3,8 2,11 0,3 0,4 4,5 2,1 3,1 5,2 6,3 10,5 17,2 4,-2 8,-5 12,-8 0,0 1,0 1,-1 2,-1 3,-3 7,-3 2,-1 4,0 6,1 1,0 2,0 3,0 3,0 7,-2 11,-5 5,-4 6,-7 8,-12 0,-1 1,-3 2,-5 1,-2 4,-8 4,-9 -1,-1 -2,-3 -3,-4 -3,-3 -8,-7 -6,-12 1,-3 4,-5 7,-6 2,-1 4,-2 5,-3 1,-1 2,-3 3,-4 0,-2 1,-3 2,-4 1,-1 3,-1 4,-1 2,2 3,3 4,5 1,1 2,2 3,2 2,0 4,0 6,-1 3,0 7,-1 11,0 2,1 3,3 5,4 1,2 2,3 3,3 2,1 6,0 9,-1l2 0c2,-1 4,-2 7,-4 1,0 2,-1 3,-2 5,-2 8,-2 12,-1l2 0c5,0 18,-3 20,-7 0,-1 0,-1 0,-2 -3,0 -5,-1 -6,-4 -1,-1 0,-3 1,-4 1,0 2,0 3,0 1,0 2,0 3,1 1,0 1,0 1,0 4,-2 9,-8 10,-10 0,-1 0,-1 1,-2 0,-1 0,-2 1,-4 2,-3 5,-4 8,-5 1,0 2,-1 3,-1 2,-1 5,-3 7,-5 1,-2 3,-3 5,-4 10,-8 15,-15 12,-25 0,-2 -1,-4 -1,-6 0,-4 0,-7 -2,-8 -1,0 -1,-1 -1,-2 -1,0 -1,-1 0,-1z"/>
   <path class="fil0" d="M1731 669c-1,0 -1,0 -2,-1 -1,-1 -2,-3 -3,-5 0,-2 -1,-3 -2,-4 -1,-1 -2,-1 -3,-1 -2,0 -5,-1 -8,-4 -1,-2 -2,-3 -2,-4 -4,-6 -6,-7 -14,-8 -6,-1 -9,-1 -15,-1 -2,1 -4,1 -5,2 -4,1 -7,2 -10,2 -4,0 -6,-2 -8,-3 -2,-1 -3,-1 -6,1 2,2 3,7 3,10 0,2 0,4 1,6 4,14 -5,23 -15,31 -1,1 -3,2 -4,3 -3,2 -5,4 -8,6 -1,1 -3,1 -4,2 0,0 -1,0 -1,0l0 0c7,1 15,2 19,5 4,3 4,7 4,10 0,1 0,2 0,3 0,1 0,2 0,2 0,1 -1,1 -1,1 1,0 1,0 1,0 1,1 3,2 4,3 2,4 0,7 -1,10 3,0 6,0 8,0 1,-1 2,-1 2,-1 0,-2 1,-3 1,-5 2,-7 6,-11 14,-10 2,0 3,0 4,1 0,0 0,0 1,0 0,0 0,0 0,0 1,-1 2,-3 3,-5 1,-2 2,-4 4,-5 3,-4 10,-9 15,-11 6,-3 20,-2 27,1 9,2 18,8 26,14l3 2c4,2 7,4 11,9 1,-1 3,-2 4,-2 3,-1 5,-2 7,-4 1,-1 1,-1 1,-3 2,-2 3,-5 8,-6 10,-3 16,4 20,9 2,2 4,4 7,6 2,2 8,2 13,2 2,0 4,0 6,0 1,0 3,0 5,0 4,0 9,0 12,-1 3,0 15,-8 17,-13 1,-1 0,-2 0,-2 -1,-1 -1,-2 -1,-3 1,-1 1,-2 3,-2 1,0 2,-1 3,-1 4,-1 8,-3 11,-2 1,0 3,1 4,1 1,1 2,2 3,2 2,0 5,0 8,0 3,0 6,-1 9,0 1,0 2,0 2,0 2,-7 5,-13 8,-19l3 -5c2,-4 4,-26 3,-33 -2,-1 -3,-3 -5,-4 -1,-1 -3,-3 -5,-3 -4,-1 -9,1 -10,3 0,1 0,1 0,2 0,2 -1,4 -5,6 -2,2 -5,2 -7,1 -1,0 -2,0 -3,1 -2,0 -3,1 -5,2 -1,1 -2,2 -4,3 -3,1 -4,1 -6,1 0,0 -1,-1 -2,-1 -9,1 -16,3 -18,6 -1,2 -1,3 -1,4 0,3 -2,4 -6,6 -1,0 -3,0 -4,0 -2,1 -3,1 -4,2 -1,0 -2,1 -3,2 -3,3 -7,8 -11,8 -1,0 -2,-1 -3,-1 -6,-3 -4,-7 -3,-9 0,-1 0,-2 1,-3 0,-2 -1,-4 -5,-5 0,1 -1,2 -2,2 0,0 0,0 -1,0 -1,0 -2,-1 -2,-3 -1,0 -1,0 -1,-1 0,0 0,0 -1,-1 0,-1 0,-2 0,-3 1,-1 2,-2 3,-1 1,-1 1,-2 2,-2 0,-1 1,-2 1,-2 0,-1 0,-3 -1,-4 -1,-2 -3,-5 -1,-9 2,-2 4,-2 7,-3 -1,-1 -3,-1 -4,-3 -5,-1 -8,1 -12,4 -1,0 -2,1 -3,2 -4,2 -8,3 -12,4 -5,1 -9,2 -12,5 0,0 -1,0 -1,1 0,1 0,3 -2,4 -5,3 -11,2 -16,1 -6,-1 -9,-2 -13,-5l0 0c-2,0 -5,0 -7,2 -1,1 -1,2 -2,4 -1,2 -2,5 -4,7 -1,0 -1,0 -2,0z"/>
   <path class="fil0" d="M1918 707c1,-6 4,-11 7,-17 -3,6 -6,11 -7,17l0 0z"/>
   <path class="fil0" d="M1910 724c1,-3 2,-6 4,-8l0 0c-2,2 -3,5 -4,8z"/>
   <path class="fil0" d="M1855 792c0,0 1,0 1,0 0,0 -1,0 -1,0l0 0z"/>
   <path class="fil0" d="M1738 923c1,-3 2,-5 4,-7 -2,2 -3,4 -4,7z"/>
   <path class="fil0" d="M1698 1173c0,-5 2,-10 7,-15 -5,5 -7,10 -7,15l0 0z"/>
   <path class="fil0" d="M1641 1316c0,0 0,-1 0,-1 0,0 0,1 0,1z"/>
   <polygon class="fil0" points="1448,1407 1448,1407 1448,1407 "/>
   <path class="fil0" d="M1258 1549c1,-1 2,-2 5,-5 -3,3 -4,4 -5,5l0 0z"/>
   <path class="fil0" d="M1197 1732c2,-1 2,-3 3,-4 -1,1 -1,3 -3,4z"/>
   <polygon class="fil0" points="1023,1936 1023,1936 1023,1936 "/>
   <polygon class="fil0" points="1023,1936 1023,1936 1023,1936 "/>
   <polygon class="fil0" points="1023,1936 1023,1936 1023,1936 "/>
   <polygon class="fil0" points="1023,1936 1023,1936 1023,1936 "/>
   <polygon class="fil0" points="1023,1936 1023,1936 1023,1936 "/>
   <polygon class="fil0" points="1023,1936 1023,1936 1023,1936 "/>
   <polygon class="fil0" points="1023,1936 1023,1936 1023,1936 "/>
   <polygon class="fil0" points="1023,1936 1023,1936 1023,1936 "/>
   <polygon class="fil0" points="1023,1936 1023,1936 1023,1936 "/>
   <polygon class="fil0" points="1023,1936 1023,1936 1023,1936 "/>
   <polygon class="fil0" points="1023,1936 1023,1936 1023,1936 "/>
   <polygon class="fil0" points="1023,1936 1023,1936 1023,1936 "/>
   <polygon class="fil0" points="1023,1936 1023,1936 1023,1936 "/>
   <polygon class="fil0" points="1023,1936 1023,1936 1023,1936 "/>
   <polygon class="fil0" points="1023,1936 1023,1936 1023,1936 "/>
   <polygon class="fil0" points="1023,1936 1023,1936 1023,1936 "/>
   <polygon class="fil0" points="1023,1936 1023,1936 1023,1936 "/>
   <polygon class="fil0" points="1023,1936 1023,1936 1023,1936 "/>
   <polygon class="fil0" points="1023,1936 1023,1936 1023,1936 "/>
   <polygon class="fil0" points="1023,1936 1023,1936 1023,1936 "/>
   <polygon class="fil0" points="1023,1936 1023,1936 1023,1936 "/>
   <polygon class="fil0" points="1023,1936 1023,1936 1023,1936 "/>
   <polygon class="fil0" points="1023,1936 1023,1936 1023,1936 "/>
   <polygon class="fil0" points="1023,1936 1023,1936 1023,1936 "/>
   <polygon class="fil0" points="1023,1936 1023,1936 1023,1936 "/>
   <polygon class="fil0" points="1023,1936 1023,1936 1023,1936 "/>
   <polygon class="fil0" points="1023,1936 1023,1936 1023,1936 "/>
   <polygon class="fil0" points="1023,1936 1023,1936 1023,1936 "/>
   <polygon class="fil0" points="1023,1936 1023,1936 1023,1936 "/>
   <polygon class="fil0" points="1023,1936 1023,1936 1023,1936 "/>
   <polygon class="fil0" points="1023,1936 1023,1936 1023,1936 "/>
   <polygon class="fil0" points="1023,1936 1023,1936 1023,1936 "/>
   <polygon class="fil0" points="1023,1936 1023,1936 1023,1936 "/>
   <polygon class="fil0" points="1023,1936 1023,1936 1023,1936 "/>
   <polygon class="fil0" points="1023,1936 1023,1936 1023,1936 "/>
   <polygon class="fil0" points="1023,1936 1023,1936 1023,1936 "/>
   <polygon class="fil0" points="1023,1936 1023,1936 1023,1936 "/>
   <polygon class="fil0" points="1022,1936 1022,1936 1023,1936 "/>
   <polygon class="fil0" points="1022,1936 1022,1936 1022,1936 "/>
   <polygon class="fil0" points="1022,1936 1022,1936 1022,1936 "/>
   <polygon class="fil0" points="1022,1936 1022,1936 1022,1936 "/>
   <polygon class="fil0" points="1022,1936 1022,1936 1022,1936 "/>
   <polygon class="fil0" points="1022,1936 1022,1936 1022,1936 "/>
   <polygon class="fil0" points="1022,1936 1022,1936 1022,1936 "/>
   <polygon class="fil0" points="1022,1936 1022,1936 1022,1936 "/>
   <polygon class="fil0" points="1022,1936 1022,1936 1022,1936 "/>
   <polygon class="fil0" points="1022,1936 1022,1936 1022,1936 "/>
   <polygon class="fil0" points="1022,1936 1022,1936 1022,1936 "/>
   <polygon class="fil0" points="1022,1936 1022,1936 1022,1936 "/>
   <polygon class="fil0" points="1022,1936 1022,1936 1022,1936 "/>
   <polygon class="fil0" points="1022,1936 1022,1936 1022,1936 "/>
   <polygon class="fil0" points="1022,1936 1022,1936 1022,1936 "/>
   <polygon class="fil0" points="1022,1936 1022,1936 1022,1936 "/>
   <polygon class="fil0" points="1022,1936 1022,1936 1022,1936 "/>
   <polygon class="fil0" points="1022,1936 1022,1936 1022,1936 "/>
   <polygon class="fil0" points="1022,1936 1022,1936 1022,1936 "/>
   <polygon class="fil0" points="1022,1936 1022,1936 1022,1936 "/>
   <polygon class="fil0" points="1022,1936 1022,1936 1022,1936 "/>
   <polygon class="fil0" points="1022,1936 1022,1936 1022,1936 "/>
   <polygon class="fil0" points="1022,1936 1022,1936 1022,1936 "/>
   <polygon class="fil0" points="1022,1936 1022,1936 1022,1936 "/>
   <polygon class="fil0" points="1022,1936 1022,1936 1022,1936 "/>
   <polygon class="fil0" points="1022,1936 1022,1936 1022,1936 "/>
   <polygon class="fil0" points="1022,1936 1022,1936 1022,1936 "/>
   <polygon class="fil0" points="1021,1936 1022,1936 1022,1936 "/>
   <polygon class="fil0" points="1021,1936 1021,1936 1021,1936 "/>
   <polygon class="fil0" points="1021,1936 1021,1936 1021,1936 "/>
   <polygon class="fil0" points="1021,1936 1021,1936 1021,1936 "/>
   <polygon class="fil0" points="1021,1936 1021,1936 1021,1936 "/>
   <polygon class="fil0" points="1021,1936 1021,1936 1021,1936 "/>
   <polygon class="fil0" points="1021,1936 1021,1936 1021,1936 "/>
   <polygon class="fil0" points="1021,1936 1021,1936 1021,1936 "/>
   <polygon class="fil0" points="1021,1936 1021,1936 1021,1936 "/>
   <polygon class="fil0" points="1021,1936 1021,1936 1021,1936 "/>
   <polygon class="fil0" points="1021,1936 1021,1936 1021,1936 "/>
   <polygon class="fil0" points="1021,1936 1021,1936 1021,1936 "/>
   <polygon class="fil0" points="1021,1936 1021,1936 1021,1936 "/>
   <polygon class="fil0" points="1021,1936 1021,1936 1021,1936 "/>
   <path class="fil0" d="M1016 1875c-2,4 -5,12 -1,27 2,0 3,1 3,2 0,2 0,5 0,7 0,4 0,8 2,10 0,2 1,3 2,4 1,1 2,2 2,4 14,-6 26,-17 38,-34 2,-3 2,-6 2,-10 0,-4 1,-8 3,-12 1,-2 2,-3 4,-4 1,-1 2,-2 2,-3 0,0 0,-1 0,-2 0,-2 0,-5 3,-7 1,-2 3,-3 4,-3 1,-1 2,-1 2,-2 0,0 0,0 -1,-1 -1,-1 -2,-2 -3,-3 -2,-4 -2,-14 -1,-17 2,-4 4,-5 6,-6 1,0 2,-1 3,-1 2,-2 2,-2 3,-5l1 -2c3,-6 7,-8 11,-9 2,-1 4,-2 6,-3 5,-5 7,-14 9,-21l1 -4c2,-10 8,-14 15,-18 0,0 1,0 1,0 2,-1 3,-2 5,-2 1,-1 3,0 4,1 1,-1 2,-2 4,-3 1,0 2,-1 4,-2 0,0 11,-5 15,-1 1,0 2,1 3,6 0,2 1,7 -1,10 -3,3 -6,2 -8,2 0,0 -1,0 -1,0 0,0 0,3 0,5 0,4 0,7 -1,9 -2,3 -4,4 -6,5 0,0 -1,1 -2,1 -2,2 -3,3 -5,5 -1,1 -1,2 -2,3 -1,1 -2,2 -3,3 -2,1 -4,3 -5,5 0,0 0,2 -1,3 0,1 0,3 -1,4 1,-1 2,-2 3,-4 3,-3 7,-6 11,-9 5,-3 9,-6 11,-10 1,-1 1,-2 1,-4 0,-1 0,-3 1,-4 1,-4 4,-8 7,-12l2 -2c1,-2 3,-4 5,-6 3,-4 6,-7 6,-11 0,-1 0,-2 0,-3 0,-3 0,-6 2,-9 2,-3 4,-6 7,-8 1,-2 3,-3 4,-5 2,-2 5,-6 6,-10 0,0 0,0 -1,-1 0,-1 0,-2 1,-3 0,-1 0,-2 -1,-2 -1,-1 -1,-2 -2,-2 0,0 0,0 0,0 -1,0 -2,1 -4,1 0,1 -1,2 -2,2 -2,1 -6,3 -8,0 -3,-2 0,-6 3,-12 1,-2 3,-5 3,-6 1,-1 1,-2 1,-3 1,-3 2,-6 6,-9 1,-1 2,-2 3,-2 2,-1 3,-2 3,-3 0,0 -1,-1 -1,-1 -8,1 -20,-3 -25,-5 -2,-1 -3,-1 -5,-2 -10,-4 -19,-8 -25,-18 -5,-8 -15,-17 -22,-22 -4,-2 -7,-2 -11,-2 -2,0 -4,-1 -7,-1 -4,-1 -7,-3 -10,-5 -1,0 -2,-1 -3,-1 -17,-9 -36,-10 -55,-10 -7,-1 -15,-1 -22,-2l-3 0c-1,0 -2,-1 -3,-1 -1,1 -1,1 -2,1 -1,0 -1,-1 -2,-1 -6,-1 -11,0 -17,3l-7 5c-8,5 -15,10 -23,14 -9,4 -17,10 -24,15l-5 3c-1,1 -3,2 -5,3 -4,2 -8,4 -9,6 -1,1 -1,3 -1,5 -1,2 -1,3 -1,4 0,1 -1,2 -2,2 0,1 -1,1 -2,0 -3,-1 -7,3 -11,9 -1,1 -2,2 -3,3 -3,3 -5,5 -7,8 -1,2 -3,4 -4,5 -3,3 -6,5 -9,7 -2,2 -4,3 -6,5 -3,2 -4,5 -6,8 -2,2 -3,4 -4,6 -3,4 -7,7 -11,10 -3,2 -5,4 -7,6 -4,3 -7,6 -10,10 -2,3 -4,5 -7,8 1,0 1,1 1,1 3,2 6,2 10,2l1 0c1,0 4,0 5,0 0,-1 0,-1 -1,-2 0,0 0,-1 0,-2 0,-1 1,-2 2,-2 4,-2 17,-5 23,-1 2,1 3,3 4,6 1,2 3,4 4,5 2,2 5,4 8,5 5,3 10,5 13,10 2,3 3,7 5,11 0,2 1,4 2,6 0,2 0,3 0,4 1,0 1,0 1,0 1,0 2,0 8,-2 1,-1 2,-2 3,-4 1,-2 3,-5 8,-4 5,1 10,9 12,13 1,0 2,1 2,2l0 1c2,4 2,4 8,5 2,0 3,1 5,1 3,0 5,1 7,2 2,1 3,2 3,3 0,0 1,1 1,1 2,1 3,1 5,2 3,1 7,2 10,7 1,1 2,3 2,4 1,2 1,3 2,4 1,0 1,0 3,0 1,1 3,1 5,3 2,2 2,3 3,4 0,0 0,0 1,1 0,0 1,0 2,-1 2,0 5,0 7,1 9,4 11,12 13,19l0 1c2,8 14,14 23,14 1,0 3,1 3,3 0,1 -1,3 -3,3 -5,0 -12,-2 -18,-5z"/>
   <path class="fil0" d="M1006 1864c2,3 4,6 7,8 0,1 0,1 1,1 -4,-2 -6,-5 -8,-9z"/>
   <path class="fil1" d="M1006 1863c0,1 0,1 0,1"/>
   <path class="fil0" d="M818 1759c0,0 1,0 1,-1 0,1 -1,1 -1,1z"/>
   <path class="fil0" d="M977 1464c5,11 1,25 -2,36 3,-11 7,-25 3,-36l-1 0z"/>
   <path class="fil0" d="M961 1450c7,2 13,4 15,10l0 0c-2,-6 -8,-8 -15,-10z"/>
   <path class="fil0" d="M940 1456c0,0 0,0 0,0l0 0 0 0z"/>
   <path class="fil0" d="M939 1457c0,0 0,0 0,0l0 0 0 0z"/>
   <polygon class="fil0" points="936,1457 936,1457 936,1457 "/>
   <path class="fil0" d="M798 1135c2,0 3,0 3,0l0 0c0,0 -1,0 -3,0z"/>
   <path class="fil0" d="M659 945c0,0 1,1 1,1l0 0 -1 -1z"/>
   <path class="fil0" d="M429 770c0,0 0,0 0,1 0,-1 0,-1 0,-1z"/>
   <path class="fil0" d="M66 739c5,-2 14,1 20,5 -6,-4 -15,-7 -20,-5l0 0z"/>
   <polygon class="fil0" points="19,648 19,648 19,648 "/>
   <polygon class="fil0" points="19,647 19,648 19,648 "/>
   <polygon class="fil0" points="19,647 19,647 19,647 "/>
   <polyline class="fil1" points="19,647 19,647 19,647 "/>
   <polygon class="fil0" points="19,647 19,647 19,647 19,647 "/>
   <polyline class="fil1" points="19,646 19,646 19,646 "/>
   <polygon class="fil0" points="18,646 18,646 19,646 "/>
   <polygon class="fil0" points="18,645 18,645 18,645 18,645 18,645 "/>
   <polygon class="fil0" points="18,644 18,644 18,644 "/>
   <polygon class="fil0" points="18,644 18,644 18,644 "/>
   <polygon class="fil0" points="18,643 18,643 18,644 "/>
   <polygon class="fil0" points="18,643 18,643 18,643 "/>
   <polygon class="fil0" points="18,642 18,642 18,642 "/>
   <polygon class="fil0" points="18,642 18,642 18,642 "/>
   <polygon class="fil0" points="18,642 18,642 18,642 "/>
   <polygon class="fil0" points="18,642 18,642 18,642 "/>
   <polygon class="fil0" points="18,642 18,642 18,642 "/>
   <polygon class="fil0" points="18,641 18,641 18,642 "/>
   <polygon class="fil0" points="18,641 18,641 18,641 "/>
   <polygon class="fil0" points="18,641 18,641 18,641 "/>
   <polygon class="fil0" points="19,641 19,641 19,641 "/>
   <polygon class="fil0" points="19,640 19,640 19,640 "/>
   <polygon class="fil0" points="19,640 19,640 19,640 "/>
   <polygon class="fil0" points="19,640 19,640 19,640 "/>
   <polygon class="fil0" points="19,639 19,639 19,639 "/>
   <path class="fil0" d="M28 632c0,1 0,2 1,3 -1,-1 -1,-2 -1,-3l0 0z"/>
   <path class="fil0" d="M24 626c1,1 2,1 3,2l0 0c-1,-1 -2,-1 -3,-2z"/>
   <path class="fil0" d="M514 170c0,1 0,1 0,1 0,0 0,0 0,-1z"/>
   <line class="fil1" x1="515" y1="170" x2="515" y2= "170" />
   <path class="fil1" d="M515 170l0 0c0,0 0,0 -1,0 1,0 1,0 1,0l0 0"/>
   <path class="fil0" d="M529 165c-1,0 -2,0 -3,0 1,0 2,0 3,0l0 0z"/>
   <path class="fil0" d="M707 146c-2,-5 -2,-13 -2,-20 0,7 0,15 2,20z"/>
   <path class="fil0" d="M707 148c0,0 0,0 0,0 0,0 0,0 0,0z"/>
   <path class="fil0" d="M966 160c-1,0 -2,-1 -2,-1l0 0c0,0 1,1 2,1z"/>
   <path class="fil0" d="M1141 123c-1,-5 0,-10 0,-15 0,5 -1,10 -1,15l1 0z"/>
   <polygon class="fil0" points="1113,308 1113,307 1113,307 "/>
   <polyline class="fil1" points="1244,337 1244,337 1244,337 1244,337 1244,337 "/>
   <polyline class="fil1" points="1232,346 1232,346 1232,346 "/>
   <polygon class="fil0" points="1929,598 1929,598 1929,598 "/>
   <path class="fil0" d="M1930 599c-1,0 -1,0 -1,0l0 0c0,0 0,0 1,0z"/>
   <path class="fil0" d="M1100 1839c-1,1 -3,1 -5,1 -5,1 -6,1 -6,2 0,0 0,0 2,3 3,-2 6,-4 9,-6z"/>
  </g>
 </g>
</svg>
