<?xml version="1.0" encoding="UTF-8"?>
<!DOCTYPE svg PUBLIC "-//W3C//DTD SVG 1.1//EN" "http://www.w3.org/Graphics/SVG/1.1/DTD/svg11.dtd">
<!-- Creator: CorelDRAW X8 -->
<svg xmlns="http://www.w3.org/2000/svg" xml:space="preserve" width="213px" height="283px" version="1.1" style="shape-rendering:geometricPrecision; text-rendering:geometricPrecision; image-rendering:optimizeQuality; fill-rule:evenodd; clip-rule:evenodd"
viewBox="0 0 213 284"
 xmlns:xlink="http://www.w3.org/1999/xlink">
 <defs>
  <style type="text/css">
   <![CDATA[
    .str0 {stroke:#D19C2C;stroke-width:9.23592;stroke-linejoin:round}
    .fil0 {fill:#FFD525}
   ]]>
  </style>
 </defs>
 <g id="Camada_x0020_1">
  <metadata id="CorelCorpID_0Corel-Layer"/>
  <path class="fil0 str0" d="M50 238c2,0 3,1 5,1 1,1 3,2 6,2 2,0 5,-1 7,-1 2,-1 5,-2 7,-2 6,-1 10,-1 16,0 11,2 13,5 18,11 1,1 1,2 2,4 1,1 2,1 4,2 1,0 3,0 6,2 2,1 3,3 4,6 0,0 0,0 0,0 1,-3 2,-5 4,-8 3,-1 5,-2 7,-2 0,0 0,-1 1,-1 1,-2 3,-4 5,-5 3,-2 3,-3 3,-6 -1,-1 -4,-4 -6,-6 -4,-3 -8,-8 -7,-13 -2,0 -3,-1 -3,-3 -1,-3 3,-6 8,-9 1,-1 4,-3 4,-3 0,-1 0,-3 0,-4 -1,-3 -1,-7 0,-11 0,-1 0,-3 1,-3 2,-1 3,-2 5,-3 2,-1 4,-2 6,-5 1,-2 3,-4 4,-6 2,-1 3,-3 4,-5 2,-2 3,-3 3,-5 1,-2 1,-3 2,-5 1,-3 3,-5 5,-7 1,-1 3,-2 3,-4 2,-1 2,-2 2,-4 0,-1 0,-3 0,-4 1,-4 4,-8 6,-11 1,-1 2,-3 3,-4 3,-6 6,-10 16,-11 0,0 1,0 2,0 -2,-1 -3,-2 -4,-3 -3,-3 -6,-4 -10,-6 -5,-2 -11,-4 -14,-10l-1 -1c-3,-5 -4,-8 -8,-12l-2 -1c-5,-4 -9,-7 -14,-12 -11,-11 -21,-17 -36,-23 -5,-3 -9,-6 -14,-9 -6,-4 -11,-8 -18,-10 -2,-1 -4,-2 -6,-2 -4,-2 -8,-3 -11,-4 -4,-1 -6,-1 -8,0 -1,0 -3,1 -5,1 -1,0 -3,0 -5,0 -2,0 -4,0 -5,0 -1,1 -1,2 0,5 0,1 0,3 0,5 0,1 0,1 -1,2 -1,0 -2,0 -3,0 -2,-1 -4,-3 -5,-6 -2,1 -4,0 -5,-1 -1,0 -1,-1 -2,-1 -5,-2 -5,-2 -10,2l-1 1 0 0c1,4 0,9 -2,14 -2,4 -3,8 -2,11 0,1 0,2 0,3 0,0 1,0 1,0 1,1 1,1 2,2 4,4 4,5 5,9 0,1 0,2 0,3 1,3 3,5 5,8 0,1 1,2 2,3 3,5 3,7 3,11 -1,1 -1,2 -1,3 0,2 0,3 1,6 0,0 0,1 1,2 1,4 0,7 0,9 -1,2 -1,3 -1,5 0,3 1,5 3,8 1,3 3,6 3,10 0,5 0,12 0,17 0,2 0,4 -1,6 0,7 -1,15 2,20 1,0 1,1 2,1 1,1 3,2 4,5 0,2 0,4 0,6l0 1c1,3 2,5 2,8 0,3 0,5 3,6 1,1 2,1 3,1 3,0 8,1 8,8 1,4 -2,9 -4,14 -1,2 -2,3 -2,5 -1,1 -1,2 -2,3z"/>
 </g>
</svg>
