<?xml version="1.0" encoding="UTF-8"?>
<!DOCTYPE svg PUBLIC "-//W3C//DTD SVG 1.1//EN" "http://www.w3.org/Graphics/SVG/1.1/DTD/svg11.dtd">
<!-- Creator: CorelDRAW X8 -->
<svg xmlns="http://www.w3.org/2000/svg" xml:space="preserve" width="591px" height="472px" version="1.1" style="shape-rendering:geometricPrecision; text-rendering:geometricPrecision; image-rendering:optimizeQuality; fill-rule:evenodd; clip-rule:evenodd"
viewBox="0 0 591 473"
 xmlns:xlink="http://www.w3.org/1999/xlink">
 <defs>
  <style type="text/css">
   <![CDATA[
    .str0 {stroke:#D19C2C;stroke-width:9.22551;stroke-linejoin:round}
    .fil0 {fill:#FFD525}
   ]]>
  </style>
 </defs>
 <g id="Camada_x0020_1">
  <metadata id="CorelCorpID_0Corel-Layer"/>
  <path class="fil0 str0" d="M326 424c6,-7 14,-8 21,-9 3,0 6,0 9,-1 4,-1 6,-2 10,-4l2 -2c4,-2 8,-2 11,-2 3,-1 5,-1 7,-1 1,-1 3,-1 4,-2 3,-1 6,-1 9,-1 2,0 4,0 6,1 2,1 3,1 4,2 6,0 11,-3 17,-6 3,-3 7,-5 11,-6 3,-1 5,-1 6,-2 4,0 4,0 4,-6l0 -2c0,-4 0,-8 3,-12 1,-2 2,-3 3,-4 1,-1 2,-2 3,-4 0,-1 0,-2 0,-4 0,-2 0,-5 2,-7 1,-3 4,-4 6,-5 1,0 2,-1 2,-1 2,-1 3,-3 4,-4 1,-2 2,-3 4,-5 0,0 0,0 0,0 -1,-1 -2,-2 -3,-4 -1,-5 1,-14 3,-17 3,-4 12,-7 17,-6 2,0 3,1 4,2 1,-3 2,-6 3,-9 1,-4 2,-7 4,-11 1,-1 3,-3 5,-4 1,-1 3,-3 3,-4 0,0 0,-1 -1,-2 0,-1 -1,-2 -1,-4 -1,-3 0,-6 1,-9l1 -3c0,-4 1,-6 0,-8 0,1 -1,2 -2,2 0,0 -1,0 -1,0 -1,0 -2,0 -3,-1 -1,-2 -3,-6 -2,-9 2,-3 5,-4 8,-4 1,-1 1,-1 2,-1 0,0 0,0 0,0l0 -2c-1,-10 -2,-13 -3,-13 0,0 -1,0 -2,0 -1,0 -1,-1 -1,-1 -5,-13 7,-18 15,-21 0,0 0,0 1,-1 -1,-1 0,-2 1,-3 5,-4 10,-3 15,-4 2,0 3,1 4,1 3,0 6,0 7,-1 0,0 1,-1 1,-2 -1,-2 -2,-2 -5,-3 -1,-1 -3,-1 -5,-3 -2,-2 -2,-4 -3,-6 0,-1 0,-3 0,-3 -1,0 -2,0 -3,-1 -1,0 -1,-1 -1,-2 0,-4 1,-12 0,-19 0,-1 0,-2 1,-3 2,-4 5,-7 9,-9 1,-1 2,-1 3,-1 1,-1 1,-1 1,-1 0,0 0,-1 0,-1 0,-2 0,-4 1,-6 2,-2 4,-2 5,-3 0,0 1,0 1,0 1,-1 1,-1 1,-2 1,-1 1,-2 2,-4 1,-1 2,-2 3,-3 1,0 3,-2 3,-2l0 0c0,0 0,0 -1,-1 -1,-1 -1,-3 0,-4 1,-1 2,-1 2,-1 1,-1 1,-1 1,-2 0,-4 -10,-11 -25,-17 -5,-3 -20,-7 -23,-6 0,0 0,1 0,1 -2,2 -3,5 -6,6 -2,0 -9,1 -12,-2 -2,-1 -2,-4 -3,-8 -1,-1 -1,-2 -1,-2 -1,-3 -3,-5 -5,-8 -1,-1 -2,-2 -2,-3 -3,-5 -5,-7 -10,-8 -4,0 -8,-1 -11,-3 -3,-1 -5,-2 -10,-2 -3,-1 -4,-1 -6,-1 -7,0 -13,0 -19,-8 -3,-3 -3,-3 -5,-3 -1,-1 -3,-1 -6,-3 -2,0 -3,-2 -3,-3 -1,-1 -2,-1 -3,-2 -5,-2 -10,-3 -12,-2 -1,1 -1,1 -1,4 1,1 1,2 1,3 0,1 -1,3 -2,3 -1,0 -3,0 -3,-1 -1,1 -3,1 -5,1 -2,-1 -3,-2 -4,-3 0,0 -1,-1 -1,-1 -4,-2 -6,-2 -11,-1l-1 0c-1,0 -2,-1 -3,-1 0,-1 0,-2 0,-3 0,-2 0,-3 0,-5 -1,-3 -2,-6 0,-9 0,-1 2,-2 3,-2 1,1 1,1 2,1 1,-1 1,-2 1,-2l0 0c0,0 0,-1 -1,-1 -3,-1 -8,-1 -11,-1 -3,0 -6,0 -8,0 -5,-1 -5,-1 -8,1 -1,0 -1,1 -2,1 -2,1 -5,2 -7,2 -2,0 -4,1 -5,1 0,1 -1,1 -1,1 0,1 -1,2 -2,3 -4,7 -7,8 -13,11 -1,0 -2,0 -3,1 -6,3 -11,7 -16,11 -5,4 -11,6 -16,7 -6,2 -11,4 -14,7 -1,1 -2,2 -2,2 -1,0 -1,0 -2,0 0,0 0,0 -1,0 -1,-1 -2,-2 -2,-4 1,-3 2,-6 1,-8 0,-1 -1,-1 -1,-2 -1,0 -1,0 -2,0 -1,1 -2,1 -3,1 -2,0 -3,-1 -3,-2 -1,-1 -1,-2 -1,-3 0,-1 0,-2 0,-2 -1,0 -1,0 -2,0 -2,0 -3,0 -5,-2 -2,-1 -1,-3 -1,-4 0,-1 0,-1 0,-1 -1,0 -2,0 -3,0l0 0c0,0 0,1 1,2 0,2 2,5 0,8 -3,5 -6,4 -8,3 0,0 -1,0 -1,0 -2,0 -3,0 -4,1 0,0 0,0 1,0 0,2 0,4 -1,7 -1,3 -3,7 -4,11 4,3 7,11 7,14 2,11 -6,12 -11,13l-2 1c-5,1 -12,4 -13,6 0,1 0,1 0,2 0,2 1,5 -1,7 -1,3 -4,5 -7,6 0,0 0,0 0,0 3,4 4,8 6,12 1,4 3,8 5,10 1,1 1,2 1,2 4,4 5,7 1,13 -3,4 -6,6 -9,9 -2,1 -4,2 -5,3 1,1 2,1 3,2 4,1 8,3 7,12 -1,2 -1,3 -2,4 0,1 0,1 0,2 0,1 0,2 0,3 1,1 1,3 1,5 -1,8 -6,11 -11,13l-1 1c-3,1 -3,1 -4,2 0,1 -1,2 -2,4 -2,3 -9,8 -14,8 0,0 0,0 0,0 -3,0 -5,-2 -7,-3 -1,-1 -2,-2 -2,-2 -6,-2 -15,-1 -23,-1l-4 1c-3,0 -5,0 -7,1 -3,0 -6,1 -10,1l-3 -1c-2,0 -3,0 -7,2 -1,0 -2,1 -3,2 -3,2 -6,4 -9,4 -2,0 -3,-1 -4,-2 0,0 -1,0 -1,0 0,0 -1,0 -2,0 -1,1 -2,1 -2,1 -4,1 -8,2 -11,2 -6,1 -12,2 -17,4 -5,2 -9,8 -13,13 -3,4 -6,8 -9,11 -2,1 -4,2 -5,2 0,0 0,0 0,0 0,1 0,2 0,3 1,2 1,4 0,6 -2,4 -5,4 -8,4 0,3 -2,5 -3,6 -1,2 -2,3 -2,4 0,2 0,5 0,7l0 1c2,-1 3,-2 5,-2 1,-1 2,-1 4,-2 1,0 2,-1 4,-2 1,-1 3,-2 5,-3 3,-1 5,-1 6,1 2,0 3,1 4,2 1,0 2,1 3,1 2,0 4,0 7,0 1,0 2,0 3,0 2,0 4,-1 6,-1 12,-1 28,-2 36,6 4,3 3,7 3,10 0,1 0,3 1,4 0,1 1,2 1,2 0,0 1,-1 2,-2 0,-1 1,-1 1,-2 1,0 2,0 3,0 3,1 4,5 5,8 0,1 1,3 2,4 0,-1 1,-3 1,-11 0,-2 0,-3 2,-3 4,-2 8,-1 12,-1 3,1 6,1 9,0 2,0 4,0 7,-1 2,0 5,-1 8,-1 1,0 3,0 4,0 1,0 2,0 3,0 0,0 1,0 1,-1 1,-1 2,-2 3,-3 2,0 4,0 7,0 2,0 5,1 6,0 0,-1 1,-2 2,-2 1,0 2,0 3,1 1,2 3,4 5,5 3,3 6,5 7,8 2,2 2,4 2,7 0,0 0,1 0,2 0,1 0,5 0,7 1,1 2,1 3,1 1,0 3,0 4,2 1,2 1,4 0,7 -1,3 -3,5 -4,6l0 1c1,0 1,0 2,1 2,2 2,5 2,7 0,1 0,2 0,2 1,5 4,7 8,10 2,1 5,2 7,3 3,1 7,2 9,4 7,5 5,9 3,13l-1 1c-3,4 -4,8 -4,12 0,1 0,2 0,3 1,3 2,5 1,9 -1,1 -2,3 -3,4 0,0 -1,1 -1,1 0,1 2,6 3,7 0,0 0,0 0,0 1,0 2,0 4,0 4,2 8,6 8,10 1,3 0,5 -1,7 2,1 3,4 3,6 4,1 8,-1 12,-2 2,0 4,-1 6,-1 2,-1 3,-1 4,0 1,0 1,0 2,0 0,-1 0,-2 0,-3 0,-2 1,-5 5,-6 2,-1 4,0 6,1 0,0 1,0 1,0 1,0 2,0 4,-1 1,-1 2,-1 3,-2 4,-3 9,-4 14,-6 2,-1 5,-2 8,-3l0 0c4,-2 5,-2 9,-1l0 1z"/>
 </g>
</svg>
