<?xml version="1.0" encoding="UTF-8"?>
<!DOCTYPE svg PUBLIC "-//W3C//DTD SVG 1.1//EN" "http://www.w3.org/Graphics/SVG/1.1/DTD/svg11.dtd">
<!-- Creator: CorelDRAW X8 -->
<svg xmlns="http://www.w3.org/2000/svg" xml:space="preserve" width="650px" height="650px" version="1.1" style="shape-rendering:geometricPrecision; text-rendering:geometricPrecision; image-rendering:optimizeQuality; fill-rule:evenodd; clip-rule:evenodd"
viewBox="0 0 650 650"
 xmlns:xlink="http://www.w3.org/1999/xlink">
 <defs>
  <style type="text/css">
   <![CDATA[
    .str0 {stroke:#D19C2C;stroke-width:9.22409;stroke-linejoin:round}
    .fil0 {fill:#FFD525}
   ]]>
  </style>
 </defs>
 <g id="Camada_x0020_1">
  <metadata id="CorelCorpID_0Corel-Layer"/>
  <g id="_2252572333264">
   <path class="fil0 str0" d="M386 176c0,0 -4,3 -5,4 -2,2 -2,2 -2,4 0,1 0,2 0,3 0,4 -1,5 -3,7 0,0 -1,1 -1,2 -1,1 -1,2 -2,4 1,-1 2,-2 3,-3 1,-1 2,-1 2,-1l0 0c3,-4 6,-8 7,-13 0,0 0,-1 0,-2 1,-1 2,-4 1,-5z"/>
   <path class="fil0 str0" d="M481 227c-2,0 -3,0 -4,0 -2,-1 -3,-1 -4,-1 -1,1 -1,1 -1,2 0,1 0,3 -1,4 -2,1 -4,1 -7,1l0 0c-3,0 -5,-1 -7,-1 -1,-1 -2,-1 -3,-1l-1 0c-1,0 -1,-1 -2,-1 0,1 -1,1 -2,2 0,0 0,0 0,1l-1 0c1,0 1,-1 1,-1 1,0 3,0 3,1 2,2 3,5 5,7 1,2 2,3 3,5 0,-1 0,-1 0,-2 1,-3 3,-6 7,-8 2,-1 3,-1 4,-1 2,0 3,0 4,-1 2,-1 3,-3 5,-5 0,0 0,0 1,-1z"/>
   <path class="fil0 str0" d="M425 216c1,1 2,2 2,3 1,0 1,1 1,1 2,5 2,5 9,7 1,0 2,1 3,1 1,1 3,2 4,2 0,0 0,0 0,-1 0,0 1,-1 2,-2 2,-1 2,-1 2,-1 2,-2 3,-2 6,-1l0 0c2,0 4,1 5,1 3,1 5,1 6,1 1,0 1,0 1,0 0,-1 1,-3 4,-5 3,-3 6,-2 9,-1 2,1 3,1 4,0 0,0 1,-2 1,-3 1,-3 1,-6 4,-7 1,-1 2,-1 4,0 2,0 3,2 4,3 0,1 0,1 1,2 0,-1 0,-3 0,-3 0,-1 0,-1 0,-2 0,0 0,0 0,0 0,-1 -1,-3 -1,-5 2,-4 5,-6 8,-8l1 -1c8,-4 11,-10 16,-17l2 -4c1,-1 1,-2 2,-3 1,-1 2,-3 2,-4 0,0 0,0 -2,-2 -2,-1 -4,-2 -6,-3 -1,-1 -2,-1 -4,-2 -1,-1 -2,-1 -3,-2 -3,-1 -5,-3 -7,-3 -2,0 -3,0 -5,0 -2,1 -4,1 -7,1 -2,0 -3,-1 -5,-2 -1,0 -2,-1 -3,-1 -1,0 -2,0 -3,1 -1,0 -2,1 -3,1 -3,0 -5,0 -7,0 -2,0 -4,0 -6,0 -1,1 -3,2 -5,3 -2,2 -5,4 -9,4 -3,0 -6,-1 -8,-2 -1,-1 -2,-2 -4,-1 -3,0 -3,2 -3,7 -1,3 -1,7 -3,9 -3,2 -7,2 -10,2 -1,0 -3,0 -4,0 0,0 0,0 0,0 -1,0 -1,1 -1,1 5,1 8,3 10,6 2,2 3,4 2,5 0,3 -2,4 -3,5 -1,0 -1,0 -1,1 0,0 0,0 0,0l0 0c0,0 1,0 1,1 2,0 5,1 6,4 1,2 0,4 -2,5 -1,3 -4,3 -7,3 -1,0 -2,0 -2,0 0,0 -1,0 -1,0 -2,0 -4,1 -5,2 0,0 0,0 0,1 1,0 2,0 3,1 1,0 4,0 5,2z"/>
   <path class="fil0 str0" d="M636 209c-1,0 -1,-1 -2,-1 0,-2 0,-3 1,-4 0,-1 -1,-2 -3,-3l-2 -1c-2,0 -3,-2 -5,-3 -2,-1 -4,-3 -5,-4 -1,0 -2,0 -3,0 -2,0 -4,1 -6,0 -3,-1 -4,-3 -5,-4 -1,-1 -2,-1 -3,-2 -2,-1 -6,-2 -10,-1 -2,0 -4,0 -6,-1 -2,0 -4,0 -7,0 -2,0 -5,0 -9,-1 -1,-1 -2,-1 -3,-1 -4,-2 -7,-2 -10,-1 -4,2 -8,5 -10,8 -4,5 -5,6 -9,9l-2 1c-3,2 -4,4 -6,6 -1,2 -2,3 -3,4 -4,4 -7,5 -11,7 -2,1 -4,2 -6,3l-2 2c-4,3 -9,6 -13,10 0,1 -1,2 -2,4 -2,3 -5,9 -12,8 -2,-1 -3,-2 -2,-4l0 -1c0,-1 1,-2 1,-3 -1,1 -2,1 -3,2 -2,2 -4,2 -6,2 -1,0 -2,0 -2,0 -3,1 -3,3 -4,5 -1,2 -2,5 -5,7 0,0 -1,0 -1,0 -1,0 -2,0 -3,-1 -2,-2 -4,-5 -5,-8 -1,-1 -1,-1 -1,-2 -2,1 -3,1 -4,1 -1,1 -2,1 -2,1 -2,0 -4,2 -6,3 -2,1 -4,2 -7,3 -6,1 -16,-7 -19,-11 -2,-3 -3,-6 -4,-9 0,-3 -1,-5 -2,-7 -1,-1 -1,-1 -1,-1 -2,-2 -3,-3 -4,-6 0,-2 0,-4 1,-5 0,-1 0,-1 0,-2 -1,-2 -1,-3 -5,-4 -3,0 -9,0 -10,1 -2,2 -3,3 -3,3 -2,3 -4,4 -9,4l-1 0c-4,0 -4,0 -6,5 -4,6 -7,11 -15,13 -5,1 -16,0 -18,-5 0,-2 -1,-6 5,-9 2,-1 4,-1 6,-1 2,-1 3,-1 5,-2 1,-2 2,-4 3,-6 -6,0 -16,-4 -16,-5 -7,-3 -15,-7 -17,-18 -1,-2 -1,-4 -1,-6 0,-4 -1,-8 -3,-11 -1,-1 -2,-2 -4,-2 -1,-1 -3,-1 -5,-3 -5,-3 -8,-11 -11,-18 -1,-2 -1,-3 -2,-4 0,-1 0,-2 0,-3 0,0 -1,0 -1,0 -1,-1 -2,-1 -2,-2 -1,-3 -1,-6 -1,-8 0,-1 0,-2 0,-3 0,-1 0,-5 0,-8 0,-3 -1,-4 -1,-6 -5,0 -8,-4 -10,-7l-1 -2c-2,-3 -5,-6 -6,-11 -1,-1 -1,-3 -1,-4 0,-1 0,-1 -1,-1 0,-1 -1,-1 -2,-1 -1,0 -3,0 -4,0 -4,-1 -6,-4 -7,-6 -1,-1 -2,-2 -3,-2 -1,-2 -4,-2 -6,-3l0 0c-1,1 -1,2 -2,2 -1,1 -3,1 -4,-1 0,-1 -1,-2 -2,-3l0 0c-1,-1 -1,-1 -2,-2 -4,-5 -9,-8 -14,-8l-3 0c-3,0 -6,0 -7,-2 -2,-2 -2,-5 -2,-8 0,-3 1,-7 1,-11 0,-2 1,-5 1,-7 -1,-1 -1,-2 -2,-2 -1,-2 0,-3 1,-4l0 0c0,-1 -1,-2 -2,-3 -5,-3 -17,-3 -25,0 -2,0 -4,2 -7,3 -5,3 -10,6 -15,5 -3,-1 -5,-3 -7,-4 0,-1 0,-1 0,-1 -1,1 -1,2 -2,4l-1 0c-1,2 -2,3 -3,4 0,0 0,0 0,0 0,0 0,1 1,2 1,1 2,2 2,3 1,1 2,2 3,4 2,5 1,9 -1,11 -4,5 -13,4 -20,2 -8,-2 -14,-2 -23,-2 -3,1 -7,0 -10,0 -4,0 -8,-1 -12,0 -4,1 -6,2 -9,4 0,1 -1,2 -1,2 -1,3 -2,4 -6,6 -3,0 -6,0 -9,0 -3,-1 -6,-1 -8,0 0,0 0,1 -1,2 -1,1 -2,3 -5,5 -3,1 -6,1 -9,1 -4,0 -7,0 -9,3 0,1 0,1 -1,2 0,1 0,3 -2,5 -3,2 -5,3 -8,3 -3,1 -5,1 -6,2 0,1 0,1 0,2 0,1 -1,2 -1,3 0,2 -1,3 -2,3 -1,0 -1,0 -2,0 0,3 0,6 1,8 0,1 0,2 1,3 0,1 1,3 1,5 1,2 1,12 0,16l0 0 0 0 0 2c0,1 -1,2 -2,2 -1,5 1,11 3,16 2,4 3,8 4,12 0,1 0,3 0,4 0,1 0,3 1,5 0,1 0,2 0,4 1,3 1,5 2,5 1,1 2,0 3,0 2,0 5,-1 8,2 2,2 3,5 3,8 0,0 1,1 1,2 1,3 1,3 2,4 0,1 1,2 2,3 2,2 2,3 2,5 1,1 1,1 1,3 2,3 9,8 13,10 4,1 9,2 14,2 5,0 9,0 14,1l2 1c8,2 12,3 18,12 1,2 1,3 1,4 1,0 1,1 3,1 1,0 2,0 3,0 3,1 6,1 9,6 1,1 1,2 1,3 7,0 16,-3 21,-7l1 -1c3,-2 6,-4 9,-4 1,1 3,2 4,4 2,5 -3,8 -6,11 -1,0 -1,1 -2,1 0,1 0,2 -1,3 -10,8 -17,22 -23,35 -3,6 -7,13 -10,20 -5,8 -10,17 -13,25 -2,4 -3,9 -5,13 -2,7 -5,14 -8,21 -1,2 -3,5 -4,7 -1,3 -3,5 -4,8 -1,3 -2,7 -3,11 -2,4 -3,8 -4,12 -3,7 -8,13 -12,19 -3,4 -5,8 -8,12 -3,7 -7,13 -10,20 0,2 -1,3 -1,5 -1,3 -2,7 -4,10 0,0 0,1 0,2 -1,3 0,4 4,7 2,2 5,4 7,7 1,4 3,8 2,13 0,1 -1,3 -2,4l0 1c8,2 8,9 9,15 0,2 0,4 1,6 1,3 3,5 5,8 1,2 3,5 5,8l1 3c2,5 3,10 3,15 1,2 1,5 1,8 0,2 0,4 0,6 4,0 7,3 10,6 1,1 2,2 2,2 3,2 5,4 8,7 1,2 2,4 3,5 1,2 2,4 3,5 2,2 2,2 4,2 2,0 3,0 5,0 4,1 6,3 7,5 1,1 1,2 2,2 2,1 6,1 9,0 2,0 4,-1 5,-1 5,0 9,0 13,0 4,0 9,0 13,0l0 0c4,0 8,1 11,2 2,0 4,1 7,1 9,0 16,1 24,1 3,1 7,1 10,1 5,0 10,0 16,0l5 1c6,0 13,1 19,1 16,0 31,1 46,2 17,1 35,2 52,2 20,0 43,2 66,7l2 0c5,1 16,4 21,1 0,-1 0,-1 0,-2 0,-4 0,-8 1,-12 1,-3 2,-5 3,-6 1,-1 2,-2 2,-3 2,-2 3,-5 3,-7 2,-5 4,-10 13,-13 5,-3 6,-4 7,-8 0,-2 1,-4 1,-6 2,-5 5,-9 8,-13 2,-3 5,-6 6,-9 3,-8 0,-15 -2,-18 -4,-6 -8,-12 -3,-21 1,-2 3,-3 4,-4 2,-1 3,-2 3,-3 1,-2 1,-5 0,-7 0,-2 -1,-4 -1,-6 1,-5 6,-9 8,-11 4,-2 9,-4 14,-3 0,-1 1,-2 2,-2 1,0 2,0 3,1 3,-1 3,-4 5,-8 1,-4 2,-9 5,-13 1,-1 2,-2 3,-3 2,-2 4,-3 5,-6 0,-1 0,-1 0,-2 1,-1 1,-2 1,-3 0,-1 -1,-3 -1,-3 0,-1 0,-1 0,-2 0,0 0,0 0,0 1,-3 2,-5 4,-7 0,-1 1,-2 1,-2l0 0c0,0 -1,-1 -4,-3 -2,-1 -5,-2 -8,-2 -6,-1 -11,-3 -15,-7 -1,-1 -1,-2 -1,-3 2,-4 6,-5 8,-7 2,0 3,-1 4,-2 1,-1 2,-3 3,-4 1,-2 2,-3 3,-5 3,-3 7,-6 11,-8 3,-2 7,-4 9,-8 1,-1 1,-2 2,-2 1,-3 3,-5 6,-7 2,0 3,0 5,0 1,0 3,0 3,-1 6,-1 8,-6 11,-11 1,-2 2,-4 3,-6 2,-2 4,-4 5,-6 3,-4 6,-7 7,-10 1,-2 2,-4 2,-6 1,-2 1,-5 3,-7 1,-2 2,-3 3,-4 1,0 2,-1 3,-1 1,-2 1,-4 2,-6 1,-2 2,-5 3,-7 1,-2 3,-3 4,-4 2,-1 3,-2 3,-3 1,-1 3,-6 3,-7 0,-1 0,-2 -1,-3 0,-2 0,-3 0,-5 0,-4 2,-6 4,-7 1,-1 2,-1 2,-2 1,-2 1,-3 1,-5 1,-2 1,-5 2,-7 1,-2 2,-3 3,-5 1,-2 2,-3 3,-5 0,0 0,-1 0,-2 0,-2 1,-3 2,-5 0,-1 0,-1 0,-1 0,0 0,-1 -3,-2 -2,-1 -4,-2 -5,-4 0,-3 1,-5 2,-6 1,-1 3,-2 5,-2 1,0 2,-1 2,-1 2,-1 2,-2 2,-4l1 -3c1,-3 2,-7 2,-10z"/>
  </g>
 </g>
</svg>
