<?xml version="1.0" encoding="UTF-8"?>
<!DOCTYPE svg PUBLIC "-//W3C//DTD SVG 1.1//EN" "http://www.w3.org/Graphics/SVG/1.1/DTD/svg11.dtd">
<!-- Creator: CorelDRAW X8 -->
<svg xmlns="http://www.w3.org/2000/svg" xml:space="preserve" width="213px" height="118px" version="1.1" style="shape-rendering:geometricPrecision; text-rendering:geometricPrecision; image-rendering:optimizeQuality; fill-rule:evenodd; clip-rule:evenodd"
viewBox="0 0 213 118"
 xmlns:xlink="http://www.w3.org/1999/xlink">
 <defs>
  <style type="text/css">
   <![CDATA[
    .str0 {stroke:#D19C2C;stroke-width:9.23592;stroke-linejoin:round}
    .fil0 {fill:#FFD525}
   ]]>
  </style>
 </defs>
 <g id="Camada_x0020_1">
  <metadata id="CorelCorpID_0Corel-Layer"/>
  <path class="fil0 str0" d="M21 78c0,1 1,1 1,2 0,1 0,1 0,2 2,0 4,1 7,1 0,0 1,0 1,0 3,1 9,2 11,1 0,0 0,0 0,-1 1,-1 1,-3 2,-4 5,-4 10,-5 15,-6 4,-1 7,-2 10,-4 2,0 3,-1 4,-2 4,-3 9,-6 18,-4 1,0 2,1 2,2 0,0 1,1 2,2 2,1 6,3 5,7 -1,3 -4,3 -7,3 -1,0 -3,1 -3,1 0,0 0,1 1,3 1,1 2,4 2,7 0,2 -2,4 -3,5 4,1 9,4 8,11 0,1 -1,3 -1,4 0,1 -1,1 -1,1 0,1 1,1 1,1 2,1 5,-3 8,-5 1,-2 2,-3 3,-4 3,-1 5,-2 7,-2 1,0 2,0 3,-1 2,0 2,-1 3,-1 -1,-1 0,-3 1,-5 3,-7 14,-9 23,-9 0,0 0,0 0,0 2,0 3,0 4,0 0,0 0,0 2,0 1,-1 2,-2 3,-2 1,-2 3,-3 6,-4 2,0 4,0 5,0 2,0 3,0 4,-1 2,0 2,-1 2,-1 0,-1 -1,-3 1,-5 3,-5 11,-7 16,-6 4,1 6,3 8,5 1,0 1,0 1,1 1,0 1,0 2,0 0,-2 1,-4 1,-5 1,-1 1,-2 1,-3 0,-1 0,-2 -1,-3 -1,-2 -2,-5 -1,-8 0,-3 1,-4 2,-5 1,-2 1,-2 1,-5 -1,-3 -2,-3 -6,-5l-1 0c-1,0 -2,-1 -2,-2 0,-1 0,-2 1,-3 1,-1 1,-1 1,-2l0 0c0,0 -1,-1 -1,-1 -2,1 -4,0 -6,-1 -1,0 -1,0 -2,0 -1,0 -3,0 -5,0 -3,0 -6,0 -9,-1 -2,-1 -4,-1 -5,-2 -1,-1 -1,-1 -3,0 -1,0 -2,1 -3,1 -2,1 -4,1 -6,2 0,1 -2,2 -3,2l-3 0c-1,0 -3,-1 -3,-2 -3,-1 -7,-1 -11,-2l-1 -1c-1,0 -2,-1 -4,-1 -1,-1 -3,-2 -4,-2 0,0 0,1 0,1 0,2 1,4 2,5 1,1 2,2 1,3 0,1 -1,2 -2,2 -1,0 -1,0 -2,1 0,0 0,0 0,0 1,1 0,2 -1,3 -1,1 -2,2 -2,5 -1,4 -2,9 -8,12 -1,0 -2,0 -3,0 -1,-1 -1,-2 -1,-2 -1,-2 -1,-4 -1,-5 0,-4 0,-5 -3,-6 -4,-2 -10,1 -14,5 -1,1 -2,1 -3,1 -1,0 -1,-1 -2,-2 -1,-2 -4,-5 -7,-6 -2,0 -3,-1 -4,-1 -3,0 -4,-1 -5,-6 0,0 0,0 0,0 0,-1 0,-1 1,-2 0,0 0,-1 1,-2 0,-1 0,-2 1,-2l0 0c1,-3 3,-4 5,-6 2,-1 4,-2 5,-4 0,-1 -2,-5 -2,-6 -4,-2 -17,2 -21,5 -1,1 -2,3 -3,5 -2,3 -4,6 -7,7 -4,3 -8,2 -13,1 -1,0 -1,0 -1,0 -2,0 -3,0 -5,-1 -2,-1 -2,-3 -2,-4 -1,0 -1,0 -1,-1 -1,0 -3,-2 -3,-2 -3,0 -3,3 -2,9 0,3 0,5 -1,7 0,2 -3,3 -6,6 -1,0 -3,1 -4,2 0,0 0,0 0,0 1,1 2,1 3,2 0,1 0,2 -1,3 -1,2 0,4 5,9 3,3 6,5 7,8 2,7 -1,10 -4,12 -1,1 -1,1 -1,1z"/>
 </g>
</svg>
