<?xml version="1.0" encoding="UTF-8"?>
<!DOCTYPE svg PUBLIC "-//W3C//DTD SVG 1.1//EN" "http://www.w3.org/Graphics/SVG/1.1/DTD/svg11.dtd">
<!-- Creator: CorelDRAW X8 -->
<svg xmlns="http://www.w3.org/2000/svg" xml:space="preserve" width="295px" height="413px" version="1.1" style="shape-rendering:geometricPrecision; text-rendering:geometricPrecision; image-rendering:optimizeQuality; fill-rule:evenodd; clip-rule:evenodd"
viewBox="0 0 295 413"
 xmlns:xlink="http://www.w3.org/1999/xlink">
 <defs>
  <style type="text/css">
   <![CDATA[
    .str0 {stroke:#D19C2C;stroke-width:9.2099;stroke-linejoin:round}
    .fil0 {fill:#FFD525}
   ]]>
  </style>
 </defs>
 <g id="Camada_x0020_1">
  <metadata id="CorelCorpID_0Corel-Layer"/>
  <path class="fil0 str0" d="M267 236c0,-1 0,-1 1,-2 0,-1 1,-1 1,-1 2,-3 3,-6 5,-10 0,-1 1,-3 2,-5 2,-3 4,-8 4,-10 0,-3 0,-3 -3,-3 -2,0 -3,-1 -5,-1 -6,-3 -6,-8 -7,-12 0,-1 0,-3 -1,-5 0,0 0,-1 0,-1l0 0c-1,-1 -1,-2 0,-3 0,-2 0,-3 0,-4 -1,-1 -1,-1 -2,-2 0,0 -2,-1 -3,-3 -5,-6 -4,-16 -3,-24 0,-2 1,-3 1,-5 0,-5 0,-11 0,-16 -1,-3 -2,-6 -3,-9 -2,-3 -3,-5 -3,-9 -1,-3 0,-5 0,-7 1,-2 1,-4 1,-6 -1,-1 -1,-2 -1,-3 -1,-2 -1,-4 -1,-8 0,-1 0,-2 0,-2 1,-4 1,-4 -1,-7 -1,-1 -2,-2 -2,-3 -3,-3 -5,-6 -6,-10 0,-2 -1,-3 -1,-4 0,-2 0,-3 -2,-5 -1,-1 -2,-1 -2,-2 -3,-2 -3,-3 -4,-6 -1,-5 1,-10 3,-15 1,-4 3,-8 2,-10 -2,-3 -13,-6 -21,-7 -1,7 -6,11 -11,14 -1,1 -2,2 -4,3 -2,2 -3,3 -5,5 -3,3 -5,6 -8,8 -2,1 -4,2 -6,2 -2,1 -3,2 -5,2 -4,4 -7,11 -10,18 -2,3 -3,5 -4,8 -1,1 -1,2 -2,3 -2,4 -3,6 -2,9 0,2 1,4 2,6 1,4 3,7 2,13 0,2 0,4 0,6 0,6 0,14 -3,20 -1,1 -2,3 -3,4 -1,2 -3,4 -3,7l0 4c-1,9 -1,16 3,24 0,0 0,0 0,0l0 1c2,0 4,1 6,3 3,2 4,3 3,6 0,1 0,1 0,2 1,11 0,14 -9,18l-1 1c-10,4 -18,7 -30,2 -6,-2 -14,-5 -19,-1 -4,3 -11,10 -15,15 -5,6 -13,12 -20,16 -5,3 -11,4 -17,6 -4,1 -7,1 -10,3 -9,3 -11,13 -12,23 0,4 -1,7 -1,10 -2,6 -4,11 -7,15 -4,5 -5,7 -6,13 0,1 0,2 0,4 -1,2 -1,3 -2,5 -1,2 -2,3 -2,5 0,1 0,2 1,3 0,1 0,2 1,3 0,1 0,3 0,4 0,2 -1,3 0,4 0,2 1,4 2,6 0,3 1,5 2,7 0,4 -1,7 -2,10 0,2 -1,4 -1,6 0,1 0,3 1,5 0,1 0,3 0,5 8,-2 18,-1 23,4 3,4 3,8 2,11 0,3 0,4 4,5 1,1 3,2 5,2 6,3 10,5 17,2 4,-2 8,-5 12,-7 0,-1 1,-1 1,-2 1,-1 3,-3 7,-3 2,0 4,0 6,1 1,0 2,0 3,0 3,0 7,-2 11,-5 4,-3 6,-6 8,-12 0,-1 1,-3 2,-4 1,-3 4,-9 3,-10 0,-1 -1,-3 -2,-4 -4,-3 -8,-7 -6,-12 1,-3 4,-5 7,-6 2,-1 4,-2 4,-2 2,-2 3,-3 3,-5 1,-1 2,-3 3,-4 1,-1 2,-1 4,-1 2,2 3,3 4,5 1,1 1,2 3,2 2,0 3,0 6,0 3,-1 7,-2 11,0 2,1 3,2 5,4 1,1 2,2 3,2 2,1 6,0 9,-1l2 0c2,-1 4,-2 6,-3 2,-1 3,-2 4,-3 5,-2 8,-2 12,-1l2 0c5,0 18,-2 20,-7 0,0 0,-1 0,-2 -3,0 -5,-1 -6,-3 -1,-2 0,-4 1,-4 1,-1 2,-1 2,0 1,-1 3,-1 4,0 0,0 1,0 1,1 4,-2 9,-8 10,-11 0,0 0,-1 0,-1 0,-2 1,-3 2,-5 2,-2 5,-4 8,-5 1,0 2,0 3,-1 2,-1 4,-3 6,-5 2,-1 4,-3 5,-4 10,-8 16,-15 13,-24 -1,-2 -1,-5 -1,-7 0,-3 -1,-7 -2,-8 -1,0 -2,-1 -2,-2 0,0 0,0 0,-1z"/>
 </g>
</svg>
