<?xml version="1.0" encoding="UTF-8"?>
<!DOCTYPE svg PUBLIC "-//W3C//DTD SVG 1.1//EN" "http://www.w3.org/Graphics/SVG/1.1/DTD/svg11.dtd">
<!-- Creator: CorelDRAW X8 -->
<svg xmlns="http://www.w3.org/2000/svg" xml:space="preserve" width="236px" height="118px" version="1.1" style="shape-rendering:geometricPrecision; text-rendering:geometricPrecision; image-rendering:optimizeQuality; fill-rule:evenodd; clip-rule:evenodd"
viewBox="0 0 236 118"
 xmlns:xlink="http://www.w3.org/1999/xlink">
 <defs>
  <style type="text/css">
   <![CDATA[
    .str0 {stroke:#D19C2C;stroke-width:9.2099;stroke-linejoin:round}
    .fil0 {fill:#FFD525}
   ]]>
  </style>
 </defs>
 <g id="Camada_x0020_1">
  <metadata id="CorelCorpID_0Corel-Layer"/>
  <path class="fil0 str0" d="M44 105c1,0 3,0 4,0 3,0 6,0 9,0 1,0 2,0 2,1 1,0 1,1 1,2 0,1 -1,2 -1,2 1,0 2,-1 3,-2 4,-3 8,-6 15,-6 1,0 2,1 2,3 1,1 0,3 -1,4 3,0 8,0 11,-1 1,-1 2,-1 3,-2 2,-2 3,-3 6,-3 2,-1 4,0 6,1 1,0 2,1 3,1 3,0 5,0 8,-1 0,0 1,0 2,0 7,0 14,0 20,0l2 0c7,1 19,2 24,-3 2,-1 2,-2 2,-4 0,-1 0,-2 0,-4 1,-5 3,-8 6,-11l1 -2c1,-1 2,-3 3,-4 1,-2 1,-4 3,-5 4,-4 7,-2 9,-3 3,-1 5,-3 8,-5 3,-2 5,-5 9,-6 1,0 3,-1 4,-1 0,0 0,0 0,-1 1,-2 0,-10 -1,-13 0,-1 -1,-2 -1,-4 -1,-1 -2,-2 -2,-4 0,-4 2,-6 3,-8 0,0 1,0 1,0 -3,-1 -6,0 -9,0 -6,1 -12,2 -17,-1 -1,-1 -2,-2 -3,-3 0,0 0,-1 0,-1 -1,0 -2,0 -3,0 -2,0 -4,0 -5,-2 -3,-2 -3,-7 -3,-11 0,0 -1,1 -2,2 -1,1 -3,1 -4,2 -2,1 -3,1 -3,3 -1,1 -1,2 -1,4 0,2 0,4 -1,6 -1,3 -3,4 -4,6 -1,1 -2,1 -3,3 -1,2 -1,5 -1,9l0 1c0,10 -3,12 -9,13 -1,0 -3,0 -5,1 -4,1 -7,3 -10,5 -6,4 -13,8 -20,7 -2,0 -4,-1 -6,-2 -2,-1 -4,-1 -5,-1 -2,0 -4,1 -6,1 -2,1 -3,2 -5,2 -2,0 -5,1 -7,1 -3,0 -6,0 -9,2l-2 1c-4,2 -7,4 -11,5 -4,1 -7,1 -10,2 -6,0 -12,1 -17,5 1,0 1,0 1,0 1,1 2,2 3,2 2,1 5,0 8,0 6,-1 16,-2 17,6 1,8 -7,10 -12,11z"/>
 </g>
</svg>
