<?xml version="1.0" encoding="UTF-8"?>
<!DOCTYPE svg PUBLIC "-//W3C//DTD SVG 1.1//EN" "http://www.w3.org/Graphics/SVG/1.1/DTD/svg11.dtd">
<!-- Creator: CorelDRAW X8 -->
<svg xmlns="http://www.w3.org/2000/svg" xml:space="preserve" width="177px" height="142px" version="1.1" style="shape-rendering:geometricPrecision; text-rendering:geometricPrecision; image-rendering:optimizeQuality; fill-rule:evenodd; clip-rule:evenodd"
viewBox="0 0 177 142"
 xmlns:xlink="http://www.w3.org/1999/xlink">
 <defs>
  <style type="text/css">
   <![CDATA[
    .str0 {stroke:#D19C2C;stroke-width:9.2099;stroke-linejoin:round}
    .fil0 {fill:#FFD525}
   ]]>
  </style>
 </defs>
 <g id="Camada_x0020_1">
  <metadata id="CorelCorpID_0Corel-Layer"/>
  <path class="fil0 str0" d="M170 97c0,-1 0,-1 -1,-2 0,0 -1,-1 -3,-1 -2,-1 -4,-2 -5,-5 -1,0 -1,-1 -1,-1l0 -9c0,-1 0,-3 1,-4 0,-2 0,-4 0,-5 -1,-1 -2,-2 -3,-3 -1,-1 -3,-3 -4,-7 -1,-3 -1,-7 -1,-9 0,-4 0,-7 -2,-9 0,0 -1,-1 -3,-1 -1,-1 -2,-2 -4,-3 -1,-1 -1,-2 -2,-3 -1,-1 -3,-2 -4,-2 -1,-1 -5,-1 -7,-1l-2 1c-4,0 -9,0 -13,-1 -4,0 -8,0 -12,0 -5,1 -9,1 -14,-1 0,0 -2,0 -3,0 -3,0 -6,0 -9,-1 -2,-1 -4,-3 -6,-5 -4,-3 -5,-4 -8,-3 -2,1 -3,1 -4,0 -1,0 -3,0 -5,0 -7,1 -8,4 -11,8 -1,2 -2,4 -4,6 -2,3 -4,6 -5,8 0,1 0,2 0,3 0,2 0,5 -2,7 -1,2 -3,4 -4,6 -2,1 -3,2 -4,4 -1,2 -1,3 -2,4 0,2 -1,5 -3,7 -1,2 -3,4 -5,6 -1,2 -2,3 -4,5 -1,2 -3,4 -4,5 1,0 1,1 2,2 1,0 1,1 2,1 1,1 1,2 1,3 1,0 1,0 2,0 0,0 1,0 2,0 3,1 6,1 9,0 1,-1 3,-3 5,-5 1,-3 2,-5 4,-6 4,-4 20,-11 27,-6 3,2 5,9 5,12 -1,4 -4,6 -7,8 -2,1 -3,2 -4,4 0,0 0,0 0,1 -1,1 -1,2 -1,2 0,0 0,0 0,0 0,0 0,0 0,0 1,1 3,1 5,2 2,1 6,3 8,5 5,-3 12,-6 18,-4 5,3 6,7 6,10 1,-1 1,-2 1,-4 1,-2 1,-5 3,-7 0,0 -1,0 -1,-1 0,-1 0,-2 1,-2 1,-1 2,-2 3,-2 -1,-2 -2,-4 -2,-6 0,-2 1,-4 3,-5 2,-3 6,-1 10,1 1,0 2,0 2,1l2 0c4,1 11,3 14,2 1,-1 2,-1 3,0 0,0 0,0 0,0 2,0 4,-1 5,-2 1,0 2,0 3,-1 4,-1 6,-1 8,1 1,0 2,1 4,1 2,1 5,1 7,1 2,0 4,0 6,0 1,0 2,0 3,1 2,0 2,0 3,0 0,-1 1,-1 1,-1z"/>
 </g>
</svg>
