<?xml version="1.0" encoding="UTF-8"?>
<!DOCTYPE svg PUBLIC "-//W3C//DTD SVG 1.1//EN" "http://www.w3.org/Graphics/SVG/1.1/DTD/svg11.dtd">
<!-- Creator: CorelDRAW X8 -->
<svg xmlns="http://www.w3.org/2000/svg" xml:space="preserve" width="413px" height="354px" version="1.1" style="shape-rendering:geometricPrecision; text-rendering:geometricPrecision; image-rendering:optimizeQuality; fill-rule:evenodd; clip-rule:evenodd"
viewBox="0 0 413 354"
 xmlns:xlink="http://www.w3.org/1999/xlink">
 <defs>
  <style type="text/css">
   <![CDATA[
    .str0 {stroke:#D19C2C;stroke-width:9.2099;stroke-linejoin:round}
    .fil0 {fill:#FFD525}
   ]]>
  </style>
 </defs>
 <g id="Camada_x0020_1">
  <metadata id="CorelCorpID_0Corel-Layer"/>
  <g id="_2252456188768">
   <path class="fil0 str0" d="M333 174c0,0 -1,0 -2,1 -1,0 -1,1 -2,1 -6,3 -10,7 -12,14l0 3c-2,8 -5,19 -12,25 -2,2 -5,3 -7,4 -4,1 -6,2 -8,5l0 2c-2,4 -2,5 -6,8 -1,1 -2,1 -3,1 -2,1 -3,2 -4,3 0,2 0,10 1,12 0,1 1,1 1,1 0,0 0,0 1,1 -2,-3 -2,-6 -1,-8 1,-3 5,-4 10,-5 8,-1 13,-1 18,-7 0,0 1,-1 1,-2 1,-1 3,-3 6,-5 1,0 2,-1 3,-1 1,-1 2,-2 3,-3 2,-1 2,-3 3,-5 0,-2 0,-3 1,-5 1,-3 4,-5 6,-6 1,-1 2,-2 2,-3 1,0 2,-1 2,-2 2,-2 4,-4 7,-7 1,0 2,-1 3,-1 1,-1 2,-1 3,-2 0,-1 0,-4 0,-6 0,-4 -1,-8 2,-11 2,-2 5,-1 6,-1 1,0 1,1 2,1 0,-2 0,-8 -1,-9 0,0 0,0 0,0 -1,0 -7,1 -9,3 -1,0 -2,1 -4,2 -1,1 -4,2 -6,3 -1,0 -2,-1 -3,-1 0,0 0,0 -1,0z"/>
   <path class="fil0 str0" d="M211 283c-2,4 -5,12 -1,27 2,0 3,1 3,2 0,2 0,5 0,7 0,4 0,8 2,10 0,2 1,3 2,4 1,1 2,2 2,4 14,-6 26,-17 38,-34 2,-3 2,-6 2,-10 0,-4 0,-8 3,-12 1,-2 2,-3 4,-4 1,-1 2,-2 2,-3 0,0 0,-1 0,-2 0,-2 0,-5 3,-7 1,-2 3,-3 4,-3 1,-1 2,-1 2,-2 0,0 0,0 -1,-1 -1,-1 -2,-2 -3,-3 -2,-3 -2,-13 -1,-17 2,-4 4,-5 6,-6 1,0 2,-1 3,-1 2,-2 2,-2 3,-5l1 -2c3,-6 7,-8 11,-9 2,-1 4,-1 6,-3 5,-5 7,-14 9,-21l1 -4c2,-10 8,-14 15,-17 0,-1 1,-1 1,-1 2,-1 3,-2 5,-2 1,-1 3,0 4,1 1,-1 2,-2 3,-3 2,0 3,-1 4,-2 0,0 12,-5 16,-1 1,0 2,1 3,6 0,2 0,7 -2,10 -2,3 -5,2 -7,2 0,0 -1,0 -1,0 -1,0 0,3 0,6 0,3 0,6 -1,9 -2,2 -4,3 -6,4 0,0 -1,1 -2,1 -2,2 -3,3 -5,5 -1,1 -1,2 -2,3 -1,1 -2,2 -3,3 -2,1 -4,3 -5,5 0,1 0,2 -1,3 0,1 0,3 -1,4 1,-1 2,-2 3,-3 3,-4 7,-7 11,-10 4,-3 9,-6 11,-10 0,-1 1,-2 1,-4 0,-1 0,-3 1,-4 1,-4 4,-8 7,-12l2 -2c1,-2 3,-4 5,-6 3,-4 5,-7 6,-11 0,-1 0,-2 0,-3 0,-3 0,-6 2,-9 2,-3 4,-6 7,-8 1,-2 3,-3 4,-5 2,-2 5,-6 6,-10 -1,0 -1,0 -1,0 0,-2 0,-3 1,-4 0,-1 -1,-2 -1,-2 -1,-1 -2,-2 -2,-2 -1,0 -1,0 -1,0 0,0 -2,1 -3,2 -1,0 -2,1 -2,1 -2,1 -6,3 -9,1 -2,-3 0,-7 4,-13 1,-2 3,-5 3,-6 1,-1 1,-2 1,-3 1,-3 2,-6 6,-9 1,-1 2,-1 3,-2 2,-1 3,-1 3,-2 -1,-1 -1,-1 -1,-2 -8,1 -20,-3 -25,-5 -2,0 -4,-1 -5,-2 -10,-4 -19,-7 -25,-18 -5,-8 -15,-17 -23,-21 -3,-2 -6,-3 -10,-3 -2,0 -4,0 -7,-1 -4,-1 -7,-3 -10,-4 -1,-1 -2,-2 -4,-2 -16,-9 -35,-10 -54,-10 -7,0 -15,-1 -22,-1l-3 -1c-1,0 -2,0 -3,0 -1,0 -1,0 -2,0 -1,0 -1,0 -2,-1 -6,0 -11,0 -17,4l-7 4c-8,5 -15,10 -23,14 -8,5 -16,10 -24,15l-5 3c-1,1 -3,2 -5,3 -3,2 -8,4 -9,6 -1,1 -1,3 -1,6 0,1 -1,2 -1,4 0,0 -1,1 -1,2 -1,0 -2,0 -3,0 -3,-2 -7,3 -11,8 -1,1 -2,2 -3,3 -3,3 -5,6 -7,8 -1,2 -3,4 -4,6 -3,3 -6,5 -9,7 -2,1 -4,2 -6,4 -2,3 -4,5 -6,8 -1,2 -3,4 -4,6 -3,4 -7,7 -11,10 -3,2 -5,4 -7,6 -3,3 -7,7 -10,10 -2,3 -4,5 -7,8 1,1 1,1 1,2 3,1 6,1 10,1l1 0c2,0 4,0 5,0 0,0 0,-1 -1,-2 0,0 0,-1 0,-2 0,-1 1,-2 2,-2 4,-2 17,-5 23,-1 2,1 3,4 5,6 1,2 2,4 3,5 2,2 5,4 8,5 5,3 10,5 13,10 2,3 4,7 5,11 0,2 1,5 2,6 0,2 0,3 1,4 0,0 0,0 0,0 1,0 3,0 8,-2 1,-1 2,-2 3,-4 1,-2 3,-5 8,-4 5,2 10,9 12,13 1,0 2,1 2,2l1 1c1,4 1,4 7,5 2,1 3,1 5,1 3,0 5,1 7,2 2,1 3,2 3,3 1,0 1,1 1,1 2,1 3,1 5,2 3,1 7,2 10,7 1,1 2,3 2,4 1,2 1,3 2,4 1,0 2,0 3,0 1,1 3,1 5,3 2,2 2,3 3,4 0,0 0,0 1,1 0,0 1,0 2,-1 2,0 5,0 7,1 9,4 11,12 13,19l0 1c2,8 14,14 23,14 1,0 3,1 3,3 0,1 -1,3 -3,3 -5,0 -12,-2 -18,-5z"/>
   <path class="fil0 str0" d="M295 247c-2,1 -3,1 -5,1 -5,1 -6,1 -6,2 0,0 0,1 2,3 3,-1 6,-4 9,-6z"/>
  </g>
 </g>
</svg>
