<?xml version="1.0" encoding="UTF-8"?>
<!DOCTYPE svg PUBLIC "-//W3C//DTD SVG 1.1//EN" "http://www.w3.org/Graphics/SVG/1.1/DTD/svg11.dtd">
<!-- Creator: CorelDRAW X8 -->
<svg xmlns="http://www.w3.org/2000/svg" xml:space="preserve" width="295px" height="177px" version="1.1" style="shape-rendering:geometricPrecision; text-rendering:geometricPrecision; image-rendering:optimizeQuality; fill-rule:evenodd; clip-rule:evenodd"
viewBox="0 0 295 177"
 xmlns:xlink="http://www.w3.org/1999/xlink">
 <defs>
  <style type="text/css">
   <![CDATA[
    .str0 {stroke:#D19C2C;stroke-width:9.2099;stroke-linejoin:round}
    .fil0 {fill:#FFD525}
   ]]>
  </style>
 </defs>
 <g id="Camada_x0020_1">
  <metadata id="CorelCorpID_0Corel-Layer"/>
  <path class="fil0 str0" d="M268 14c0,0 0,0 0,0 -1,-2 -2,-3 -2,-4 -2,-1 -5,-1 -8,0l-1 0c-5,0 -9,2 -13,5 -4,2 -8,4 -13,5 -7,1 -12,-1 -16,-3 -4,-2 -6,-3 -10,-4 -2,0 -4,0 -6,1 -1,1 -2,2 -3,3 -4,0 -7,-1 -9,-1 -2,-1 -4,-1 -5,-1 -5,-1 -7,1 -9,3 -3,1 -5,3 -10,4l-3 1c-2,0 -5,0 -8,0l-2 1c0,0 -1,0 -1,0 0,1 0,1 0,2 -1,2 -1,3 -1,5 -1,6 -3,14 -13,15 -5,1 -7,-1 -8,-3 -1,0 -2,-1 -3,-1 -2,-2 -5,-2 -8,-2 -3,0 -6,-1 -9,-2 -10,-4 -22,-5 -33,-6l-6 -1c-5,0 -11,0 -16,-3 -1,0 -2,-1 -3,-1 -1,-1 -2,-1 -4,-2 -4,-1 -9,-1 -15,0 -1,0 -2,0 -3,0l0 0c0,1 0,1 -1,2 -3,4 -2,10 -1,16 0,2 1,3 1,5 0,4 -1,7 -2,10 0,1 0,2 -1,4l2 0 4 0c6,1 14,1 21,2 20,0 40,1 57,10 1,1 2,2 3,2 3,2 6,3 9,4 2,1 5,1 7,1 4,0 8,1 12,3 9,5 19,15 24,24 6,9 14,12 23,15 1,1 3,2 5,3 5,2 19,5 24,4 1,-1 3,0 3,2 1,0 1,0 1,0 0,0 0,0 0,0 0,1 0,1 0,2 0,0 0,0 1,1 0,0 0,1 0,1 1,5 -3,8 -5,9 -1,0 -2,1 -3,1 -2,2 -3,4 -4,7 0,1 0,2 -1,3 0,1 -2,4 -3,7 -1,1 -2,2 -3,3 1,0 1,0 2,-1 1,-1 3,-2 6,-2 2,-1 5,1 7,4 0,0 1,0 1,1 0,-1 1,-2 1,-3 2,-2 4,-4 6,-6 2,-1 3,-2 4,-3 5,-5 11,-9 16,-13 3,-2 6,-5 9,-7 3,-2 5,-4 7,-7 1,-1 3,-2 4,-4 2,-1 4,-3 5,-5 2,-3 2,-9 1,-14 0,-3 0,-6 0,-8l0 -2c0,-4 1,-9 1,-14 1,-4 2,-7 2,-10 -1,-2 -1,-3 -2,-4 -1,-1 -1,-3 -2,-4 -1,-5 -1,-9 -1,-13 0,-4 0,-8 -1,-11 -1,-5 -2,-10 -1,-16 0,-1 1,-3 2,-5 0,-1 1,-2 1,-3 0,-1 0,-2 0,-2z"/>
 </g>
</svg>
