<?xml version="1.0" encoding="UTF-8"?>
<!DOCTYPE svg PUBLIC "-//W3C//DTD SVG 1.1//EN" "http://www.w3.org/Graphics/SVG/1.1/DTD/svg11.dtd">
<!-- Creator: CorelDRAW X8 -->
<svg xmlns="http://www.w3.org/2000/svg" xml:space="preserve" width="472px" height="295px" version="1.1" style="shape-rendering:geometricPrecision; text-rendering:geometricPrecision; image-rendering:optimizeQuality; fill-rule:evenodd; clip-rule:evenodd"
viewBox="0 0 472 295"
 xmlns:xlink="http://www.w3.org/1999/xlink">
 <defs>
  <style type="text/css">
   <![CDATA[
    .str0 {stroke:#D19C2C;stroke-width:2.95;stroke-linejoin:round}
    .fil0 {fill:#FFD525}
   ]]>
  </style>
 </defs>
 <g id="Camada_x0020_1">
  <metadata id="CorelCorpID_0Corel-Layer"/>
  <path class="fil0 str0" d="M418 152c0,0 -1,0 -1,0 -1,-1 -1,-2 -1,-2 -1,0 -1,0 -1,0 0,0 -1,0 -2,0l-1 1c-3,1 -6,2 -8,3 -5,1 -10,3 -13,5 -1,1 -2,1 -3,2 -2,1 -4,2 -7,2 -2,0 -3,0 -4,-1 0,0 -1,-1 -1,-1 -1,1 -1,2 -1,2 0,2 0,4 -2,6 -3,2 -5,2 -6,1 -1,0 -2,0 -2,0 -2,1 -4,1 -6,2 -5,1 -10,3 -17,2 -1,0 -2,-2 -2,-3 0,-3 -1,-5 -3,-7 -1,0 -2,-1 -2,-2 0,-1 1,-2 1,-2 2,-1 2,-2 2,-4 0,-2 -2,-4 -5,-5 0,0 0,0 -1,0 -1,0 -3,0 -5,-2 -2,-3 -4,-10 -4,-11 0,-2 1,-4 2,-5 1,-1 1,-1 1,-2 1,-2 0,-3 0,-6 0,-1 0,-2 -1,-3 0,-6 1,-11 5,-16l1 -1c1,-1 1,-2 1,-3l0 0c0,0 0,0 -2,-2 -2,-1 -5,-2 -7,-3 -3,-1 -7,-2 -9,-4 -4,-2 -9,-6 -10,-13 -1,-1 -1,-3 -1,-4 0,-1 0,-2 0,-2l0 0c0,0 -2,1 -3,0 0,0 0,0 0,0 -2,0 -3,-2 -3,-3 1,-3 3,-5 4,-7 1,-1 2,-3 3,-4 0,-1 0,-2 0,-2 -1,0 -4,-1 -6,-3 -1,-1 -1,-4 -1,-10 0,-1 -1,-2 -1,-3 0,-2 0,-3 0,-4 -1,-2 -4,-4 -6,-6 -1,-1 -3,-2 -4,-3 -2,1 -6,0 -9,0 -1,0 -3,0 -4,0 0,0 -1,1 -1,1 -1,1 -2,2 -5,3 -2,0 -3,0 -5,0 -1,0 -1,0 -2,0 -2,0 -5,1 -8,1 -2,1 -4,1 -7,1 -3,1 -7,1 -10,0 -3,0 -6,0 -8,0 0,10 -2,13 -4,14 -1,1 -3,1 -5,1 -3,-1 -4,-4 -5,-8 0,0 0,-1 -1,-2 -1,1 -2,2 -4,2 0,0 0,0 0,0 -3,0 -6,-2 -7,-5 -2,-3 -1,-6 -1,-8 0,-2 0,-3 -2,-5 -6,-6 -21,-4 -31,-4 -2,1 -4,1 -6,1 -1,0 -2,0 -3,0 -3,0 -6,0 -9,0 -2,-1 -3,-2 -4,-2 -1,-1 -2,-1 -2,-1 -1,-1 -2,-1 -2,-1 -1,0 -1,0 -2,0 -1,1 -2,1 -4,2 -1,1 -3,2 -5,3 -1,1 -2,1 -4,2 -3,1 -4,1 -5,4 0,2 1,4 1,5l0 1c0,1 0,2 0,3 -1,0 -1,0 -1,0 -2,2 -5,3 -10,5 -2,1 -4,2 -5,2 -2,2 -3,4 -4,6 -1,1 -2,3 -4,4 -1,2 -4,4 -6,5 -1,1 -3,2 -4,3 0,1 -1,3 -1,4 0,2 -1,3 -1,4 -2,5 -5,7 -8,8 -2,1 -3,2 -4,3 -1,1 0,4 0,7 1,4 2,9 -1,12 -2,2 -3,3 -4,3 -1,0 -1,0 -1,1 0,0 0,0 0,1 1,2 2,4 0,7 -1,2 -3,3 -5,5 -1,1 -2,1 -2,2 -1,1 -2,2 -2,3 -1,1 -3,3 -4,5 -4,3 -8,6 -13,9 -3,2 -6,4 -9,6 -3,2 -6,5 -8,7 2,0 4,1 6,1 5,1 9,2 13,1 4,0 7,0 10,-1 10,0 19,-1 31,2l5 1c8,2 16,4 24,8 10,4 18,4 29,3l2 0c2,0 3,0 4,0 8,0 15,0 22,5 5,3 7,8 9,12 1,2 2,4 4,6 4,7 6,11 7,20 0,2 0,4 0,7 0,4 0,8 2,12 1,2 2,3 3,5 3,3 5,6 6,10 1,2 1,4 1,6 0,4 0,5 2,6 1,1 6,1 9,0 3,0 5,0 6,0l4 0c4,0 8,0 12,1 3,0 7,1 8,5 1,3 -1,6 -4,10 -1,0 -1,1 -2,2 2,0 3,-1 5,-1 3,0 6,0 9,1 3,1 4,3 5,4 0,1 1,2 1,2 0,0 1,0 2,0 1,0 2,0 4,1l0 0c1,0 1,0 1,-1 0,0 0,-1 0,-1 0,-2 -1,-4 0,-6 2,-4 8,-6 12,-8 3,-1 7,-2 8,-4 0,0 0,0 0,-1 0,-1 0,-2 1,-4 2,-3 6,-4 8,-5l1 -1c1,-1 3,-1 4,-2 2,-1 3,-1 5,-2 3,-2 6,-4 9,-7l3 -2c3,-3 6,-6 9,-8 2,-1 4,-3 6,-4 4,-3 8,-4 12,-4 2,0 4,0 6,-1 2,0 3,-2 4,-3 2,-2 3,-5 6,-6 3,-1 8,0 14,0 2,0 4,0 6,0 5,0 7,3 9,5 1,2 2,3 5,3 2,0 3,-2 3,-3 1,-1 1,-2 0,-2 0,0 0,-1 -1,0 -1,0 -2,-1 -3,-1 0,-1 0,-2 0,-3 5,-13 17,-17 26,-19 6,0 13,-2 15,-4 -2,0 -8,2 -10,2 -1,1 -2,1 -3,1 -1,0 -1,0 -2,-1 -1,0 -1,-1 -1,-2 0,-1 0,-2 0,-2 0,-4 -1,-7 3,-10 0,-1 2,-2 4,-3 1,0 2,-1 2,-1 1,-1 2,-1 2,-2 2,-1 4,-2 6,-3 1,0 3,-1 4,-1 7,-2 10,-3 9,-6 0,-2 -5,-1 -11,-1 -4,1 -7,1 -10,0 -1,0 -3,-1 -4,-2 -1,-1 -1,-1 -2,-1 0,0 -1,0 -2,0z"/>
 </g>
</svg>
